<?xml version="1.0" standalone="no"?>
<!DOCTYPE svg PUBLIC "-//W3C//DTD SVG 1.1//EN" 
"http://www.w3.org/Graphics/SVG/1.1/DTD/svg11.dtd"> 
<svg
  xmlns="http://www.w3.org/2000/svg"
  version="1.1"
  width="11.7in" height="8.267in" viewBox="0 0 117000 82670 "
>
  <title>SVG Picture created as digital_back-Back.svg </title>
  <desc>Picture generated by wxSVG v0101 </desc>
  <g style="fill:black; stroke:black; stroke-width:1">
</g>
<g style="fill:#000000; fill-opacity:0.0; 
  stroke:#000000; stroke-linecap:round; stroke-linejoin:round; stroke-opacity:1.0; stroke-opacity:1.0; stroke-width:150" 
   transform="translate(0 0) scale(1 1)">
<path d="M46850 30709 L83268 30709" /> 
<path d="M46850 47244 L46850 30709" /> 
<path d="M83268 47244 L46850 47244" /> 
<path d="M83268 30709 L83268 47244" /> 
</g>
<g style="fill:#000000; fill-opacity:1.0; 
  stroke:#000000; stroke-linecap:round; stroke-linejoin:round; stroke-opacity:1.0; stroke-opacity:1.0; stroke-width:0" 
   transform="translate(0 0) scale(1 1)">
<ellipse cx="68504" cy="36831" rx="590" ry="590"  /> 
</g>
<g style="fill:#000000; fill-opacity:1.0; 
  stroke:#000000; stroke-linecap:round; stroke-linejoin:round; stroke-opacity:1.0; stroke-opacity:1.0; stroke-width:197" 
   transform="translate(0 0) scale(1 1)">
<path d="M68504 43701 L68504 36831" /> 
<path d="M69665 44862 L68504 43701" /> 
</g>
<g style="fill:#000000; fill-opacity:1.0; 
  stroke:#000000; stroke-linecap:round; stroke-linejoin:round; stroke-opacity:1.0; stroke-opacity:1.0; stroke-width:0" 
   transform="translate(0 0) scale(1 1)">
<ellipse cx="69665" cy="44862" rx="590" ry="590"  /> 
</g>
<g style="fill:#000000; fill-opacity:1.0; 
  stroke:#000000; stroke-linecap:round; stroke-linejoin:round; stroke-opacity:1.0; stroke-opacity:1.0; stroke-width:197" 
   transform="translate(0 0) scale(1 1)">
<path d="M59429 35079 L58366 35079" /> 
<path d="M57225 36220 L51949 36220" /> 
<path d="M58366 35079 L57225 36220" /> 
<path d="M69469 41909 L69469 37677" /> 
</g>
<g style="fill:#000000; fill-opacity:1.0; 
  stroke:#000000; stroke-linecap:round; stroke-linejoin:round; stroke-opacity:1.0; stroke-opacity:1.0; stroke-width:0" 
   transform="translate(0 0) scale(1 1)">
<ellipse cx="69469" cy="41909" rx="590" ry="590"  /> 
</g>
<g style="fill:#000000; fill-opacity:1.0; 
  stroke:#000000; stroke-linecap:round; stroke-linejoin:round; stroke-opacity:1.0; stroke-opacity:1.0; stroke-width:197" 
   transform="translate(0 0) scale(1 1)">
<path d="M65768 37992 L65335 37992" /> 
<path d="M67835 35925 L65768 37992" /> 
<path d="M69094 35925 L67835 35925" /> 
<path d="M69685 36516 L69094 35925" /> 
<path d="M69685 37461 L69685 36516" /> 
<path d="M69469 37677 L69685 37461" /> 
<path d="M63996 34016 L62815 34016" /> 
</g>
<g style="fill:#000000; fill-opacity:1.0; 
  stroke:#000000; stroke-linecap:round; stroke-linejoin:round; stroke-opacity:1.0; stroke-opacity:1.0; stroke-width:0" 
   transform="translate(0 0) scale(1 1)">
<ellipse cx="59429" cy="35079" rx="590" ry="590"  /> 
</g>
<g style="fill:#000000; fill-opacity:1.0; 
  stroke:#000000; stroke-linecap:round; stroke-linejoin:round; stroke-opacity:1.0; stroke-opacity:1.0; stroke-width:197" 
   transform="translate(0 0) scale(1 1)">
<path d="M59803 34705 L59429 35079" /> 
<path d="M62126 34705 L59803 34705" /> 
<path d="M62815 34016 L62126 34705" /> 
<path d="M51949 36220 L51949 39272" /> 
<path d="M51949 39272 L52402 39725" /> 
<path d="M52402 39725 L52402 43130" /> 
</g>
<g style="fill:#000000; fill-opacity:1.0; 
  stroke:#000000; stroke-linecap:round; stroke-linejoin:round; stroke-opacity:1.0; stroke-opacity:1.0; stroke-width:0" 
   transform="translate(0 0) scale(1 1)">
<ellipse cx="52402" cy="43130" rx="590" ry="590"  /> 
<ellipse cx="51949" cy="36220" rx="590" ry="590"  /> 
</g>
<g style="fill:#000000; fill-opacity:1.0; 
  stroke:#000000; stroke-linecap:round; stroke-linejoin:round; stroke-opacity:1.0; stroke-opacity:1.0; stroke-width:197" 
   transform="translate(0 0) scale(1 1)">
<path d="M63996 34016 L63996 35906" /> 
<path d="M63996 35906 L65335 37245" /> 
<path d="M65335 37245 L65335 37992" /> 
</g>
<g style="fill:#000000; fill-opacity:1.0; 
  stroke:#000000; stroke-linecap:round; stroke-linejoin:round; stroke-opacity:1.0; stroke-opacity:1.0; stroke-width:0" 
   transform="translate(0 0) scale(1 1)">
<ellipse cx="63996" cy="34016" rx="590" ry="590"  /> 
</g>
<g style="fill:#000000; fill-opacity:1.0; 
  stroke:#000000; stroke-linecap:round; stroke-linejoin:round; stroke-opacity:1.0; stroke-opacity:1.0; stroke-width:197" 
   transform="translate(0 0) scale(1 1)">
<path d="M65335 37992 L65354 37992" /> 
</g>
<g style="fill:#000000; fill-opacity:1.0; 
  stroke:#000000; stroke-linecap:round; stroke-linejoin:round; stroke-opacity:1.0; stroke-opacity:1.0; stroke-width:0" 
   transform="translate(0 0) scale(1 1)">
<ellipse cx="65335" cy="37992" rx="590" ry="590"  /> 
</g>
<g style="fill:#000000; fill-opacity:1.0; 
  stroke:#000000; stroke-linecap:round; stroke-linejoin:round; stroke-opacity:1.0; stroke-opacity:1.0; stroke-width:197" 
   transform="translate(0 0) scale(1 1)">
<path d="M74342 45433 L71417 45433" /> 
<path d="M76275 43500 L74342 45433" /> 
<path d="M80050 43500 L76275 43500" /> 
<path d="M80750 42800 L80050 43500" /> 
<path d="M80750 35825 L80750 42800" /> 
<path d="M81325 35250 L80750 35825" /> 
</g>
<g style="fill:#000000; fill-opacity:1.0; 
  stroke:#000000; stroke-linecap:round; stroke-linejoin:round; stroke-opacity:1.0; stroke-opacity:1.0; stroke-width:0" 
   transform="translate(0 0) scale(1 1)">
<ellipse cx="81325" cy="35250" rx="590" ry="590"  /> 
</g>
<g style="fill:#000000; fill-opacity:1.0; 
  stroke:#000000; stroke-linecap:round; stroke-linejoin:round; stroke-opacity:1.0; stroke-opacity:1.0; stroke-width:197" 
   transform="translate(0 0) scale(1 1)">
<path d="M71417 45433 L70354 45433" /> 
<path d="M70354 45433 L70098 45689" /> 
<path d="M70098 45689 L69291 45689" /> 
<path d="M69291 45689 L66299 42697" /> 
<path d="M66299 42697 L66299 40827" /> 
</g>
<g style="fill:#000000; fill-opacity:1.0; 
  stroke:#000000; stroke-linecap:round; stroke-linejoin:round; stroke-opacity:1.0; stroke-opacity:1.0; stroke-width:0" 
   transform="translate(0 0) scale(1 1)">
<ellipse cx="66299" cy="40827" rx="590" ry="590"  /> 
<ellipse cx="71417" cy="45433" rx="590" ry="590"  /> 
</g>
<g style="fill:#000000; fill-opacity:1.0; 
  stroke:#000000; stroke-linecap:round; stroke-linejoin:round; stroke-opacity:1.0; stroke-opacity:1.0; stroke-width:197" 
   transform="translate(0 0) scale(1 1)">
<path d="M49154 33051 L49154 34568" /> 
</g>
<g style="fill:#000000; fill-opacity:1.0; 
  stroke:#000000; stroke-linecap:round; stroke-linejoin:round; stroke-opacity:1.0; stroke-opacity:1.0; stroke-width:0" 
   transform="translate(0 0) scale(1 1)">
<ellipse cx="49803" cy="36594" rx="590" ry="590"  /> 
</g>
<g style="fill:#000000; fill-opacity:1.0; 
  stroke:#000000; stroke-linecap:round; stroke-linejoin:round; stroke-opacity:1.0; stroke-opacity:1.0; stroke-width:197" 
   transform="translate(0 0) scale(1 1)">
<path d="M49803 35217 L49803 36594" /> 
<path d="M49154 34568 L49803 35217" /> 
<path d="M57894 33681 L51614 33681" /> 
</g>
<g style="fill:#000000; fill-opacity:1.0; 
  stroke:#000000; stroke-linecap:round; stroke-linejoin:round; stroke-opacity:1.0; stroke-opacity:1.0; stroke-width:0" 
   transform="translate(0 0) scale(1 1)">
<ellipse cx="49154" cy="33051" rx="590" ry="590"  /> 
</g>
<g style="fill:#000000; fill-opacity:1.0; 
  stroke:#000000; stroke-linecap:round; stroke-linejoin:round; stroke-opacity:1.0; stroke-opacity:1.0; stroke-width:197" 
   transform="translate(0 0) scale(1 1)">
<path d="M50984 33051 L49154 33051" /> 
<path d="M51614 33681 L50984 33051" /> 
<path d="M66850 33071 L64922 33071" /> 
</g>
<g style="fill:#000000; fill-opacity:1.0; 
  stroke:#000000; stroke-linecap:round; stroke-linejoin:round; stroke-opacity:1.0; stroke-opacity:1.0; stroke-width:0" 
   transform="translate(0 0) scale(1 1)">
<ellipse cx="57894" cy="33681" rx="590" ry="590"  /> 
</g>
<g style="fill:#000000; fill-opacity:1.0; 
  stroke:#000000; stroke-linecap:round; stroke-linejoin:round; stroke-opacity:1.0; stroke-opacity:1.0; stroke-width:197" 
   transform="translate(0 0) scale(1 1)">
<path d="M62146 33681 L57894 33681" /> 
<path d="M63051 32776 L62146 33681" /> 
<path d="M64627 32776 L63051 32776" /> 
<path d="M64922 33071 L64627 32776" /> 
<path d="M77323 34213 L73032 34213" /> 
</g>
<g style="fill:#000000; fill-opacity:1.0; 
  stroke:#000000; stroke-linecap:round; stroke-linejoin:round; stroke-opacity:1.0; stroke-opacity:1.0; stroke-width:0" 
   transform="translate(0 0) scale(1 1)">
<ellipse cx="77323" cy="34213" rx="590" ry="590"  /> 
<ellipse cx="66850" cy="33071" rx="590" ry="590"  /> 
</g>
<g style="fill:#000000; fill-opacity:1.0; 
  stroke:#000000; stroke-linecap:round; stroke-linejoin:round; stroke-opacity:1.0; stroke-opacity:1.0; stroke-width:197" 
   transform="translate(0 0) scale(1 1)">
<path d="M71890 33071 L66850 33071" /> 
<path d="M73032 34213 L71890 33071" /> 
</g>
<g style="fill:#000000; fill-opacity:1.0; 
  stroke:#000000; stroke-linecap:round; stroke-linejoin:round; stroke-opacity:1.0; stroke-opacity:1.0; stroke-width:100" 
   transform="translate(0 0) scale(1 1)">
<path d="M82824 46800 L82824 46800" /> 
<path d="M82165 46800 L82824 46800" /> 
<path d="M82165 35418 L82165 46800" /> 
<path d="M82165 35084 L82165 35418" /> 
<path d="M82038 34775 L82165 35084" /> 
<path d="M81802 34539 L82038 34775" /> 
<path d="M81665 34481 L81802 34539" /> 
<path d="M81665 33479 L81665 34481" /> 
<path d="M81654 33275 L81665 33479" /> 
<path d="M81598 33138 L81654 33275" /> 
<path d="M81507 33115 L81598 33138" /> 
<path d="M81436 33186 L81507 33115" /> 
<path d="M81436 33044 L81436 33186" /> 
<path d="M81413 32953 L81436 33044" /> 
<path d="M81220 32886 L81413 32953" /> 
<path d="M81016 32897 L81220 32886" /> 
<path d="M80879 32953 L81016 32897" /> 
<path d="M80856 33044 L80879 32953" /> 
<path d="M81146 33334 L80856 33044" /> 
<path d="M81436 33044 L81146 33334" /> 
<path d="M81436 33186 L81436 33044" /> 
<path d="M81217 33405 L81436 33186" /> 
<path d="M81507 33695 L81217 33405" /> 
<path d="M81598 33672 L81507 33695" /> 
<path d="M81665 33479 L81598 33672" /> 
<path d="M81665 34481 L81665 33479" /> 
<path d="M81493 34410 L81665 34481" /> 
<path d="M81436 34410 L81493 34410" /> 
<path d="M81436 33766 L81436 34410" /> 
<path d="M81146 33476 L81436 33766" /> 
<path d="M81075 33547 L81146 33476" /> 
<path d="M81075 33405 L81075 33547" /> 
<path d="M80785 33115 L81075 33405" /> 
<path d="M80694 33138 L80785 33115" /> 
<path d="M80627 33331 L80694 33138" /> 
<path d="M80638 33535 L80627 33331" /> 
<path d="M80694 33672 L80638 33535" /> 
<path d="M80785 33695 L80694 33672" /> 
<path d="M81075 33405 L80785 33695" /> 
<path d="M81075 33547 L81075 33405" /> 
<path d="M80856 33766 L81075 33547" /> 
<path d="M80879 33857 L80856 33766" /> 
<path d="M81072 33924 L80879 33857" /> 
<path d="M81276 33913 L81072 33924" /> 
<path d="M81413 33857 L81276 33913" /> 
<path d="M81436 33766 L81413 33857" /> 
<path d="M81436 34410 L81436 33766" /> 
<path d="M81159 34410 L81436 34410" /> 
<path d="M80850 34537 L81159 34410" /> 
<path d="M80614 34773 L80850 34537" /> 
<path d="M80485 35082 L80614 34773" /> 
<path d="M80485 35416 L80485 35082" /> 
<path d="M80538 35544 L80485 35416" /> 
<path d="M80504 35579 L80538 35544" /> 
<path d="M80428 35691 L80504 35579" /> 
<path d="M80402 35825 L80428 35691" /> 
<path d="M80402 42656 L80402 35825" /> 
<path d="M79906 43152 L80402 42656" /> 
<path d="M79412 43152 L79906 43152" /> 
<path d="M79412 32280 L79412 43152" /> 
<path d="M79412 32091 L79412 32280" /> 
<path d="M79340 31916 L79412 32091" /> 
<path d="M79206 31783 L79340 31916" /> 
<path d="M79032 31710 L79206 31783" /> 
<path d="M78843 31710 L79032 31710" /> 
<path d="M78668 31782 L78843 31710" /> 
<path d="M78535 31916 L78668 31782" /> 
<path d="M78462 32090 L78535 31916" /> 
<path d="M78462 32279 L78462 32090" /> 
<path d="M78534 32454 L78462 32279" /> 
<path d="M78668 32587 L78534 32454" /> 
<path d="M78842 32660 L78668 32587" /> 
<path d="M79031 32660 L78842 32660" /> 
<path d="M79206 32588 L79031 32660" /> 
<path d="M79339 32454 L79206 32588" /> 
<path d="M79412 32280 L79339 32454" /> 
<path d="M79412 43152 L79412 32280" /> 
<path d="M78670 43152 L79412 43152" /> 
<path d="M78670 33730 L78670 43152" /> 
<path d="M78670 33631 L78670 33730" /> 
<path d="M78670 33081 L78670 33631" /> 
<path d="M78632 32989 L78670 33081" /> 
<path d="M78562 32919 L78632 32989" /> 
<path d="M78471 32881 L78562 32919" /> 
<path d="M78372 32881 L78471 32881" /> 
<path d="M77822 32881 L78372 32881" /> 
<path d="M77730 32919 L77822 32881" /> 
<path d="M77660 32989 L77730 32919" /> 
<path d="M77622 33080 L77660 32989" /> 
<path d="M77622 33179 L77622 33080" /> 
<path d="M77622 33427 L77622 33179" /> 
<path d="M77491 33373 L77622 33427" /> 
<path d="M77157 33373 L77491 33373" /> 
<path d="M77124 33386 L77157 33373" /> 
<path d="M77124 33301 L77124 33386" /> 
<path d="M77044 33108 L77124 33301" /> 
<path d="M76897 32960 L77044 33108" /> 
<path d="M76704 32880 L76897 32960" /> 
<path d="M76495 32880 L76704 32880" /> 
<path d="M76302 32960 L76495 32880" /> 
<path d="M76154 33107 L76302 32960" /> 
<path d="M76074 33300 L76154 33107" /> 
<path d="M76074 33509 L76074 33300" /> 
<path d="M76154 33702 L76074 33509" /> 
<path d="M76301 33850 L76154 33702" /> 
<path d="M76337 33865 L76301 33850" /> 
<path d="M74041 33865 L76337 33865" /> 
<path d="M74085 33821 L74041 33865" /> 
<path d="M74123 33730 L74085 33821" /> 
<path d="M74123 33631 L74123 33730" /> 
<path d="M74123 33081 L74123 33631" /> 
<path d="M74085 32989 L74123 33081" /> 
<path d="M74015 32919 L74085 32989" /> 
<path d="M73924 32881 L74015 32919" /> 
<path d="M73825 32881 L73924 32881" /> 
<path d="M73275 32881 L73825 32881" /> 
<path d="M73183 32919 L73275 32881" /> 
<path d="M73113 32989 L73183 32919" /> 
<path d="M73075 33080 L73113 32989" /> 
<path d="M73075 33179 L73075 33080" /> 
<path d="M73075 33729 L73075 33179" /> 
<path d="M73099 33788 L73075 33729" /> 
<path d="M72136 32825 L73099 33788" /> 
<path d="M72024 32749 L72136 32825" /> 
<path d="M71890 32723 L72024 32749" /> 
<path d="M71026 32723 L71890 32723" /> 
<path d="M71026 32280 L71026 32723" /> 
<path d="M71026 32091 L71026 32280" /> 
<path d="M70954 31916 L71026 32091" /> 
<path d="M70820 31783 L70954 31916" /> 
<path d="M70646 31710 L70820 31783" /> 
<path d="M70457 31710 L70646 31710" /> 
<path d="M70282 31782 L70457 31710" /> 
<path d="M70149 31916 L70282 31782" /> 
<path d="M70076 32090 L70149 31916" /> 
<path d="M70076 32279 L70076 32090" /> 
<path d="M70148 32454 L70076 32279" /> 
<path d="M70282 32587 L70148 32454" /> 
<path d="M70456 32660 L70282 32587" /> 
<path d="M70645 32660 L70456 32660" /> 
<path d="M70820 32588 L70645 32660" /> 
<path d="M70953 32454 L70820 32588" /> 
<path d="M71026 32280 L70953 32454" /> 
<path d="M71026 32723 L71026 32280" /> 
<path d="M67615 32723 L71026 32723" /> 
<path d="M67563 32596 L67615 32723" /> 
<path d="M67327 32360 L67563 32596" /> 
<path d="M67018 32231 L67327 32360" /> 
<path d="M66684 32231 L67018 32231" /> 
<path d="M66375 32358 L66684 32231" /> 
<path d="M66139 32594 L66375 32358" /> 
<path d="M66085 32723 L66139 32594" /> 
<path d="M65066 32723 L66085 32723" /> 
<path d="M64873 32530 L65066 32723" /> 
<path d="M64761 32454 L64873 32530" /> 
<path d="M64627 32428 L64761 32454" /> 
<path d="M63051 32428 L64627 32428" /> 
<path d="M62918 32454 L63051 32428" /> 
<path d="M62805 32530 L62918 32454" /> 
<path d="M62804 32530 L62805 32530" /> 
<path d="M62804 32531 L62804 32530" /> 
<path d="M62109 33226 L62804 32531" /> 
<path d="M62109 32772 L62109 33226" /> 
<path d="M62109 32583 L62109 32772" /> 
<path d="M62037 32408 L62109 32583" /> 
<path d="M61903 32275 L62037 32408" /> 
<path d="M61729 32202 L61903 32275" /> 
<path d="M61540 32202 L61729 32202" /> 
<path d="M61365 32274 L61540 32202" /> 
<path d="M61232 32408 L61365 32274" /> 
<path d="M61159 32582 L61232 32408" /> 
<path d="M61159 32771 L61159 32582" /> 
<path d="M61231 32946 L61159 32771" /> 
<path d="M61365 33079 L61231 32946" /> 
<path d="M61539 33152 L61365 33079" /> 
<path d="M61728 33152 L61539 33152" /> 
<path d="M61903 33080 L61728 33152" /> 
<path d="M62036 32946 L61903 33080" /> 
<path d="M62109 32772 L62036 32946" /> 
<path d="M62109 33226 L62109 32772" /> 
<path d="M62002 33333 L62109 33226" /> 
<path d="M58659 33333 L62002 33333" /> 
<path d="M58607 33206 L58659 33333" /> 
<path d="M58371 32970 L58607 33206" /> 
<path d="M58062 32841 L58371 32970" /> 
<path d="M57728 32841 L58062 32841" /> 
<path d="M57419 32968 L57728 32841" /> 
<path d="M57183 33204 L57419 32968" /> 
<path d="M57129 33333 L57183 33204" /> 
<path d="M51758 33333 L57129 33333" /> 
<path d="M51230 32805 L51758 33333" /> 
<path d="M51118 32729 L51230 32805" /> 
<path d="M50984 32703 L51118 32729" /> 
<path d="M49919 32703 L50984 32703" /> 
<path d="M49867 32576 L49919 32703" /> 
<path d="M49631 32340 L49867 32576" /> 
<path d="M49322 32211 L49631 32340" /> 
<path d="M48988 32211 L49322 32211" /> 
<path d="M48679 32338 L48988 32211" /> 
<path d="M48443 32574 L48679 32338" /> 
<path d="M48314 32883 L48443 32574" /> 
<path d="M48314 33217 L48314 32883" /> 
<path d="M48441 33526 L48314 33217" /> 
<path d="M48677 33762 L48441 33526" /> 
<path d="M48806 33815 L48677 33762" /> 
<path d="M48806 34568 L48806 33815" /> 
<path d="M48832 34702 L48806 34568" /> 
<path d="M48908 34814 L48832 34702" /> 
<path d="M49455 35361 L48908 34814" /> 
<path d="M49455 35828 L49455 35361" /> 
<path d="M49328 35881 L49455 35828" /> 
<path d="M49092 36117 L49328 35881" /> 
<path d="M48963 36426 L49092 36117" /> 
<path d="M48963 36760 L48963 36426" /> 
<path d="M49090 37069 L48963 36760" /> 
<path d="M49326 37305 L49090 37069" /> 
<path d="M49635 37434 L49326 37305" /> 
<path d="M49969 37434 L49635 37434" /> 
<path d="M50278 37307 L49969 37434" /> 
<path d="M50514 37071 L50278 37307" /> 
<path d="M50643 36762 L50514 37071" /> 
<path d="M50643 36428 L50643 36762" /> 
<path d="M50516 36119 L50643 36428" /> 
<path d="M50280 35883 L50516 36119" /> 
<path d="M50151 35829 L50280 35883" /> 
<path d="M50151 35217 L50151 35829" /> 
<path d="M50150 35216 L50151 35217" /> 
<path d="M50125 35084 L50150 35216" /> 
<path d="M50124 35083 L50125 35084" /> 
<path d="M50049 34971 L50124 35083" /> 
<path d="M50048 34970 L50049 34971" /> 
<path d="M49502 34424 L50048 34970" /> 
<path d="M49502 33816 L49502 34424" /> 
<path d="M49629 33764 L49502 33816" /> 
<path d="M49865 33528 L49629 33764" /> 
<path d="M49918 33399 L49865 33528" /> 
<path d="M50840 33399 L49918 33399" /> 
<path d="M51367 33926 L50840 33399" /> 
<path d="M51368 33927 L51367 33926" /> 
<path d="M51480 34002 L51368 33927" /> 
<path d="M51481 34003 L51480 34002" /> 
<path d="M51613 34028 L51481 34003" /> 
<path d="M51614 34029 L51613 34028" /> 
<path d="M57128 34029 L51614 34029" /> 
<path d="M57181 34156 L57128 34029" /> 
<path d="M57417 34392 L57181 34156" /> 
<path d="M57726 34521 L57417 34392" /> 
<path d="M58060 34521 L57726 34521" /> 
<path d="M58369 34394 L58060 34521" /> 
<path d="M58605 34158 L58369 34394" /> 
<path d="M58658 34029 L58605 34158" /> 
<path d="M62146 34029 L58658 34029" /> 
<path d="M62279 34003 L62146 34029" /> 
<path d="M62280 34003 L62279 34003" /> 
<path d="M62392 33927 L62280 34003" /> 
<path d="M63195 33124 L62392 33927" /> 
<path d="M64483 33124 L63195 33124" /> 
<path d="M64676 33317 L64483 33124" /> 
<path d="M64788 33393 L64676 33317" /> 
<path d="M64789 33393 L64788 33393" /> 
<path d="M64922 33419 L64789 33393" /> 
<path d="M66084 33419 L64922 33419" /> 
<path d="M66137 33546 L66084 33419" /> 
<path d="M66373 33782 L66137 33546" /> 
<path d="M66682 33911 L66373 33782" /> 
<path d="M67016 33911 L66682 33911" /> 
<path d="M67325 33784 L67016 33911" /> 
<path d="M67561 33548 L67325 33784" /> 
<path d="M67614 33419 L67561 33548" /> 
<path d="M71746 33419 L67614 33419" /> 
<path d="M72786 34459 L71746 33419" /> 
<path d="M72898 34535 L72786 34459" /> 
<path d="M72899 34535 L72898 34535" /> 
<path d="M73032 34561 L72899 34535" /> 
<path d="M76557 34561 L73032 34561" /> 
<path d="M76610 34688 L76557 34561" /> 
<path d="M76846 34924 L76610 34688" /> 
<path d="M77155 35053 L76846 34924" /> 
<path d="M77489 35053 L77155 35053" /> 
<path d="M77798 34926 L77489 35053" /> 
<path d="M78034 34690 L77798 34926" /> 
<path d="M78163 34381 L78034 34690" /> 
<path d="M78163 34047 L78163 34381" /> 
<path d="M78114 33929 L78163 34047" /> 
<path d="M78470 33929 L78114 33929" /> 
<path d="M78562 33891 L78470 33929" /> 
<path d="M78632 33821 L78562 33891" /> 
<path d="M78670 33730 L78632 33821" /> 
<path d="M78670 43152 L78670 33730" /> 
<path d="M76275 43152 L78670 43152" /> 
<path d="M76142 43178 L76275 43152" /> 
<path d="M76104 43203 L76142 43178" /> 
<path d="M76028 43254 L76104 43203" /> 
<path d="M75641 43641 L76028 43254" /> 
<path d="M75641 38410 L75641 43641" /> 
<path d="M75641 38201 L75641 38410" /> 
<path d="M75561 38008 L75641 38201" /> 
<path d="M75414 37860 L75561 38008" /> 
<path d="M75221 37780 L75414 37860" /> 
<path d="M75012 37780 L75221 37780" /> 
<path d="M74819 37860 L75012 37780" /> 
<path d="M74671 38007 L74819 37860" /> 
<path d="M74591 38200 L74671 38007" /> 
<path d="M74591 38409 L74591 38200" /> 
<path d="M74671 38602 L74591 38409" /> 
<path d="M74818 38750 L74671 38602" /> 
<path d="M75011 38830 L74818 38750" /> 
<path d="M75220 38830 L75011 38830" /> 
<path d="M75413 38750 L75220 38830" /> 
<path d="M75561 38603 L75413 38750" /> 
<path d="M75641 38410 L75561 38603" /> 
<path d="M75641 43641 L75641 38410" /> 
<path d="M74227 45055 L75641 43641" /> 
<path d="M74227 36996 L74227 45055" /> 
<path d="M74227 36787 L74227 36996" /> 
<path d="M74147 36594 L74227 36787" /> 
<path d="M74000 36446 L74147 36594" /> 
<path d="M73807 36366 L74000 36446" /> 
<path d="M73598 36366 L73807 36366" /> 
<path d="M73405 36446 L73598 36366" /> 
<path d="M73257 36593 L73405 36446" /> 
<path d="M73177 36786 L73257 36593" /> 
<path d="M73177 36995 L73177 36786" /> 
<path d="M73257 37188 L73177 36995" /> 
<path d="M73404 37336 L73257 37188" /> 
<path d="M73597 37416 L73404 37336" /> 
<path d="M73806 37416 L73597 37416" /> 
<path d="M73999 37336 L73806 37416" /> 
<path d="M74147 37189 L73999 37336" /> 
<path d="M74227 36996 L74147 37189" /> 
<path d="M74227 45055 L74227 36996" /> 
<path d="M74197 45085 L74227 45055" /> 
<path d="M73161 45085 L74197 45085" /> 
<path d="M73161 35099 L73161 45085" /> 
<path d="M73150 34886 L73161 35099" /> 
<path d="M73090 34739 L73150 34886" /> 
<path d="M72996 34712 L73090 34739" /> 
<path d="M72926 34782 L72996 34712" /> 
<path d="M72926 34642 L72926 34782" /> 
<path d="M72899 34548 L72926 34642" /> 
<path d="M72697 34477 L72899 34548" /> 
<path d="M72484 34488 L72697 34477" /> 
<path d="M72337 34548 L72484 34488" /> 
<path d="M72310 34642 L72337 34548" /> 
<path d="M72618 34949 L72310 34642" /> 
<path d="M72926 34642 L72618 34949" /> 
<path d="M72926 34782 L72926 34642" /> 
<path d="M72689 35020 L72926 34782" /> 
<path d="M72996 35328 L72689 35020" /> 
<path d="M73090 35301 L72996 35328" /> 
<path d="M73161 35099 L73090 35301" /> 
<path d="M73161 45085 L73161 35099" /> 
<path d="M72926 45085 L73161 45085" /> 
<path d="M72926 35398 L72926 45085" /> 
<path d="M72618 35091 L72926 35398" /> 
<path d="M72547 35161 L72618 35091" /> 
<path d="M72547 35020 L72547 35161" /> 
<path d="M72240 34712 L72547 35020" /> 
<path d="M72146 34739 L72240 34712" /> 
<path d="M72122 34804 L72146 34739" /> 
<path d="M72083 34709 L72122 34804" /> 
<path d="M71929 34555 L72083 34709" /> 
<path d="M71727 34471 L71929 34555" /> 
<path d="M71509 34471 L71727 34471" /> 
<path d="M71307 34555 L71509 34471" /> 
<path d="M71153 34709 L71307 34555" /> 
<path d="M71118 34793 L71153 34709" /> 
<path d="M71083 34709 L71118 34793" /> 
<path d="M70929 34555 L71083 34709" /> 
<path d="M70727 34471 L70929 34555" /> 
<path d="M70509 34471 L70727 34471" /> 
<path d="M70307 34555 L70509 34471" /> 
<path d="M70153 34709 L70307 34555" /> 
<path d="M70118 34793 L70153 34709" /> 
<path d="M70083 34709 L70118 34793" /> 
<path d="M69929 34555 L70083 34709" /> 
<path d="M69727 34471 L69929 34555" /> 
<path d="M69509 34471 L69727 34471" /> 
<path d="M69307 34555 L69509 34471" /> 
<path d="M69153 34709 L69307 34555" /> 
<path d="M69118 34793 L69153 34709" /> 
<path d="M69083 34709 L69118 34793" /> 
<path d="M68929 34555 L69083 34709" /> 
<path d="M68727 34471 L68929 34555" /> 
<path d="M68509 34471 L68727 34471" /> 
<path d="M68307 34555 L68509 34471" /> 
<path d="M68167 34695 L68307 34555" /> 
<path d="M68167 34671 L68167 34695" /> 
<path d="M68129 34579 L68167 34671" /> 
<path d="M68059 34509 L68129 34579" /> 
<path d="M67968 34471 L68059 34509" /> 
<path d="M67869 34471 L67968 34471" /> 
<path d="M67269 34471 L67869 34471" /> 
<path d="M67177 34509 L67269 34471" /> 
<path d="M67107 34579 L67177 34509" /> 
<path d="M67069 34670 L67107 34579" /> 
<path d="M67069 34769 L67069 34670" /> 
<path d="M67069 35369 L67069 34769" /> 
<path d="M67107 35461 L67069 35369" /> 
<path d="M67177 35531 L67107 35461" /> 
<path d="M67268 35569 L67177 35531" /> 
<path d="M67367 35569 L67268 35569" /> 
<path d="M67967 35569 L67367 35569" /> 
<path d="M68059 35531 L67967 35569" /> 
<path d="M68129 35461 L68059 35531" /> 
<path d="M68167 35370 L68129 35461" /> 
<path d="M68167 35345 L68167 35370" /> 
<path d="M68307 35485 L68167 35345" /> 
<path d="M68509 35569 L68307 35485" /> 
<path d="M68727 35569 L68509 35569" /> 
<path d="M68929 35485 L68727 35569" /> 
<path d="M69083 35331 L68929 35485" /> 
<path d="M69118 35246 L69083 35331" /> 
<path d="M69153 35331 L69118 35246" /> 
<path d="M69307 35485 L69153 35331" /> 
<path d="M69509 35569 L69307 35485" /> 
<path d="M69727 35569 L69509 35569" /> 
<path d="M69929 35485 L69727 35569" /> 
<path d="M70083 35331 L69929 35485" /> 
<path d="M70118 35246 L70083 35331" /> 
<path d="M70153 35331 L70118 35246" /> 
<path d="M70307 35485 L70153 35331" /> 
<path d="M70509 35569 L70307 35485" /> 
<path d="M70727 35569 L70509 35569" /> 
<path d="M70929 35485 L70727 35569" /> 
<path d="M71083 35331 L70929 35485" /> 
<path d="M71118 35246 L71083 35331" /> 
<path d="M71153 35331 L71118 35246" /> 
<path d="M71307 35485 L71153 35331" /> 
<path d="M71509 35569 L71307 35485" /> 
<path d="M71727 35569 L71509 35569" /> 
<path d="M71929 35485 L71727 35569" /> 
<path d="M72083 35331 L71929 35485" /> 
<path d="M72120 35239 L72083 35331" /> 
<path d="M72146 35301 L72120 35239" /> 
<path d="M72240 35328 L72146 35301" /> 
<path d="M72547 35020 L72240 35328" /> 
<path d="M72547 35161 L72547 35020" /> 
<path d="M72310 35398 L72547 35161" /> 
<path d="M72337 35492 L72310 35398" /> 
<path d="M72539 35563 L72337 35492" /> 
<path d="M72752 35552 L72539 35563" /> 
<path d="M72899 35492 L72752 35552" /> 
<path d="M72926 35398 L72899 35492" /> 
<path d="M72926 45085 L72926 35398" /> 
<path d="M72182 45085 L72926 45085" /> 
<path d="M72130 44958 L72182 45085" /> 
<path d="M71894 44722 L72130 44958" /> 
<path d="M71585 44593 L71894 44722" /> 
<path d="M71251 44593 L71585 44593" /> 
<path d="M70942 44720 L71251 44593" /> 
<path d="M70706 44956 L70942 44720" /> 
<path d="M70652 45085 L70706 44956" /> 
<path d="M70482 45085 L70652 45085" /> 
<path d="M70505 45030 L70482 45085" /> 
<path d="M70505 44696 L70505 45030" /> 
<path d="M70378 44387 L70505 44696" /> 
<path d="M70142 44151 L70378 44387" /> 
<path d="M69833 44022 L70142 44151" /> 
<path d="M69499 44022 L69833 44022" /> 
<path d="M69370 44075 L69499 44022" /> 
<path d="M68852 43557 L69370 44075" /> 
<path d="M68852 37596 L68852 43557" /> 
<path d="M68979 37544 L68852 37596" /> 
<path d="M69215 37308 L68979 37544" /> 
<path d="M69344 36999 L69215 37308" /> 
<path d="M69344 36665 L69344 36999" /> 
<path d="M69217 36356 L69344 36665" /> 
<path d="M68981 36120 L69217 36356" /> 
<path d="M68672 35991 L68981 36120" /> 
<path d="M68338 35991 L68672 35991" /> 
<path d="M68029 36118 L68338 35991" /> 
<path d="M67793 36354 L68029 36118" /> 
<path d="M67664 36663 L67793 36354" /> 
<path d="M67664 36997 L67664 36663" /> 
<path d="M67791 37306 L67664 36997" /> 
<path d="M68027 37542 L67791 37306" /> 
<path d="M68156 37595 L68027 37542" /> 
<path d="M68156 43701 L68156 37595" /> 
<path d="M68182 43835 L68156 43701" /> 
<path d="M68258 43947 L68182 43835" /> 
<path d="M68878 44567 L68258 43947" /> 
<path d="M68825 44694 L68878 44567" /> 
<path d="M68825 44731 L68825 44694" /> 
<path d="M66647 42553 L68825 44731" /> 
<path d="M66647 41592 L66647 42553" /> 
<path d="M66774 41540 L66647 41592" /> 
<path d="M67010 41304 L66774 41540" /> 
<path d="M67139 40995 L67010 41304" /> 
<path d="M67139 40661 L67139 40995" /> 
<path d="M67012 40352 L67139 40661" /> 
<path d="M66776 40116 L67012 40352" /> 
<path d="M66467 39987 L66776 40116" /> 
<path d="M66133 39987 L66467 39987" /> 
<path d="M65824 40114 L66133 39987" /> 
<path d="M65588 40350 L65824 40114" /> 
<path d="M65459 40659 L65588 40350" /> 
<path d="M65459 40993 L65459 40659" /> 
<path d="M65586 41302 L65459 40993" /> 
<path d="M65822 41538 L65586 41302" /> 
<path d="M65951 41591 L65822 41538" /> 
<path d="M65951 42697 L65951 41591" /> 
<path d="M65977 42831 L65951 42697" /> 
<path d="M66053 42943 L65977 42831" /> 
<path d="M69045 45935 L66053 42943" /> 
<path d="M69157 46011 L69045 45935" /> 
<path d="M69158 46011 L69157 46011" /> 
<path d="M69291 46037 L69158 46011" /> 
<path d="M70098 46037 L69291 46037" /> 
<path d="M70231 46011 L70098 46037" /> 
<path d="M70232 46011 L70231 46011" /> 
<path d="M70344 45935 L70232 46011" /> 
<path d="M70498 45781 L70344 45935" /> 
<path d="M70651 45781 L70498 45781" /> 
<path d="M70704 45908 L70651 45781" /> 
<path d="M70940 46144 L70704 45908" /> 
<path d="M71249 46273 L70940 46144" /> 
<path d="M71583 46273 L71249 46273" /> 
<path d="M71892 46146 L71583 46273" /> 
<path d="M72128 45910 L71892 46146" /> 
<path d="M72181 45781 L72128 45910" /> 
<path d="M74342 45781 L72181 45781" /> 
<path d="M74475 45755 L74342 45781" /> 
<path d="M74476 45755 L74475 45755" /> 
<path d="M74588 45679 L74476 45755" /> 
<path d="M76419 43848 L74588 45679" /> 
<path d="M80050 43848 L76419 43848" /> 
<path d="M80183 43822 L80050 43848" /> 
<path d="M80184 43822 L80183 43822" /> 
<path d="M80296 43746 L80184 43822" /> 
<path d="M80995 43047 L80296 43746" /> 
<path d="M80995 43046 L80995 43047" /> 
<path d="M80996 43046 L80995 43046" /> 
<path d="M81071 42934 L80996 43046" /> 
<path d="M81072 42933 L81071 42934" /> 
<path d="M81097 42801 L81072 42933" /> 
<path d="M81098 42800 L81097 42801" /> 
<path d="M81098 36065 L81098 42800" /> 
<path d="M81157 36090 L81098 36065" /> 
<path d="M81491 36090 L81157 36090" /> 
<path d="M81800 35963 L81491 36090" /> 
<path d="M82036 35727 L81800 35963" /> 
<path d="M82165 35418 L82036 35727" /> 
<path d="M82165 46800 L82165 35418" /> 
<path d="M63237 46800 L82165 46800" /> 
<path d="M63237 45794 L63237 46800" /> 
<path d="M63237 45585 L63237 45794" /> 
<path d="M63157 45392 L63237 45585" /> 
<path d="M63010 45244 L63157 45392" /> 
<path d="M62817 45164 L63010 45244" /> 
<path d="M62608 45164 L62817 45164" /> 
<path d="M62415 45244 L62608 45164" /> 
<path d="M62267 45391 L62415 45244" /> 
<path d="M62187 45584 L62267 45391" /> 
<path d="M62187 45793 L62187 45584" /> 
<path d="M62267 45986 L62187 45793" /> 
<path d="M62414 46134 L62267 45986" /> 
<path d="M62607 46214 L62414 46134" /> 
<path d="M62816 46214 L62607 46214" /> 
<path d="M63009 46134 L62816 46214" /> 
<path d="M63157 45987 L63009 46134" /> 
<path d="M63237 45794 L63157 45987" /> 
<path d="M63237 46800 L63237 45794" /> 
<path d="M61237 46800 L63237 46800" /> 
<path d="M61237 45794 L61237 46800" /> 
<path d="M61237 45585 L61237 45794" /> 
<path d="M61157 45392 L61237 45585" /> 
<path d="M61010 45244 L61157 45392" /> 
<path d="M60817 45164 L61010 45244" /> 
<path d="M60608 45164 L60817 45164" /> 
<path d="M60415 45244 L60608 45164" /> 
<path d="M60267 45391 L60415 45244" /> 
<path d="M60187 45584 L60267 45391" /> 
<path d="M60187 45793 L60187 45584" /> 
<path d="M60267 45986 L60187 45793" /> 
<path d="M60414 46134 L60267 45986" /> 
<path d="M60607 46214 L60414 46134" /> 
<path d="M60816 46214 L60607 46214" /> 
<path d="M61009 46134 L60816 46214" /> 
<path d="M61157 45987 L61009 46134" /> 
<path d="M61237 45794 L61157 45987" /> 
<path d="M61237 46800 L61237 45794" /> 
<path d="M57892 46800 L61237 46800" /> 
<path d="M57892 46098 L57892 46800" /> 
<path d="M57892 45999 L57892 46098" /> 
<path d="M57892 45399 L57892 45999" /> 
<path d="M57854 45307 L57892 45399" /> 
<path d="M57784 45237 L57854 45307" /> 
<path d="M57693 45199 L57784 45237" /> 
<path d="M57594 45199 L57693 45199" /> 
<path d="M56994 45199 L57594 45199" /> 
<path d="M56902 45237 L56994 45199" /> 
<path d="M56832 45307 L56902 45237" /> 
<path d="M56794 45398 L56832 45307" /> 
<path d="M56794 45423 L56794 45398" /> 
<path d="M56654 45283 L56794 45423" /> 
<path d="M56452 45199 L56654 45283" /> 
<path d="M56234 45199 L56452 45199" /> 
<path d="M56032 45283 L56234 45199" /> 
<path d="M55878 45437 L56032 45283" /> 
<path d="M55843 45521 L55878 45437" /> 
<path d="M55808 45437 L55843 45521" /> 
<path d="M55654 45283 L55808 45437" /> 
<path d="M55452 45199 L55654 45283" /> 
<path d="M55234 45199 L55452 45199" /> 
<path d="M55032 45283 L55234 45199" /> 
<path d="M54878 45437 L55032 45283" /> 
<path d="M54843 45521 L54878 45437" /> 
<path d="M54808 45437 L54843 45521" /> 
<path d="M54654 45283 L54808 45437" /> 
<path d="M54452 45199 L54654 45283" /> 
<path d="M54234 45199 L54452 45199" /> 
<path d="M54032 45283 L54234 45199" /> 
<path d="M53878 45437 L54032 45283" /> 
<path d="M53843 45521 L53878 45437" /> 
<path d="M53808 45437 L53843 45521" /> 
<path d="M53654 45283 L53808 45437" /> 
<path d="M53452 45199 L53654 45283" /> 
<path d="M53234 45199 L53452 45199" /> 
<path d="M53032 45283 L53234 45199" /> 
<path d="M52878 45437 L53032 45283" /> 
<path d="M52840 45528 L52878 45437" /> 
<path d="M52815 45467 L52840 45528" /> 
<path d="M52721 45440 L52815 45467" /> 
<path d="M52651 45510 L52721 45440" /> 
<path d="M52651 45370 L52651 45510" /> 
<path d="M52624 45276 L52651 45370" /> 
<path d="M52422 45205 L52624 45276" /> 
<path d="M52209 45216 L52422 45205" /> 
<path d="M52062 45276 L52209 45216" /> 
<path d="M52035 45370 L52062 45276" /> 
<path d="M52343 45677 L52035 45370" /> 
<path d="M52651 45370 L52343 45677" /> 
<path d="M52651 45510 L52651 45370" /> 
<path d="M52414 45748 L52651 45510" /> 
<path d="M52721 46056 L52414 45748" /> 
<path d="M52815 46029 L52721 46056" /> 
<path d="M52838 45963 L52815 46029" /> 
<path d="M52878 46059 L52838 45963" /> 
<path d="M53032 46213 L52878 46059" /> 
<path d="M53234 46297 L53032 46213" /> 
<path d="M53452 46297 L53234 46297" /> 
<path d="M53654 46213 L53452 46297" /> 
<path d="M53808 46059 L53654 46213" /> 
<path d="M53843 45974 L53808 46059" /> 
<path d="M53878 46059 L53843 45974" /> 
<path d="M54032 46213 L53878 46059" /> 
<path d="M54234 46297 L54032 46213" /> 
<path d="M54452 46297 L54234 46297" /> 
<path d="M54654 46213 L54452 46297" /> 
<path d="M54808 46059 L54654 46213" /> 
<path d="M54843 45974 L54808 46059" /> 
<path d="M54878 46059 L54843 45974" /> 
<path d="M55032 46213 L54878 46059" /> 
<path d="M55234 46297 L55032 46213" /> 
<path d="M55452 46297 L55234 46297" /> 
<path d="M55654 46213 L55452 46297" /> 
<path d="M55808 46059 L55654 46213" /> 
<path d="M55843 45974 L55808 46059" /> 
<path d="M55878 46059 L55843 45974" /> 
<path d="M56032 46213 L55878 46059" /> 
<path d="M56234 46297 L56032 46213" /> 
<path d="M56452 46297 L56234 46297" /> 
<path d="M56654 46213 L56452 46297" /> 
<path d="M56794 46073 L56654 46213" /> 
<path d="M56794 46097 L56794 46073" /> 
<path d="M56832 46189 L56794 46097" /> 
<path d="M56902 46259 L56832 46189" /> 
<path d="M56993 46297 L56902 46259" /> 
<path d="M57092 46297 L56993 46297" /> 
<path d="M57692 46297 L57092 46297" /> 
<path d="M57784 46259 L57692 46297" /> 
<path d="M57854 46189 L57784 46259" /> 
<path d="M57892 46098 L57854 46189" /> 
<path d="M57892 46800 L57892 46098" /> 
<path d="M52651 46800 L57892 46800" /> 
<path d="M52651 46126 L52651 46800" /> 
<path d="M52343 45819 L52651 46126" /> 
<path d="M52272 45889 L52343 45819" /> 
<path d="M52272 45748 L52272 45889" /> 
<path d="M51965 45440 L52272 45748" /> 
<path d="M51871 45467 L51965 45440" /> 
<path d="M51800 45669 L51871 45467" /> 
<path d="M51811 45882 L51800 45669" /> 
<path d="M51871 46029 L51811 45882" /> 
<path d="M51965 46056 L51871 46029" /> 
<path d="M52272 45748 L51965 46056" /> 
<path d="M52272 45889 L52272 45748" /> 
<path d="M52035 46126 L52272 45889" /> 
<path d="M52062 46220 L52035 46126" /> 
<path d="M52264 46291 L52062 46220" /> 
<path d="M52477 46280 L52264 46291" /> 
<path d="M52624 46220 L52477 46280" /> 
<path d="M52651 46126 L52624 46220" /> 
<path d="M52651 46800 L52651 46126" /> 
<path d="M49413 46800 L52651 46800" /> 
<path d="M49413 41473 L49413 46800" /> 
<path d="M49413 41284 L49413 41473" /> 
<path d="M49413 40449 L49413 41284" /> 
<path d="M49413 40260 L49413 40449" /> 
<path d="M49413 39248 L49413 40260" /> 
<path d="M49413 39059 L49413 39248" /> 
<path d="M49413 38244 L49413 39059" /> 
<path d="M49413 38055 L49413 38244" /> 
<path d="M49341 37880 L49413 38055" /> 
<path d="M49207 37747 L49341 37880" /> 
<path d="M49033 37674 L49207 37747" /> 
<path d="M48844 37674 L49033 37674" /> 
<path d="M48669 37746 L48844 37674" /> 
<path d="M48566 37849 L48669 37746" /> 
<path d="M48566 34386 L48566 37849" /> 
<path d="M48566 34197 L48566 34386" /> 
<path d="M48494 34022 L48566 34197" /> 
<path d="M48360 33889 L48494 34022" /> 
<path d="M48186 33816 L48360 33889" /> 
<path d="M47997 33816 L48186 33816" /> 
<path d="M47822 33888 L47997 33816" /> 
<path d="M47689 34022 L47822 33888" /> 
<path d="M47616 34196 L47689 34022" /> 
<path d="M47616 34385 L47616 34196" /> 
<path d="M47688 34560 L47616 34385" /> 
<path d="M47822 34693 L47688 34560" /> 
<path d="M47996 34766 L47822 34693" /> 
<path d="M48185 34766 L47996 34766" /> 
<path d="M48360 34694 L48185 34766" /> 
<path d="M48493 34560 L48360 34694" /> 
<path d="M48566 34386 L48493 34560" /> 
<path d="M48566 37849 L48566 34386" /> 
<path d="M48536 37880 L48566 37849" /> 
<path d="M48463 38054 L48536 37880" /> 
<path d="M48463 38243 L48463 38054" /> 
<path d="M48535 38418 L48463 38243" /> 
<path d="M48669 38551 L48535 38418" /> 
<path d="M48843 38624 L48669 38551" /> 
<path d="M49032 38624 L48843 38624" /> 
<path d="M49207 38552 L49032 38624" /> 
<path d="M49340 38418 L49207 38552" /> 
<path d="M49413 38244 L49340 38418" /> 
<path d="M49413 39059 L49413 38244" /> 
<path d="M49341 38884 L49413 39059" /> 
<path d="M49207 38751 L49341 38884" /> 
<path d="M49033 38678 L49207 38751" /> 
<path d="M48844 38678 L49033 38678" /> 
<path d="M48669 38750 L48844 38678" /> 
<path d="M48536 38884 L48669 38750" /> 
<path d="M48463 39058 L48536 38884" /> 
<path d="M48463 39247 L48463 39058" /> 
<path d="M48535 39422 L48463 39247" /> 
<path d="M48669 39555 L48535 39422" /> 
<path d="M48843 39628 L48669 39555" /> 
<path d="M49032 39628 L48843 39628" /> 
<path d="M49207 39556 L49032 39628" /> 
<path d="M49340 39422 L49207 39556" /> 
<path d="M49413 39248 L49340 39422" /> 
<path d="M49413 40260 L49413 39248" /> 
<path d="M49341 40085 L49413 40260" /> 
<path d="M49207 39952 L49341 40085" /> 
<path d="M49033 39879 L49207 39952" /> 
<path d="M48844 39879 L49033 39879" /> 
<path d="M48669 39951 L48844 39879" /> 
<path d="M48536 40085 L48669 39951" /> 
<path d="M48463 40259 L48536 40085" /> 
<path d="M48463 40448 L48463 40259" /> 
<path d="M48535 40623 L48463 40448" /> 
<path d="M48669 40756 L48535 40623" /> 
<path d="M48843 40829 L48669 40756" /> 
<path d="M49032 40829 L48843 40829" /> 
<path d="M49207 40757 L49032 40829" /> 
<path d="M49340 40623 L49207 40757" /> 
<path d="M49413 40449 L49340 40623" /> 
<path d="M49413 41284 L49413 40449" /> 
<path d="M49341 41109 L49413 41284" /> 
<path d="M49207 40976 L49341 41109" /> 
<path d="M49033 40903 L49207 40976" /> 
<path d="M48844 40903 L49033 40903" /> 
<path d="M48669 40975 L48844 40903" /> 
<path d="M48536 41109 L48669 40975" /> 
<path d="M48463 41283 L48536 41109" /> 
<path d="M48463 41472 L48463 41283" /> 
<path d="M48535 41647 L48463 41472" /> 
<path d="M48669 41780 L48535 41647" /> 
<path d="M48843 41853 L48669 41780" /> 
<path d="M49032 41853 L48843 41853" /> 
<path d="M49207 41781 L49032 41853" /> 
<path d="M49340 41647 L49207 41781" /> 
<path d="M49413 41473 L49340 41647" /> 
<path d="M49413 46800 L49413 41473" /> 
<path d="M48521 46800 L49413 46800" /> 
<path d="M48521 43920 L48521 46800" /> 
<path d="M48509 43735 L48521 43920" /> 
<path d="M48462 43621 L48509 43735" /> 
<path d="M48376 43604 L48462 43621" /> 
<path d="M48305 43675 L48376 43604" /> 
<path d="M48305 43533 L48305 43675" /> 
<path d="M48288 43447 L48305 43533" /> 
<path d="M48113 43388 L48288 43447" /> 
<path d="M47928 43400 L48113 43388" /> 
<path d="M47814 43447 L47928 43400" /> 
<path d="M47797 43533 L47814 43447" /> 
<path d="M48051 43787 L47797 43533" /> 
<path d="M48305 43533 L48051 43787" /> 
<path d="M48305 43675 L48305 43533" /> 
<path d="M48122 43858 L48305 43675" /> 
<path d="M48376 44112 L48122 43858" /> 
<path d="M48462 44095 L48376 44112" /> 
<path d="M48521 43920 L48462 44095" /> 
<path d="M48521 46800 L48521 43920" /> 
<path d="M48305 46800 L48521 46800" /> 
<path d="M48305 44183 L48305 46800" /> 
<path d="M48051 43929 L48305 44183" /> 
<path d="M47980 44000 L48051 43929" /> 
<path d="M47980 43858 L47980 44000" /> 
<path d="M47726 43604 L47980 43858" /> 
<path d="M47640 43621 L47726 43604" /> 
<path d="M47581 43796 L47640 43621" /> 
<path d="M47593 43981 L47581 43796" /> 
<path d="M47640 44095 L47593 43981" /> 
<path d="M47726 44112 L47640 44095" /> 
<path d="M47980 43858 L47726 44112" /> 
<path d="M47980 44000 L47980 43858" /> 
<path d="M47797 44183 L47980 44000" /> 
<path d="M47814 44269 L47797 44183" /> 
<path d="M47989 44328 L47814 44269" /> 
<path d="M48174 44316 L47989 44328" /> 
<path d="M48288 44269 L48174 44316" /> 
<path d="M48305 44183 L48288 44269" /> 
<path d="M48305 46800 L48305 44183" /> 
<path d="M47294 46800 L48305 46800" /> 
<path d="M47294 31152 L47294 46800" /> 
<path d="M82824 31152 L47294 31152" /> 
<path d="M82824 46800 L82824 31152" /> 
</g>
<g style="fill:#000000; fill-opacity:1.0; 
  stroke:#000000; stroke-linecap:round; stroke-linejoin:round; stroke-opacity:1.0; stroke-opacity:1.0; stroke-width:0" 
   transform="translate(0 0) scale(1 1)">
<polygon style="fill-rule:evenodd; " 
points="82038,34775
81802,34539
81665,34481
81665,33479
81654,33275
81598,33138
81507,33115
81436,33186
81436,33044
81413,32953
81220,32886
81016,32897
80879,32953
80856,33044
81146,33334
81436,33044
81436,33186
81217,33405
81507,33695
81598,33672
81665,33479
81665,34481
81493,34410
81436,34410
81436,33766
81146,33476
81075,33547
81075,33405
80785,33115
80694,33138
80627,33331
80638,33535
80694,33672
80785,33695
81075,33405
81075,33547
80856,33766
80879,33857
81072,33924
81276,33913
81413,33857
81436,33766
81436,34410
81159,34410
80850,34537
80614,34773
80485,35082
80485,35416
80538,35544
80504,35579
80428,35691
80402,35825
80402,42656
79906,43152
79412,43152
79412,32280
79412,32091
79340,31916
79206,31783
79032,31710
78843,31710
78668,31782
78535,31916
78462,32090
78462,32279
78534,32454
78668,32587
78842,32660
79031,32660
79206,32588
79339,32454
79412,32280
79412,43152
78670,43152
78670,33730
78670,33631
78670,33081
78632,32989
78562,32919
78471,32881
78372,32881
77822,32881
77730,32919
77660,32989
77622,33080
77622,33179
77622,33427
77491,33373
77157,33373
77124,33386
77124,33301
77044,33108
76897,32960
76704,32880
76495,32880
76302,32960
76154,33107
76074,33300
76074,33509
76154,33702
76301,33850
76337,33865
74041,33865
74085,33821
74123,33730
74123,33631
74123,33081
74085,32989
74015,32919
73924,32881
73825,32881
73275,32881
73183,32919
73113,32989
73075,33080
73075,33179
73075,33729
73099,33788
72136,32825
72024,32749
71890,32723
71026,32723
71026,32280
71026,32091
70954,31916
70820,31783
70646,31710
70457,31710
70282,31782
70149,31916
70076,32090
70076,32279
70148,32454
70282,32587
70456,32660
70645,32660
70820,32588
70953,32454
71026,32280
71026,32723
67615,32723
67563,32596
67327,32360
67018,32231
66684,32231
66375,32358
66139,32594
66085,32723
65066,32723
64873,32530
64761,32454
64627,32428
63051,32428
62918,32454
62805,32530
62804,32530
62804,32531
62109,33226
62109,32772
62109,32583
62037,32408
61903,32275
61729,32202
61540,32202
61365,32274
61232,32408
61159,32582
61159,32771
61231,32946
61365,33079
61539,33152
61728,33152
61903,33080
62036,32946
62109,32772
62109,33226
62002,33333
58659,33333
58607,33206
58371,32970
58062,32841
57728,32841
57419,32968
57183,33204
57129,33333
51758,33333
51230,32805
51118,32729
50984,32703
49919,32703
49867,32576
49631,32340
49322,32211
48988,32211
48679,32338
48443,32574
48314,32883
48314,33217
48441,33526
48677,33762
48806,33815
48806,34568
48832,34702
48908,34814
49455,35361
49455,35828
49328,35881
49092,36117
48963,36426
48963,36760
49090,37069
49326,37305
49635,37434
49969,37434
50278,37307
50514,37071
50643,36762
50643,36428
50516,36119
50280,35883
50151,35829
50151,35217
50150,35216
50125,35084
50124,35083
50049,34971
50048,34970
49502,34424
49502,33816
49629,33764
49865,33528
49918,33399
50840,33399
51367,33926
51368,33927
51480,34002
51481,34003
51613,34028
51614,34029
57128,34029
57181,34156
57417,34392
57726,34521
58060,34521
58369,34394
58605,34158
58658,34029
62146,34029
62279,34003
62280,34003
62392,33927
63195,33124
64483,33124
64676,33317
64788,33393
64789,33393
64922,33419
66084,33419
66137,33546
66373,33782
66682,33911
67016,33911
67325,33784
67561,33548
67614,33419
71746,33419
72786,34459
72898,34535
72899,34535
73032,34561
76557,34561
76610,34688
76846,34924
77155,35053
77489,35053
77798,34926
78034,34690
78163,34381
78163,34047
78114,33929
78470,33929
78562,33891
78632,33821
78670,33730
78670,43152
76275,43152
76142,43178
76104,43203
76028,43254
75641,43641
75641,38410
75641,38201
75561,38008
75414,37860
75221,37780
75012,37780
74819,37860
74671,38007
74591,38200
74591,38409
74671,38602
74818,38750
75011,38830
75220,38830
75413,38750
75561,38603
75641,38410
75641,43641
74227,45055
74227,36996
74227,36787
74147,36594
74000,36446
73807,36366
73598,36366
73405,36446
73257,36593
73177,36786
73177,36995
73257,37188
73404,37336
73597,37416
73806,37416
73999,37336
74147,37189
74227,36996
74227,45055
74197,45085
73161,45085
73161,35099
73150,34886
73090,34739
72996,34712
72926,34782
72926,34642
72899,34548
72697,34477
72484,34488
72337,34548
72310,34642
72618,34949
72926,34642
72926,34782
72689,35020
72996,35328
73090,35301
73161,35099
73161,45085
72926,45085
72926,35398
72618,35091
72547,35161
72547,35020
72240,34712
72146,34739
72122,34804
72083,34709
71929,34555
71727,34471
71509,34471
71307,34555
71153,34709
71118,34793
71083,34709
70929,34555
70727,34471
70509,34471
70307,34555
70153,34709
70118,34793
70083,34709
69929,34555
69727,34471
69509,34471
69307,34555
69153,34709
69118,34793
69083,34709
68929,34555
68727,34471
68509,34471
68307,34555
68167,34695
68167,34671
68129,34579
68059,34509
67968,34471
67869,34471
67269,34471
67177,34509
67107,34579
67069,34670
67069,34769
67069,35369
67107,35461
67177,35531
67268,35569
67367,35569
67967,35569
68059,35531
68129,35461
68167,35370
68167,35345
68307,35485
68509,35569
68727,35569
68929,35485
69083,35331
69118,35246
69153,35331
69307,35485
69509,35569
69727,35569
69929,35485
70083,35331
70118,35246
70153,35331
70307,35485
70509,35569
70727,35569
70929,35485
71083,35331
71118,35246
71153,35331
71307,35485
71509,35569
71727,35569
71929,35485
72083,35331
72120,35239
72146,35301
72240,35328
72547,35020
72547,35161
72310,35398
72337,35492
72539,35563
72752,35552
72899,35492
72926,35398
72926,45085
72182,45085
72130,44958
71894,44722
71585,44593
71251,44593
70942,44720
70706,44956
70652,45085
70482,45085
70505,45030
70505,44696
70378,44387
70142,44151
69833,44022
69499,44022
69370,44075
68852,43557
68852,37596
68979,37544
69215,37308
69344,36999
69344,36665
69217,36356
68981,36120
68672,35991
68338,35991
68029,36118
67793,36354
67664,36663
67664,36997
67791,37306
68027,37542
68156,37595
68156,43701
68182,43835
68258,43947
68878,44567
68825,44694
68825,44731
66647,42553
66647,41592
66774,41540
67010,41304
67139,40995
67139,40661
67012,40352
66776,40116
66467,39987
66133,39987
65824,40114
65588,40350
65459,40659
65459,40993
65586,41302
65822,41538
65951,41591
65951,42697
65977,42831
66053,42943
69045,45935
69157,46011
69158,46011
69291,46037
70098,46037
70231,46011
70232,46011
70344,45935
70498,45781
70651,45781
70704,45908
70940,46144
71249,46273
71583,46273
71892,46146
72128,45910
72181,45781
74342,45781
74475,45755
74476,45755
74588,45679
76419,43848
80050,43848
80183,43822
80184,43822
80296,43746
80995,43047
80995,43046
80996,43046
81071,42934
81072,42933
81097,42801
81098,42800
81098,36065
81157,36090
81491,36090
81800,35963
82036,35727
82165,35418
82165,46800
63237,46800
63237,45794
63237,45585
63157,45392
63010,45244
62817,45164
62608,45164
62415,45244
62267,45391
62187,45584
62187,45793
62267,45986
62414,46134
62607,46214
62816,46214
63009,46134
63157,45987
63237,45794
63237,46800
61237,46800
61237,45794
61237,45585
61157,45392
61010,45244
60817,45164
60608,45164
60415,45244
60267,45391
60187,45584
60187,45793
60267,45986
60414,46134
60607,46214
60816,46214
61009,46134
61157,45987
61237,45794
61237,46800
57892,46800
57892,46098
57892,45999
57892,45399
57854,45307
57784,45237
57693,45199
57594,45199
56994,45199
56902,45237
56832,45307
56794,45398
56794,45423
56654,45283
56452,45199
56234,45199
56032,45283
55878,45437
55843,45521
55808,45437
55654,45283
55452,45199
55234,45199
55032,45283
54878,45437
54843,45521
54808,45437
54654,45283
54452,45199
54234,45199
54032,45283
53878,45437
53843,45521
53808,45437
53654,45283
53452,45199
53234,45199
53032,45283
52878,45437
52840,45528
52815,45467
52721,45440
52651,45510
52651,45370
52624,45276
52422,45205
52209,45216
52062,45276
52035,45370
52343,45677
52651,45370
52651,45510
52414,45748
52721,46056
52815,46029
52838,45963
52878,46059
53032,46213
53234,46297
53452,46297
53654,46213
53808,46059
53843,45974
53878,46059
54032,46213
54234,46297
54452,46297
54654,46213
54808,46059
54843,45974
54878,46059
55032,46213
55234,46297
55452,46297
55654,46213
55808,46059
55843,45974
55878,46059
56032,46213
56234,46297
56452,46297
56654,46213
56794,46073
56794,46097
56832,46189
56902,46259
56993,46297
57092,46297
57692,46297
57784,46259
57854,46189
57892,46098
57892,46800
52651,46800
52651,46126
52343,45819
52272,45889
52272,45748
51965,45440
51871,45467
51800,45669
51811,45882
51871,46029
51965,46056
52272,45748
52272,45889
52035,46126
52062,46220
52264,46291
52477,46280
52624,46220
52651,46126
52651,46800
49413,46800
49413,41473
49413,41284
49413,40449
49413,40260
49413,39248
49413,39059
49413,38244
49413,38055
49341,37880
49207,37747
49033,37674
48844,37674
48669,37746
48566,37849
48566,34386
48566,34197
48494,34022
48360,33889
48186,33816
47997,33816
47822,33888
47689,34022
47616,34196
47616,34385
47688,34560
47822,34693
47996,34766
48185,34766
48360,34694
48493,34560
48566,34386
48566,37849
48536,37880
48463,38054
48463,38243
48535,38418
48669,38551
48843,38624
49032,38624
49207,38552
49340,38418
49413,38244
49413,39059
49341,38884
49207,38751
49033,38678
48844,38678
48669,38750
48536,38884
48463,39058
48463,39247
48535,39422
48669,39555
48843,39628
49032,39628
49207,39556
49340,39422
49413,39248
49413,40260
49341,40085
49207,39952
49033,39879
48844,39879
48669,39951
48536,40085
48463,40259
48463,40448
48535,40623
48669,40756
48843,40829
49032,40829
49207,40757
49340,40623
49413,40449
49413,41284
49341,41109
49207,40976
49033,40903
48844,40903
48669,40975
48536,41109
48463,41283
48463,41472
48535,41647
48669,41780
48843,41853
49032,41853
49207,41781
49340,41647
49413,41473
49413,46800
48521,46800
48521,43920
48509,43735
48462,43621
48376,43604
48305,43675
48305,43533
48288,43447
48113,43388
47928,43400
47814,43447
47797,43533
48051,43787
48305,43533
48305,43675
48122,43858
48376,44112
48462,44095
48521,43920
48521,46800
48305,46800
48305,44183
48051,43929
47980,44000
47980,43858
47726,43604
47640,43621
47581,43796
47593,43981
47640,44095
47726,44112
47980,43858
47980,44000
47797,44183
47814,44269
47989,44328
48174,44316
48288,44269
48305,44183
48305,46800
47294,46800
47294,31152
82824,31152
82824,46800
82824,46800
82165,46800
82165,35418
82165,35084
" /> 
<ellipse cx="48051" cy="43858" rx="225" ry="225"  /> 
</g>
<g style="fill:#FFFFFF; fill-opacity:1.0; 
  stroke:#808000; stroke-linecap:round; stroke-linejoin:round; stroke-opacity:1.0; stroke-opacity:1.0; stroke-width:0" 
   transform="translate(0 0) scale(1 1)">
<ellipse cx="48051" cy="43858" rx="125" ry="125"  /> 
</g>
<g style="fill:#000000; fill-opacity:1.0; 
  stroke:#000000; stroke-linecap:round; stroke-linejoin:round; stroke-opacity:1.0; stroke-opacity:1.0; stroke-width:0" 
   transform="translate(0 0) scale(1 1)">
<ellipse cx="48091" cy="34291" rx="225" ry="225"  /> 
</g>
<g style="fill:#FFFFFF; fill-opacity:1.0; 
  stroke:#808000; stroke-linecap:round; stroke-linejoin:round; stroke-opacity:1.0; stroke-opacity:1.0; stroke-width:0" 
   transform="translate(0 0) scale(1 1)">
<ellipse cx="48091" cy="34291" rx="125" ry="125"  /> 
</g>
<g style="fill:#000000; fill-opacity:1.0; 
  stroke:#000000; stroke-linecap:round; stroke-linejoin:round; stroke-opacity:1.0; stroke-opacity:1.0; stroke-width:0" 
   transform="translate(0 0) scale(1 1)">
<ellipse cx="48938" cy="39153" rx="225" ry="225"  /> 
</g>
<g style="fill:#FFFFFF; fill-opacity:1.0; 
  stroke:#808000; stroke-linecap:round; stroke-linejoin:round; stroke-opacity:1.0; stroke-opacity:1.0; stroke-width:0" 
   transform="translate(0 0) scale(1 1)">
<ellipse cx="48938" cy="39153" rx="125" ry="125"  /> 
</g>
<g style="fill:#000000; fill-opacity:1.0; 
  stroke:#000000; stroke-linecap:round; stroke-linejoin:round; stroke-opacity:1.0; stroke-opacity:1.0; stroke-width:0" 
   transform="translate(0 0) scale(1 1)">
<ellipse cx="48938" cy="38149" rx="225" ry="225"  /> 
</g>
<g style="fill:#FFFFFF; fill-opacity:1.0; 
  stroke:#808000; stroke-linecap:round; stroke-linejoin:round; stroke-opacity:1.0; stroke-opacity:1.0; stroke-width:0" 
   transform="translate(0 0) scale(1 1)">
<ellipse cx="48938" cy="38149" rx="125" ry="125"  /> 
</g>
<g style="fill:#000000; fill-opacity:1.0; 
  stroke:#000000; stroke-linecap:round; stroke-linejoin:round; stroke-opacity:1.0; stroke-opacity:1.0; stroke-width:0" 
   transform="translate(0 0) scale(1 1)">
<ellipse cx="48938" cy="41378" rx="225" ry="225"  /> 
</g>
<g style="fill:#FFFFFF; fill-opacity:1.0; 
  stroke:#808000; stroke-linecap:round; stroke-linejoin:round; stroke-opacity:1.0; stroke-opacity:1.0; stroke-width:0" 
   transform="translate(0 0) scale(1 1)">
<ellipse cx="48938" cy="41378" rx="125" ry="125"  /> 
</g>
<g style="fill:#000000; fill-opacity:1.0; 
  stroke:#000000; stroke-linecap:round; stroke-linejoin:round; stroke-opacity:1.0; stroke-opacity:1.0; stroke-width:0" 
   transform="translate(0 0) scale(1 1)">
<ellipse cx="48938" cy="40354" rx="225" ry="225"  /> 
</g>
<g style="fill:#FFFFFF; fill-opacity:1.0; 
  stroke:#808000; stroke-linecap:round; stroke-linejoin:round; stroke-opacity:1.0; stroke-opacity:1.0; stroke-width:0" 
   transform="translate(0 0) scale(1 1)">
<ellipse cx="48938" cy="40354" rx="125" ry="125"  /> 
</g>
<g style="fill:#000000; fill-opacity:1.0; 
  stroke:#000000; stroke-linecap:round; stroke-linejoin:round; stroke-opacity:1.0; stroke-opacity:1.0; stroke-width:0" 
   transform="translate(0 0) scale(1 1)">
<ellipse cx="61634" cy="32677" rx="225" ry="225"  /> 
</g>
<g style="fill:#FFFFFF; fill-opacity:1.0; 
  stroke:#808000; stroke-linecap:round; stroke-linejoin:round; stroke-opacity:1.0; stroke-opacity:1.0; stroke-width:0" 
   transform="translate(0 0) scale(1 1)">
<ellipse cx="61634" cy="32677" rx="125" ry="125"  /> 
</g>
<g style="fill:#000000; fill-opacity:1.0; 
  stroke:#000000; stroke-linecap:round; stroke-linejoin:round; stroke-opacity:1.0; stroke-opacity:1.0; stroke-width:0" 
   transform="translate(0 0) scale(1 1)">
<ellipse cx="70551" cy="32185" rx="225" ry="225"  /> 
</g>
<g style="fill:#FFFFFF; fill-opacity:1.0; 
  stroke:#808000; stroke-linecap:round; stroke-linejoin:round; stroke-opacity:1.0; stroke-opacity:1.0; stroke-width:0" 
   transform="translate(0 0) scale(1 1)">
<ellipse cx="70551" cy="32185" rx="125" ry="125"  /> 
</g>
<g style="fill:#000000; fill-opacity:1.0; 
  stroke:#000000; stroke-linecap:round; stroke-linejoin:round; stroke-opacity:1.0; stroke-opacity:1.0; stroke-width:0" 
   transform="translate(0 0) scale(1 1)">
<ellipse cx="78937" cy="32185" rx="225" ry="225"  /> 
</g>
<g style="fill:#FFFFFF; fill-opacity:1.0; 
  stroke:#808000; stroke-linecap:round; stroke-linejoin:round; stroke-opacity:1.0; stroke-opacity:1.0; stroke-width:0" 
   transform="translate(0 0) scale(1 1)">
<ellipse cx="78937" cy="32185" rx="125" ry="125"  /> 
</g>
<g style="fill:#000000; fill-opacity:1.0; 
  stroke:#000000; stroke-linecap:round; stroke-linejoin:round; stroke-opacity:1.0; stroke-opacity:1.0; stroke-width:0" 
   transform="translate(0 0) scale(1 1)">
<polygon style="fill-rule:evenodd; " 
points="67318,35320
67318,34720
67918,34720
67918,35320
" /> 
</g>
<g style="fill:#FFFFFF; fill-opacity:1.0; 
  stroke:#808000; stroke-linecap:round; stroke-linejoin:round; stroke-opacity:1.0; stroke-opacity:1.0; stroke-width:0" 
   transform="translate(0 0) scale(1 1)">
<ellipse cx="67618" cy="35020" rx="200" ry="200"  /> 
</g>
<g style="fill:#000000; fill-opacity:1.0; 
  stroke:#000000; stroke-linecap:round; stroke-linejoin:round; stroke-opacity:1.0; stroke-opacity:1.0; stroke-width:0" 
   transform="translate(0 0) scale(1 1)">
<ellipse cx="68618" cy="35020" rx="300" ry="300"  /> 
</g>
<g style="fill:#FFFFFF; fill-opacity:1.0; 
  stroke:#808000; stroke-linecap:round; stroke-linejoin:round; stroke-opacity:1.0; stroke-opacity:1.0; stroke-width:0" 
   transform="translate(0 0) scale(1 1)">
<ellipse cx="68618" cy="35020" rx="200" ry="200"  /> 
</g>
<g style="fill:#000000; fill-opacity:1.0; 
  stroke:#000000; stroke-linecap:round; stroke-linejoin:round; stroke-opacity:1.0; stroke-opacity:1.0; stroke-width:0" 
   transform="translate(0 0) scale(1 1)">
<ellipse cx="69618" cy="35020" rx="300" ry="300"  /> 
</g>
<g style="fill:#FFFFFF; fill-opacity:1.0; 
  stroke:#808000; stroke-linecap:round; stroke-linejoin:round; stroke-opacity:1.0; stroke-opacity:1.0; stroke-width:0" 
   transform="translate(0 0) scale(1 1)">
<ellipse cx="69618" cy="35020" rx="200" ry="200"  /> 
</g>
<g style="fill:#000000; fill-opacity:1.0; 
  stroke:#000000; stroke-linecap:round; stroke-linejoin:round; stroke-opacity:1.0; stroke-opacity:1.0; stroke-width:0" 
   transform="translate(0 0) scale(1 1)">
<ellipse cx="70618" cy="35020" rx="300" ry="300"  /> 
</g>
<g style="fill:#FFFFFF; fill-opacity:1.0; 
  stroke:#808000; stroke-linecap:round; stroke-linejoin:round; stroke-opacity:1.0; stroke-opacity:1.0; stroke-width:0" 
   transform="translate(0 0) scale(1 1)">
<ellipse cx="70618" cy="35020" rx="200" ry="200"  /> 
</g>
<g style="fill:#000000; fill-opacity:1.0; 
  stroke:#000000; stroke-linecap:round; stroke-linejoin:round; stroke-opacity:1.0; stroke-opacity:1.0; stroke-width:0" 
   transform="translate(0 0) scale(1 1)">
<ellipse cx="71618" cy="35020" rx="300" ry="300"  /> 
</g>
<g style="fill:#FFFFFF; fill-opacity:1.0; 
  stroke:#808000; stroke-linecap:round; stroke-linejoin:round; stroke-opacity:1.0; stroke-opacity:1.0; stroke-width:0" 
   transform="translate(0 0) scale(1 1)">
<ellipse cx="71618" cy="35020" rx="200" ry="200"  /> 
</g>
<g style="fill:#000000; fill-opacity:1.0; 
  stroke:#000000; stroke-linecap:round; stroke-linejoin:round; stroke-opacity:1.0; stroke-opacity:1.0; stroke-width:0" 
   transform="translate(0 0) scale(1 1)">
<ellipse cx="72618" cy="35020" rx="300" ry="300"  /> 
</g>
<g style="fill:#FFFFFF; fill-opacity:1.0; 
  stroke:#808000; stroke-linecap:round; stroke-linejoin:round; stroke-opacity:1.0; stroke-opacity:1.0; stroke-width:0" 
   transform="translate(0 0) scale(1 1)">
<ellipse cx="72618" cy="35020" rx="200" ry="200"  /> 
</g>
<g style="fill:#000000; fill-opacity:1.0; 
  stroke:#000000; stroke-linecap:round; stroke-linejoin:round; stroke-opacity:1.0; stroke-opacity:1.0; stroke-width:0" 
   transform="translate(0 0) scale(1 1)">
<polygon style="fill-rule:evenodd; " 
points="73874,33130
73874,33680
73324,33680
73324,33130
" /> 
</g>
<g style="fill:#FFFFFF; fill-opacity:1.0; 
  stroke:#808000; stroke-linecap:round; stroke-linejoin:round; stroke-opacity:1.0; stroke-opacity:1.0; stroke-width:0" 
   transform="translate(0 0) scale(1 1)">
<ellipse cx="73599" cy="33405" rx="160" ry="160"  /> 
</g>
<g style="fill:#000000; fill-opacity:1.0; 
  stroke:#000000; stroke-linecap:round; stroke-linejoin:round; stroke-opacity:1.0; stroke-opacity:1.0; stroke-width:0" 
   transform="translate(0 0) scale(1 1)">
<ellipse cx="76599" cy="33405" rx="275" ry="275"  /> 
</g>
<g style="fill:#FFFFFF; fill-opacity:1.0; 
  stroke:#808000; stroke-linecap:round; stroke-linejoin:round; stroke-opacity:1.0; stroke-opacity:1.0; stroke-width:0" 
   transform="translate(0 0) scale(1 1)">
<ellipse cx="76599" cy="33405" rx="160" ry="160"  /> 
</g>
<g style="fill:#000000; fill-opacity:1.0; 
  stroke:#000000; stroke-linecap:round; stroke-linejoin:round; stroke-opacity:1.0; stroke-opacity:1.0; stroke-width:0" 
   transform="translate(0 0) scale(1 1)">
<polygon style="fill-rule:evenodd; " 
points="78421,33130
78421,33680
77871,33680
77871,33130
" /> 
</g>
<g style="fill:#FFFFFF; fill-opacity:1.0; 
  stroke:#808000; stroke-linecap:round; stroke-linejoin:round; stroke-opacity:1.0; stroke-opacity:1.0; stroke-width:0" 
   transform="translate(0 0) scale(1 1)">
<ellipse cx="78146" cy="33405" rx="160" ry="160"  /> 
</g>
<g style="fill:#000000; fill-opacity:1.0; 
  stroke:#000000; stroke-linecap:round; stroke-linejoin:round; stroke-opacity:1.0; stroke-opacity:1.0; stroke-width:0" 
   transform="translate(0 0) scale(1 1)">
<ellipse cx="81146" cy="33405" rx="275" ry="275"  /> 
</g>
<g style="fill:#FFFFFF; fill-opacity:1.0; 
  stroke:#808000; stroke-linecap:round; stroke-linejoin:round; stroke-opacity:1.0; stroke-opacity:1.0; stroke-width:0" 
   transform="translate(0 0) scale(1 1)">
<ellipse cx="81146" cy="33405" rx="160" ry="160"  /> 
</g>
<g style="fill:#000000; fill-opacity:1.0; 
  stroke:#000000; stroke-linecap:round; stroke-linejoin:round; stroke-opacity:1.0; stroke-opacity:1.0; stroke-width:0" 
   transform="translate(0 0) scale(1 1)">
<polygon style="fill-rule:evenodd; " 
points="57643,45448
57643,46048
57043,46048
57043,45448
" /> 
</g>
<g style="fill:#FFFFFF; fill-opacity:1.0; 
  stroke:#808000; stroke-linecap:round; stroke-linejoin:round; stroke-opacity:1.0; stroke-opacity:1.0; stroke-width:0" 
   transform="translate(0 0) scale(1 1)">
<ellipse cx="57343" cy="45748" rx="200" ry="200"  /> 
</g>
<g style="fill:#000000; fill-opacity:1.0; 
  stroke:#000000; stroke-linecap:round; stroke-linejoin:round; stroke-opacity:1.0; stroke-opacity:1.0; stroke-width:0" 
   transform="translate(0 0) scale(1 1)">
<ellipse cx="56343" cy="45748" rx="300" ry="300"  /> 
</g>
<g style="fill:#FFFFFF; fill-opacity:1.0; 
  stroke:#808000; stroke-linecap:round; stroke-linejoin:round; stroke-opacity:1.0; stroke-opacity:1.0; stroke-width:0" 
   transform="translate(0 0) scale(1 1)">
<ellipse cx="56343" cy="45748" rx="200" ry="200"  /> 
</g>
<g style="fill:#000000; fill-opacity:1.0; 
  stroke:#000000; stroke-linecap:round; stroke-linejoin:round; stroke-opacity:1.0; stroke-opacity:1.0; stroke-width:0" 
   transform="translate(0 0) scale(1 1)">
<ellipse cx="55343" cy="45748" rx="300" ry="300"  /> 
</g>
<g style="fill:#FFFFFF; fill-opacity:1.0; 
  stroke:#808000; stroke-linecap:round; stroke-linejoin:round; stroke-opacity:1.0; stroke-opacity:1.0; stroke-width:0" 
   transform="translate(0 0) scale(1 1)">
<ellipse cx="55343" cy="45748" rx="200" ry="200"  /> 
</g>
<g style="fill:#000000; fill-opacity:1.0; 
  stroke:#000000; stroke-linecap:round; stroke-linejoin:round; stroke-opacity:1.0; stroke-opacity:1.0; stroke-width:0" 
   transform="translate(0 0) scale(1 1)">
<ellipse cx="54343" cy="45748" rx="300" ry="300"  /> 
</g>
<g style="fill:#FFFFFF; fill-opacity:1.0; 
  stroke:#808000; stroke-linecap:round; stroke-linejoin:round; stroke-opacity:1.0; stroke-opacity:1.0; stroke-width:0" 
   transform="translate(0 0) scale(1 1)">
<ellipse cx="54343" cy="45748" rx="200" ry="200"  /> 
</g>
<g style="fill:#000000; fill-opacity:1.0; 
  stroke:#000000; stroke-linecap:round; stroke-linejoin:round; stroke-opacity:1.0; stroke-opacity:1.0; stroke-width:0" 
   transform="translate(0 0) scale(1 1)">
<ellipse cx="53343" cy="45748" rx="300" ry="300"  /> 
</g>
<g style="fill:#FFFFFF; fill-opacity:1.0; 
  stroke:#808000; stroke-linecap:round; stroke-linejoin:round; stroke-opacity:1.0; stroke-opacity:1.0; stroke-width:0" 
   transform="translate(0 0) scale(1 1)">
<ellipse cx="53343" cy="45748" rx="200" ry="200"  /> 
</g>
<g style="fill:#000000; fill-opacity:1.0; 
  stroke:#000000; stroke-linecap:round; stroke-linejoin:round; stroke-opacity:1.0; stroke-opacity:1.0; stroke-width:0" 
   transform="translate(0 0) scale(1 1)">
<ellipse cx="52343" cy="45748" rx="300" ry="300"  /> 
</g>
<g style="fill:#FFFFFF; fill-opacity:1.0; 
  stroke:#808000; stroke-linecap:round; stroke-linejoin:round; stroke-opacity:1.0; stroke-opacity:1.0; stroke-width:0" 
   transform="translate(0 0) scale(1 1)">
<ellipse cx="52343" cy="45748" rx="200" ry="200"  /> 
</g>
<g style="fill:#000000; fill-opacity:1.0; 
  stroke:#000000; stroke-linecap:round; stroke-linejoin:round; stroke-opacity:1.0; stroke-opacity:1.0; stroke-width:0" 
   transform="translate(0 0) scale(1 1)">
<ellipse cx="75116" cy="38305" rx="275" ry="275"  /> 
</g>
<g style="fill:#FFFFFF; fill-opacity:1.0; 
  stroke:#808000; stroke-linecap:round; stroke-linejoin:round; stroke-opacity:1.0; stroke-opacity:1.0; stroke-width:0" 
   transform="translate(0 0) scale(1 1)">
<ellipse cx="75116" cy="38305" rx="160" ry="160"  /> 
</g>
<g style="fill:#000000; fill-opacity:1.0; 
  stroke:#000000; stroke-linecap:round; stroke-linejoin:round; stroke-opacity:1.0; stroke-opacity:1.0; stroke-width:0" 
   transform="translate(0 0) scale(1 1)">
<ellipse cx="73702" cy="36891" rx="275" ry="275"  /> 
</g>
<g style="fill:#FFFFFF; fill-opacity:1.0; 
  stroke:#808000; stroke-linecap:round; stroke-linejoin:round; stroke-opacity:1.0; stroke-opacity:1.0; stroke-width:0" 
   transform="translate(0 0) scale(1 1)">
<ellipse cx="73702" cy="36891" rx="160" ry="160"  /> 
</g>
<g style="fill:#000000; fill-opacity:1.0; 
  stroke:#000000; stroke-linecap:round; stroke-linejoin:round; stroke-opacity:1.0; stroke-opacity:1.0; stroke-width:0" 
   transform="translate(0 0) scale(1 1)">
<ellipse cx="60712" cy="45689" rx="275" ry="275"  /> 
</g>
<g style="fill:#FFFFFF; fill-opacity:1.0; 
  stroke:#808000; stroke-linecap:round; stroke-linejoin:round; stroke-opacity:1.0; stroke-opacity:1.0; stroke-width:0" 
   transform="translate(0 0) scale(1 1)">
<ellipse cx="60712" cy="45689" rx="160" ry="160"  /> 
</g>
<g style="fill:#000000; fill-opacity:1.0; 
  stroke:#000000; stroke-linecap:round; stroke-linejoin:round; stroke-opacity:1.0; stroke-opacity:1.0; stroke-width:0" 
   transform="translate(0 0) scale(1 1)">
<ellipse cx="62712" cy="45689" rx="275" ry="275"  /> 
</g>
<g style="fill:#FFFFFF; fill-opacity:1.0; 
  stroke:#808000; stroke-linecap:round; stroke-linejoin:round; stroke-opacity:1.0; stroke-opacity:1.0; stroke-width:0" 
   transform="translate(0 0) scale(1 1)">
<ellipse cx="62712" cy="45689" rx="160" ry="160"  /> 
</g>
<g style="fill:#FFFFFF; fill-opacity:1.0; 
  stroke:#FFFFFF; stroke-linecap:round; stroke-linejoin:round; stroke-opacity:1.0; stroke-opacity:1.0; stroke-width:0" 
   transform="translate(0 0) scale(1 1)">
<ellipse cx="68504" cy="36831" rx="138" ry="138"  /> 
<ellipse cx="69665" cy="44862" rx="138" ry="138"  /> 
<ellipse cx="69469" cy="41909" rx="138" ry="138"  /> 
<ellipse cx="59429" cy="35079" rx="138" ry="138"  /> 
<ellipse cx="52402" cy="43130" rx="138" ry="138"  /> 
<ellipse cx="51949" cy="36220" rx="138" ry="138"  /> 
<ellipse cx="63996" cy="34016" rx="138" ry="138"  /> 
<ellipse cx="65335" cy="37992" rx="138" ry="138"  /> 
<ellipse cx="81325" cy="35250" rx="138" ry="138"  /> 
<ellipse cx="66299" cy="40827" rx="138" ry="138"  /> 
<ellipse cx="71417" cy="45433" rx="138" ry="138"  /> 
<ellipse cx="49803" cy="36594" rx="138" ry="138"  /> 
<ellipse cx="49154" cy="33051" rx="138" ry="138"  /> 
<ellipse cx="57894" cy="33681" rx="138" ry="138"  /> 
<ellipse cx="77323" cy="34213" rx="138" ry="138"  /> 
<ellipse cx="66850" cy="33071" rx="138" ry="138"  /> 
</g> 
</svg> 
