<?xml version="1.0" standalone="no"?>
<!DOCTYPE svg PUBLIC "-//W3C//DTD SVG 1.1//EN" 
"http://www.w3.org/Graphics/SVG/1.1/DTD/svg11.dtd"> 
<svg
  xmlns="http://www.w3.org/2000/svg"
  version="1.1"
  width="11.7in" height="8.267in" viewBox="0 0 117000 82670 "
>
  <title>SVG Picture created as power_supply-Front.svg </title>
  <desc>Picture generated by wxSVG v0101 </desc>
  <g style="fill:black; stroke:black; stroke-width:1">
</g>
<g style="fill:#000000; fill-opacity:0.0; 
  stroke:#000000; stroke-linecap:round; stroke-linejoin:round; stroke-opacity:1.0; stroke-opacity:1.0; stroke-width:150" 
   transform="translate(0 0) scale(1 1)">
<path d="M71654 46063 L55512 46063" /> 
<path d="M71654 35433 L71654 46063" /> 
<path d="M55512 35433 L71654 35433" /> 
<path d="M55512 46063 L55512 35433" /> 
</g>
<g style="fill:#000000; fill-opacity:0.0; 
  stroke:#000000; stroke-linecap:round; stroke-linejoin:round; stroke-opacity:1.0; stroke-opacity:1.0; stroke-width:300" 
   transform="translate(0 0) scale(1 1)">
<path d="M68366 39685 L68366 41300" /> 
<path d="M68366 41300 L67205 42461" /> 
<path d="M65769 42362 L65769 41182" /> 
<path d="M63071 39744 L61556 39744" /> 
<path d="M63622 40295 L63071 39744" /> 
<path d="M64882 40295 L63622 40295" /> 
<path d="M65769 41182 L64882 40295" /> 
<path d="M70079 38583 L70079 39311" /> 
<path d="M69705 39685 L68366 39685" /> 
<path d="M70079 39311 L69705 39685" /> 
<path d="M67205 42461 L66693 42461" /> 
<path d="M66693 42461 L66594 42362" /> 
<path d="M66594 42362 L65769 42362" /> 
<path d="M66161 43091 L66417 43091" /> 
<path d="M68366 43504 L68779 43091" /> 
<path d="M66830 43504 L68366 43504" /> 
<path d="M66417 43091 L66830 43504" /> 
<path d="M64567 43091 L66161 43091" /> 
<path d="M68779 43091 L68917 42953" /> 
<path d="M64193 37087 L70729 37087" /> 
<path d="M70729 37087 L71378 37736" /> 
<path d="M71378 37736 L71378 40492" /> 
<path d="M71378 40492 L68917 42953" /> 
<path d="M64390 42914 L64390 42185" /> 
<path d="M64567 43091 L64390 42914" /> 
<path d="M64193 37087 L64193 39390" /> 
<path d="M64488 39685 L65610 39685" /> 
<path d="M64193 39390 L64488 39685" /> 
<path d="M64193 37087 L62830 37087" /> 
<path d="M62830 37087 L62043 37874" /> 
<path d="M62043 37874 L62043 38461" /> 
<path d="M61823 38681 L61556 38681" /> 
<path d="M62043 38461 L61823 38681" /> 
<path d="M63386 41987 L63386 41945" /> 
<path d="M63386 41945 L64390 40941" /> 
<path d="M65019 42362 L64567 42362" /> 
<path d="M64567 42362 L64390 42185" /> 
<path d="M64390 42185 L64390 40941" /> 
<path d="M62152 42006 L62152 41339" /> 
<path d="M62152 41339 L62152 41305" /> 
<path d="M62152 41305 L61556 40709" /> 
<path d="M63386 41987 L62171 41987" /> 
<path d="M62171 41987 L62152 42006" /> 
<path d="M60965 44586 L60965 43917" /> 
<path d="M60965 43917 L61260 43622" /> 
<path d="M57226 44586 L58366 44586" /> 
<path d="M61260 43622 L61417 43465" /> 
<path d="M61417 43465 L62111 43465" /> 
<path d="M62111 43465 L62152 43506" /> 
<path d="M61260 43622 L61260 43386" /> 
<path d="M61260 43386 L60880 43006" /> 
<path d="M60880 43006 L60052 43006" /> 
<path d="M60098 44586 L60571 44586" /> 
<path d="M60571 44586 L60965 44586" /> 
<path d="M59232 44586 L60098 44586" /> 
<path d="M58366 44586 L59232 44586" /> 
<path d="M57226 44252 L57226 44586" /> 
<path d="M57226 44586 L57226 45118" /> 
<path d="M57226 43386 L57226 44252" /> 
<path d="M57226 42520 L57226 43386" /> 
<path d="M57226 41654 L57226 42520" /> 
<path d="M57226 40787 L57226 41654" /> 
<path d="M63209 42737 L62978 42506" /> 
<path d="M63386 42737 L63209 42737" /> 
<path d="M62978 42506 L62152 42506" /> 
<path d="M60806 39744 L60138 39744" /> 
<path d="M60335 40709 L60806 40709" /> 
<path d="M59941 40315 L60335 40709" /> 
<path d="M59941 39941 L59941 40315" /> 
<path d="M60138 39744 L59941 39941" /> 
<path d="M60052 41181 L60052 41129" /> 
<path d="M60052 41181 L60052 42006" /> 
<path d="M60806 40709 L60472 40709" /> 
<path d="M60472 40709 L60052 41129" /> 
<path d="M66457 44429 L65969 43941" /> 
<path d="M64390 43941 L63567 43941" /> 
<path d="M62770 43006 L62152 43006" /> 
<path d="M62815 43051 L62770 43006" /> 
<path d="M62815 43189 L62815 43051" /> 
<path d="M63567 43941 L62815 43189" /> 
<path d="M67205 44429 L66457 44429" /> 
<path d="M65969 43941 L64390 43941" /> 
<path d="M60052 42506 L59179 42506" /> 
<path d="M58720 38130 L58976 37874" /> 
<path d="M58720 42047 L58720 38130" /> 
<path d="M59179 42506 L58720 42047" /> 
<path d="M57264 37795 L57264 38169" /> 
<path d="M56476 38957 L56476 40787" /> 
<path d="M57264 38169 L56476 38957" /> 
<path d="M60043 37874 L58976 37874" /> 
<path d="M58976 37874 L57343 37874" /> 
<path d="M57343 37874 L57264 37795" /> 
<path d="M60043 37874 L60043 38586" /> 
<path d="M60138 38681 L60806 38681" /> 
<path d="M60043 38586 L60138 38681" /> 
<path d="M56476 45118 L56476 45590" /> 
<path d="M58366 45473 L58366 45336" /> 
<path d="M58071 45768 L58366 45473" /> 
<path d="M56654 45768 L58071 45768" /> 
<path d="M56476 45590 L56654 45768" /> 
<path d="M60098 45336 L60965 45336" /> 
<path d="M59232 45336 L60098 45336" /> 
<path d="M58366 45336 L59232 45336" /> 
<path d="M56476 44252 L56476 45118" /> 
<path d="M56476 43386 L56476 44252" /> 
<path d="M56476 42520 L56476 43386" /> 
<path d="M56476 41654 L56476 42520" /> 
<path d="M56476 40787 L56476 41654" /> 
</g>
<g style="fill:#000000; fill-opacity:0.0; 
  stroke:#000000; stroke-linecap:round; stroke-linejoin:round; stroke-opacity:1.0; stroke-opacity:1.0; stroke-width:100" 
   transform="translate(0 0) scale(1 1)">
<path d="M61170 42730 L61170 42730" /> 
<path d="M61163 42723 L61170 42730" /> 
<path d="M61033 42636 L61163 42723" /> 
<path d="M60880 42606 L61033 42636" /> 
<path d="M60515 42606 L60880 42606" /> 
<path d="M60465 42556 L60515 42606" /> 
<path d="M60152 42556 L60465 42556" /> 
<path d="M60102 42556 L60152 42556" /> 
<path d="M60002 42556 L60102 42556" /> 
<path d="M59952 42556 L60002 42556" /> 
<path d="M59639 42556 L59952 42556" /> 
<path d="M59577 42618 L59639 42556" /> 
<path d="M59578 42655 L59577 42618" /> 
<path d="M59616 42747 L59578 42655" /> 
<path d="M59625 42756 L59616 42747" /> 
<path d="M59616 42765 L59625 42756" /> 
<path d="M59578 42856 L59616 42765" /> 
<path d="M59578 42955 L59578 42856" /> 
<path d="M59578 43155 L59578 42955" /> 
<path d="M59616 43247 L59578 43155" /> 
<path d="M59625 43256 L59616 43247" /> 
<path d="M59616 43265 L59625 43256" /> 
<path d="M59578 43356 L59616 43265" /> 
<path d="M59578 43455 L59578 43356" /> 
<path d="M59578 43655 L59578 43455" /> 
<path d="M59616 43747 L59578 43655" /> 
<path d="M59686 43817 L59616 43747" /> 
<path d="M59777 43855 L59686 43817" /> 
<path d="M59876 43855 L59777 43855" /> 
<path d="M60326 43855 L59876 43855" /> 
<path d="M60418 43817 L60326 43855" /> 
<path d="M60488 43747 L60418 43817" /> 
<path d="M60526 43656 L60488 43747" /> 
<path d="M60526 43557 L60526 43656" /> 
<path d="M60526 43406 L60526 43557" /> 
<path d="M60714 43406 L60526 43406" /> 
<path d="M60812 43504 L60714 43406" /> 
<path d="M60682 43634 L60812 43504" /> 
<path d="M60595 43764 L60682 43634" /> 
<path d="M60565 43917 L60595 43764" /> 
<path d="M60565 44186 L60565 43917" /> 
<path d="M60480 44186 L60565 44186" /> 
<path d="M60423 44162 L60480 44186" /> 
<path d="M60324 44162 L60423 44162" /> 
<path d="M59774 44162 L60324 44162" /> 
<path d="M59715 44186 L59774 44162" /> 
<path d="M59614 44186 L59715 44186" /> 
<path d="M59557 44162 L59614 44186" /> 
<path d="M59458 44162 L59557 44162" /> 
<path d="M58908 44162 L59458 44162" /> 
<path d="M58849 44186 L58908 44162" /> 
<path d="M58748 44186 L58849 44186" /> 
<path d="M58691 44162 L58748 44186" /> 
<path d="M58592 44162 L58691 44162" /> 
<path d="M58294 44162 L58592 44162" /> 
<path d="M58294 37991 L58294 44162" /> 
<path d="M58291 37581 L58294 37991" /> 
<path d="M58141 37219 L58291 37581" /> 
<path d="M57997 37133 L58141 37219" /> 
<path d="M57926 37204 L57997 37133" /> 
<path d="M57926 37062 L57926 37204" /> 
<path d="M57840 36918 L57926 37062" /> 
<path d="M57460 36765 L57840 36918" /> 
<path d="M57050 36768 L57460 36765" /> 
<path d="M56688 36918 L57050 36768" /> 
<path d="M56602 37062 L56688 36918" /> 
<path d="M57264 37724 L56602 37062" /> 
<path d="M57926 37062 L57264 37724" /> 
<path d="M57926 37204 L57926 37062" /> 
<path d="M57335 37795 L57926 37204" /> 
<path d="M57997 38457 L57335 37795" /> 
<path d="M58141 38371 L57997 38457" /> 
<path d="M58294 37991 L58141 38371" /> 
<path d="M58294 44162 L58294 37991" /> 
<path d="M58042 44162 L58294 44162" /> 
<path d="M57983 44186 L58042 44162" /> 
<path d="M57926 44186 L57983 44186" /> 
<path d="M57926 38528 L57926 44186" /> 
<path d="M57264 37866 L57926 38528" /> 
<path d="M57193 37937 L57264 37866" /> 
<path d="M57193 37795 L57193 37937" /> 
<path d="M56531 37133 L57193 37795" /> 
<path d="M56387 37219 L56531 37133" /> 
<path d="M56234 37599 L56387 37219" /> 
<path d="M56237 38009 L56234 37599" /> 
<path d="M56387 38371 L56237 38009" /> 
<path d="M56531 38457 L56387 38371" /> 
<path d="M57193 37795 L56531 38457" /> 
<path d="M57193 37937 L57193 37795" /> 
<path d="M56602 38528 L57193 37937" /> 
<path d="M56688 38672 L56602 38528" /> 
<path d="M57068 38825 L56688 38672" /> 
<path d="M57478 38822 L57068 38825" /> 
<path d="M57840 38672 L57478 38822" /> 
<path d="M57926 38528 L57840 38672" /> 
<path d="M57926 44186 L57926 38528" /> 
<path d="M57650 44186 L57926 44186" /> 
<path d="M57650 43928 L57650 44186" /> 
<path d="M57626 43869 L57650 43928" /> 
<path d="M57626 43768 L57626 43869" /> 
<path d="M57650 43711 L57626 43768" /> 
<path d="M57650 43612 L57650 43711" /> 
<path d="M57650 43062 L57650 43612" /> 
<path d="M57626 43003 L57650 43062" /> 
<path d="M57626 42902 L57626 43003" /> 
<path d="M57650 42845 L57626 42902" /> 
<path d="M57650 42746 L57650 42845" /> 
<path d="M57650 42196 L57650 42746" /> 
<path d="M57626 42137 L57650 42196" /> 
<path d="M57626 42036 L57626 42137" /> 
<path d="M57650 41979 L57626 42036" /> 
<path d="M57650 41880 L57650 41979" /> 
<path d="M57650 41330 L57650 41880" /> 
<path d="M57626 41271 L57650 41330" /> 
<path d="M57626 41169 L57626 41271" /> 
<path d="M57650 41112 L57626 41169" /> 
<path d="M57650 41013 L57650 41112" /> 
<path d="M57650 40463 L57650 41013" /> 
<path d="M57612 40371 L57650 40463" /> 
<path d="M57542 40301 L57612 40371" /> 
<path d="M57451 40263 L57542 40301" /> 
<path d="M57352 40263 L57451 40263" /> 
<path d="M57002 40263 L57352 40263" /> 
<path d="M56910 40301 L57002 40263" /> 
<path d="M56851 40360 L56910 40301" /> 
<path d="M56792 40301 L56851 40360" /> 
<path d="M56700 40263 L56792 40301" /> 
<path d="M56588 40262 L56700 40263" /> 
<path d="M56526 40324 L56588 40262" /> 
<path d="M56526 40687 L56526 40324" /> 
<path d="M56526 40737 L56526 40687" /> 
<path d="M56526 40837 L56526 40737" /> 
<path d="M56526 40887 L56526 40837" /> 
<path d="M56526 41191 L56526 40887" /> 
<path d="M56526 41250 L56526 41191" /> 
<path d="M56526 41554 L56526 41250" /> 
<path d="M56526 41604 L56526 41554" /> 
<path d="M56526 41704 L56526 41604" /> 
<path d="M56526 41754 L56526 41704" /> 
<path d="M56526 42057 L56526 41754" /> 
<path d="M56526 42117 L56526 42057" /> 
<path d="M56526 42420 L56526 42117" /> 
<path d="M56526 42470 L56526 42420" /> 
<path d="M56526 42570 L56526 42470" /> 
<path d="M56526 42620 L56526 42570" /> 
<path d="M56526 42923 L56526 42620" /> 
<path d="M56526 42983 L56526 42923" /> 
<path d="M56526 43286 L56526 42983" /> 
<path d="M56526 43336 L56526 43286" /> 
<path d="M56526 43436 L56526 43336" /> 
<path d="M56526 43486 L56526 43436" /> 
<path d="M56526 43789 L56526 43486" /> 
<path d="M56526 43849 L56526 43789" /> 
<path d="M56526 44152 L56526 43849" /> 
<path d="M56526 44202 L56526 44152" /> 
<path d="M56526 44302 L56526 44202" /> 
<path d="M56526 44352 L56526 44302" /> 
<path d="M56526 44655 L56526 44352" /> 
<path d="M56526 44715 L56526 44655" /> 
<path d="M56526 45018 L56526 44715" /> 
<path d="M56526 45068 L56526 45018" /> 
<path d="M56526 45168 L56526 45068" /> 
<path d="M56526 45218 L56526 45168" /> 
<path d="M56526 45581 L56526 45218" /> 
<path d="M56588 45643 L56526 45581" /> 
<path d="M56700 45642 L56588 45643" /> 
<path d="M56792 45604 L56700 45642" /> 
<path d="M56851 45545 L56792 45604" /> 
<path d="M56910 45604 L56851 45545" /> 
<path d="M57001 45642 L56910 45604" /> 
<path d="M57100 45642 L57001 45642" /> 
<path d="M57450 45642 L57100 45642" /> 
<path d="M57542 45604 L57450 45642" /> 
<path d="M57612 45534 L57542 45604" /> 
<path d="M57650 45443 L57612 45534" /> 
<path d="M57650 45344 L57650 45443" /> 
<path d="M57650 44986 L57650 45344" /> 
<path d="M57914 44986 L57650 44986" /> 
<path d="M57880 45020 L57914 44986" /> 
<path d="M57842 45112 L57880 45020" /> 
<path d="M57841 45224 L57842 45112" /> 
<path d="M57903 45286 L57841 45224" /> 
<path d="M58266 45286 L57903 45286" /> 
<path d="M58316 45286 L58266 45286" /> 
<path d="M58416 45286 L58316 45286" /> 
<path d="M58466 45286 L58416 45286" /> 
<path d="M58769 45286 L58466 45286" /> 
<path d="M58829 45286 L58769 45286" /> 
<path d="M59132 45286 L58829 45286" /> 
<path d="M59182 45286 L59132 45286" /> 
<path d="M59282 45286 L59182 45286" /> 
<path d="M59332 45286 L59282 45286" /> 
<path d="M59635 45286 L59332 45286" /> 
<path d="M59695 45286 L59635 45286" /> 
<path d="M59998 45286 L59695 45286" /> 
<path d="M60048 45286 L59998 45286" /> 
<path d="M60148 45286 L60048 45286" /> 
<path d="M60198 45286 L60148 45286" /> 
<path d="M60502 45286 L60198 45286" /> 
<path d="M60561 45286 L60502 45286" /> 
<path d="M60865 45286 L60561 45286" /> 
<path d="M60915 45286 L60865 45286" /> 
<path d="M61015 45286 L60915 45286" /> 
<path d="M61015 45386 L61015 45286" /> 
<path d="M60915 45386 L61015 45386" /> 
<path d="M60865 45386 L60915 45386" /> 
<path d="M60561 45386 L60865 45386" /> 
<path d="M60502 45386 L60561 45386" /> 
<path d="M60198 45386 L60502 45386" /> 
<path d="M60148 45386 L60198 45386" /> 
<path d="M60048 45386 L60148 45386" /> 
<path d="M59998 45386 L60048 45386" /> 
<path d="M59695 45386 L59998 45386" /> 
<path d="M59635 45386 L59695 45386" /> 
<path d="M59332 45386 L59635 45386" /> 
<path d="M59282 45386 L59332 45386" /> 
<path d="M59182 45386 L59282 45386" /> 
<path d="M59132 45386 L59182 45386" /> 
<path d="M58829 45386 L59132 45386" /> 
<path d="M58769 45386 L58829 45386" /> 
<path d="M58466 45386 L58769 45386" /> 
<path d="M58416 45386 L58466 45386" /> 
<path d="M58316 45386 L58416 45386" /> 
<path d="M58266 45386 L58316 45386" /> 
<path d="M57903 45386 L58266 45386" /> 
<path d="M57841 45448 L57903 45386" /> 
<path d="M57842 45560 L57841 45448" /> 
<path d="M57880 45652 L57842 45560" /> 
<path d="M57950 45722 L57880 45652" /> 
<path d="M57988 45738 L57950 45722" /> 
<path d="M56426 45738 L57988 45738" /> 
<path d="M56426 45581 L56426 45738" /> 
<path d="M56426 45168 L56426 45581" /> 
<path d="M56426 45068 L56426 45168" /> 
<path d="M56426 44715 L56426 45068" /> 
<path d="M56426 44655 L56426 44715" /> 
<path d="M56426 44302 L56426 44655" /> 
<path d="M56426 44202 L56426 44302" /> 
<path d="M56426 43849 L56426 44202" /> 
<path d="M56426 43789 L56426 43849" /> 
<path d="M56426 43436 L56426 43789" /> 
<path d="M56426 43336 L56426 43436" /> 
<path d="M56426 42983 L56426 43336" /> 
<path d="M56426 42923 L56426 42983" /> 
<path d="M56426 42570 L56426 42923" /> 
<path d="M56426 42470 L56426 42570" /> 
<path d="M56426 42117 L56426 42470" /> 
<path d="M56426 42057 L56426 42117" /> 
<path d="M56426 41704 L56426 42057" /> 
<path d="M56426 41604 L56426 41704" /> 
<path d="M56426 41250 L56426 41604" /> 
<path d="M56426 41191 L56426 41250" /> 
<path d="M56426 40837 L56426 41191" /> 
<path d="M56426 40737 L56426 40837" /> 
<path d="M56426 40324 L56426 40737" /> 
<path d="M56364 40262 L56426 40324" /> 
<path d="M56252 40263 L56364 40262" /> 
<path d="M56160 40301 L56252 40263" /> 
<path d="M56090 40371 L56160 40301" /> 
<path d="M56052 40462 L56090 40371" /> 
<path d="M56052 40561 L56052 40462" /> 
<path d="M56051 40675 L56052 40561" /> 
<path d="M56113 40737 L56051 40675" /> 
<path d="M56426 40737 L56113 40737" /> 
<path d="M56426 40837 L56426 40737" /> 
<path d="M56113 40837 L56426 40837" /> 
<path d="M56051 40899 L56113 40837" /> 
<path d="M56052 41013 L56051 40899" /> 
<path d="M56052 41112 L56052 41013" /> 
<path d="M56090 41203 L56052 41112" /> 
<path d="M56107 41220 L56090 41203" /> 
<path d="M56090 41238 L56107 41220" /> 
<path d="M56052 41329 L56090 41238" /> 
<path d="M56052 41428 L56052 41329" /> 
<path d="M56051 41542 L56052 41428" /> 
<path d="M56113 41604 L56051 41542" /> 
<path d="M56426 41604 L56113 41604" /> 
<path d="M56426 41704 L56426 41604" /> 
<path d="M56113 41704 L56426 41704" /> 
<path d="M56051 41766 L56113 41704" /> 
<path d="M56052 41880 L56051 41766" /> 
<path d="M56052 41979 L56052 41880" /> 
<path d="M56090 42070 L56052 41979" /> 
<path d="M56107 42087 L56090 42070" /> 
<path d="M56090 42104 L56107 42087" /> 
<path d="M56052 42195 L56090 42104" /> 
<path d="M56052 42294 L56052 42195" /> 
<path d="M56051 42408 L56052 42294" /> 
<path d="M56113 42470 L56051 42408" /> 
<path d="M56426 42470 L56113 42470" /> 
<path d="M56426 42570 L56426 42470" /> 
<path d="M56113 42570 L56426 42570" /> 
<path d="M56051 42632 L56113 42570" /> 
<path d="M56052 42746 L56051 42632" /> 
<path d="M56052 42845 L56052 42746" /> 
<path d="M56090 42936 L56052 42845" /> 
<path d="M56107 42953 L56090 42936" /> 
<path d="M56090 42970 L56107 42953" /> 
<path d="M56052 43061 L56090 42970" /> 
<path d="M56052 43160 L56052 43061" /> 
<path d="M56051 43274 L56052 43160" /> 
<path d="M56113 43336 L56051 43274" /> 
<path d="M56426 43336 L56113 43336" /> 
<path d="M56426 43436 L56426 43336" /> 
<path d="M56113 43436 L56426 43436" /> 
<path d="M56051 43498 L56113 43436" /> 
<path d="M56052 43612 L56051 43498" /> 
<path d="M56052 43711 L56052 43612" /> 
<path d="M56090 43802 L56052 43711" /> 
<path d="M56107 43819 L56090 43802" /> 
<path d="M56090 43836 L56107 43819" /> 
<path d="M56052 43927 L56090 43836" /> 
<path d="M56052 44026 L56052 43927" /> 
<path d="M56051 44140 L56052 44026" /> 
<path d="M56113 44202 L56051 44140" /> 
<path d="M56426 44202 L56113 44202" /> 
<path d="M56426 44302 L56426 44202" /> 
<path d="M56113 44302 L56426 44302" /> 
<path d="M56051 44364 L56113 44302" /> 
<path d="M56052 44478 L56051 44364" /> 
<path d="M56052 44577 L56052 44478" /> 
<path d="M56090 44668 L56052 44577" /> 
<path d="M56107 44685 L56090 44668" /> 
<path d="M56090 44702 L56107 44685" /> 
<path d="M56052 44793 L56090 44702" /> 
<path d="M56052 44892 L56052 44793" /> 
<path d="M56051 45006 L56052 44892" /> 
<path d="M56113 45068 L56051 45006" /> 
<path d="M56426 45068 L56113 45068" /> 
<path d="M56426 45168 L56426 45068" /> 
<path d="M56113 45168 L56426 45168" /> 
<path d="M56051 45230 L56113 45168" /> 
<path d="M56052 45344 L56051 45230" /> 
<path d="M56052 45443 L56052 45344" /> 
<path d="M56090 45534 L56052 45443" /> 
<path d="M56160 45604 L56090 45534" /> 
<path d="M56252 45642 L56160 45604" /> 
<path d="M56364 45643 L56252 45642" /> 
<path d="M56426 45581 L56364 45643" /> 
<path d="M56426 45738 L56426 45581" /> 
<path d="M55837 45738 L56426 45738" /> 
<path d="M55837 35758 L55837 45738" /> 
<path d="M61170 35758 L55837 35758" /> 
<path d="M61170 38243 L61170 35758" /> 
<path d="M61122 38195 L61170 38243" /> 
<path d="M61030 38157 L61122 38195" /> 
<path d="M60918 38156 L61030 38157" /> 
<path d="M60856 38218 L60918 38156" /> 
<path d="M60856 38581 L60856 38218" /> 
<path d="M60856 38631 L60856 38581" /> 
<path d="M60856 38731 L60856 38631" /> 
<path d="M60856 38781 L60856 38731" /> 
<path d="M60856 39144 L60856 38781" /> 
<path d="M60918 39206 L60856 39144" /> 
<path d="M61030 39205 L60918 39206" /> 
<path d="M61122 39167 L61030 39205" /> 
<path d="M61170 39119 L61122 39167" /> 
<path d="M61170 39306 L61170 39119" /> 
<path d="M61122 39258 L61170 39306" /> 
<path d="M61031 39220 L61122 39258" /> 
<path d="M60932 39220 L61031 39220" /> 
<path d="M60756 39220 L60932 39220" /> 
<path d="M60756 39144 L60756 39220" /> 
<path d="M60756 38731 L60756 39144" /> 
<path d="M60756 38631 L60756 38731" /> 
<path d="M60756 38218 L60756 38631" /> 
<path d="M60694 38156 L60756 38218" /> 
<path d="M60642 38156 L60694 38156" /> 
<path d="M60643 37986 L60642 38156" /> 
<path d="M60643 37762 L60643 37986" /> 
<path d="M60642 37573 L60643 37762" /> 
<path d="M60642 37474 L60642 37573" /> 
<path d="M60604 37383 L60642 37474" /> 
<path d="M60534 37313 L60604 37383" /> 
<path d="M60442 37275 L60534 37313" /> 
<path d="M60155 37274 L60442 37275" /> 
<path d="M60093 37336 L60155 37274" /> 
<path d="M60093 37824 L60093 37336" /> 
<path d="M60581 37824 L60093 37824" /> 
<path d="M60643 37762 L60581 37824" /> 
<path d="M60643 37986 L60643 37762" /> 
<path d="M60581 37924 L60643 37986" /> 
<path d="M60093 37924 L60581 37924" /> 
<path d="M60093 38412 L60093 37924" /> 
<path d="M60155 38474 L60093 38412" /> 
<path d="M60381 38473 L60155 38474" /> 
<path d="M60381 38569 L60381 38473" /> 
<path d="M60443 38631 L60381 38569" /> 
<path d="M60756 38631 L60443 38631" /> 
<path d="M60756 38731 L60756 38631" /> 
<path d="M60443 38731 L60756 38731" /> 
<path d="M60381 38793 L60443 38731" /> 
<path d="M60382 38907 L60381 38793" /> 
<path d="M60382 39006 L60382 38907" /> 
<path d="M60420 39097 L60382 39006" /> 
<path d="M60490 39167 L60420 39097" /> 
<path d="M60582 39205 L60490 39167" /> 
<path d="M60694 39206 L60582 39205" /> 
<path d="M60756 39144 L60694 39206" /> 
<path d="M60756 39220 L60756 39144" /> 
<path d="M60582 39220 L60756 39220" /> 
<path d="M60490 39258 L60582 39220" /> 
<path d="M60420 39328 L60490 39258" /> 
<path d="M60413 39344 L60420 39328" /> 
<path d="M60138 39344 L60413 39344" /> 
<path d="M59993 39372 L60138 39344" /> 
<path d="M59993 38412 L59993 39372" /> 
<path d="M59993 37924 L59993 38412" /> 
<path d="M59993 37824 L59993 37924" /> 
<path d="M59993 37336 L59993 37824" /> 
<path d="M59931 37274 L59993 37336" /> 
<path d="M59644 37275 L59931 37274" /> 
<path d="M59552 37313 L59644 37275" /> 
<path d="M59482 37383 L59552 37313" /> 
<path d="M59444 37474 L59482 37383" /> 
<path d="M59444 37573 L59444 37474" /> 
<path d="M59443 37762 L59444 37573" /> 
<path d="M59505 37824 L59443 37762" /> 
<path d="M59993 37824 L59505 37824" /> 
<path d="M59993 37924 L59993 37824" /> 
<path d="M59505 37924 L59993 37924" /> 
<path d="M59443 37986 L59505 37924" /> 
<path d="M59444 38175 L59443 37986" /> 
<path d="M59444 38274 L59444 38175" /> 
<path d="M59482 38365 L59444 38274" /> 
<path d="M59552 38435 L59482 38365" /> 
<path d="M59644 38473 L59552 38435" /> 
<path d="M59931 38474 L59644 38473" /> 
<path d="M59993 38412 L59931 38474" /> 
<path d="M59993 39372 L59993 38412" /> 
<path d="M59985 39374 L59993 39372" /> 
<path d="M59855 39461 L59985 39374" /> 
<path d="M59852 39463 L59855 39461" /> 
<path d="M59658 39658 L59852 39463" /> 
<path d="M59571 39788 L59658 39658" /> 
<path d="M59541 39941 L59571 39788" /> 
<path d="M59541 40315 L59541 39941" /> 
<path d="M59571 40468 L59541 40315" /> 
<path d="M59658 40598 L59571 40468" /> 
<path d="M59837 40777 L59658 40598" /> 
<path d="M59769 40846 L59837 40777" /> 
<path d="M59682 40976 L59769 40846" /> 
<path d="M59652 41129 L59682 40976" /> 
<path d="M59652 41181 L59652 41129" /> 
<path d="M59652 41729 L59652 41181" /> 
<path d="M59616 41765 L59652 41729" /> 
<path d="M59578 41856 L59616 41765" /> 
<path d="M59578 41955 L59578 41856" /> 
<path d="M59578 42155 L59578 41955" /> 
<path d="M59616 42247 L59578 42155" /> 
<path d="M59625 42256 L59616 42247" /> 
<path d="M59616 42265 L59625 42256" /> 
<path d="M59578 42357 L59616 42265" /> 
<path d="M59577 42394 L59578 42357" /> 
<path d="M59639 42456 L59577 42394" /> 
<path d="M59952 42456 L59639 42456" /> 
<path d="M60002 42456 L59952 42456" /> 
<path d="M60102 42456 L60002 42456" /> 
<path d="M60152 42456 L60102 42456" /> 
<path d="M60465 42456 L60152 42456" /> 
<path d="M60527 42394 L60465 42456" /> 
<path d="M60526 42357 L60527 42394" /> 
<path d="M60488 42265 L60526 42357" /> 
<path d="M60479 42256 L60488 42265" /> 
<path d="M60488 42247 L60479 42256" /> 
<path d="M60526 42156 L60488 42247" /> 
<path d="M60526 42057 L60526 42156" /> 
<path d="M60526 41857 L60526 42057" /> 
<path d="M60488 41765 L60526 41857" /> 
<path d="M60452 41729 L60488 41765" /> 
<path d="M60452 41295 L60452 41729" /> 
<path d="M60533 41213 L60452 41295" /> 
<path d="M60581 41233 L60533 41213" /> 
<path d="M60680 41233 L60581 41233" /> 
<path d="M61030 41233 L60680 41233" /> 
<path d="M61122 41195 L61030 41233" /> 
<path d="M61170 41147 L61122 41195" /> 
<path d="M61170 42730 L61170 41147" /> 
</g>
<g style="fill:#000000; fill-opacity:1.0; 
  stroke:#000000; stroke-linecap:round; stroke-linejoin:round; stroke-opacity:1.0; stroke-opacity:1.0; stroke-width:0" 
   transform="translate(0 0) scale(1 1)">
<polygon style="fill-rule:evenodd; " 
points="60515,42606
60465,42556
60152,42556
60102,42556
60002,42556
59952,42556
59639,42556
59577,42618
59578,42655
59616,42747
59625,42756
59616,42765
59578,42856
59578,42955
59578,43155
59616,43247
59625,43256
59616,43265
59578,43356
59578,43455
59578,43655
59616,43747
59686,43817
59777,43855
59876,43855
60326,43855
60418,43817
60488,43747
60526,43656
60526,43557
60526,43406
60714,43406
60812,43504
60682,43634
60595,43764
60565,43917
60565,44186
60480,44186
60423,44162
60324,44162
59774,44162
59715,44186
59614,44186
59557,44162
59458,44162
58908,44162
58849,44186
58748,44186
58691,44162
58592,44162
58294,44162
58294,37991
58291,37581
58141,37219
57997,37133
57926,37204
57926,37062
57840,36918
57460,36765
57050,36768
56688,36918
56602,37062
57264,37724
57926,37062
57926,37204
57335,37795
57997,38457
58141,38371
58294,37991
58294,44162
58042,44162
57983,44186
57926,44186
57926,38528
57264,37866
57193,37937
57193,37795
56531,37133
56387,37219
56234,37599
56237,38009
56387,38371
56531,38457
57193,37795
57193,37937
56602,38528
56688,38672
57068,38825
57478,38822
57840,38672
57926,38528
57926,44186
57650,44186
57650,43928
57626,43869
57626,43768
57650,43711
57650,43612
57650,43062
57626,43003
57626,42902
57650,42845
57650,42746
57650,42196
57626,42137
57626,42036
57650,41979
57650,41880
57650,41330
57626,41271
57626,41169
57650,41112
57650,41013
57650,40463
57612,40371
57542,40301
57451,40263
57352,40263
57002,40263
56910,40301
56851,40360
56792,40301
56700,40263
56588,40262
56526,40324
56526,40687
56526,40737
56526,40837
56526,40887
56526,41191
56526,41250
56526,41554
56526,41604
56526,41704
56526,41754
56526,42057
56526,42117
56526,42420
56526,42470
56526,42570
56526,42620
56526,42923
56526,42983
56526,43286
56526,43336
56526,43436
56526,43486
56526,43789
56526,43849
56526,44152
56526,44202
56526,44302
56526,44352
56526,44655
56526,44715
56526,45018
56526,45068
56526,45168
56526,45218
56526,45581
56588,45643
56700,45642
56792,45604
56851,45545
56910,45604
57001,45642
57100,45642
57450,45642
57542,45604
57612,45534
57650,45443
57650,45344
57650,44986
57914,44986
57880,45020
57842,45112
57841,45224
57903,45286
58266,45286
58316,45286
58416,45286
58466,45286
58769,45286
58829,45286
59132,45286
59182,45286
59282,45286
59332,45286
59635,45286
59695,45286
59998,45286
60048,45286
60148,45286
60198,45286
60502,45286
60561,45286
60865,45286
60915,45286
61015,45286
61015,45386
60915,45386
60865,45386
60561,45386
60502,45386
60198,45386
60148,45386
60048,45386
59998,45386
59695,45386
59635,45386
59332,45386
59282,45386
59182,45386
59132,45386
58829,45386
58769,45386
58466,45386
58416,45386
58316,45386
58266,45386
57903,45386
57841,45448
57842,45560
57880,45652
57950,45722
57988,45738
56426,45738
56426,45581
56426,45168
56426,45068
56426,44715
56426,44655
56426,44302
56426,44202
56426,43849
56426,43789
56426,43436
56426,43336
56426,42983
56426,42923
56426,42570
56426,42470
56426,42117
56426,42057
56426,41704
56426,41604
56426,41250
56426,41191
56426,40837
56426,40737
56426,40324
56364,40262
56252,40263
56160,40301
56090,40371
56052,40462
56052,40561
56051,40675
56113,40737
56426,40737
56426,40837
56113,40837
56051,40899
56052,41013
56052,41112
56090,41203
56107,41220
56090,41238
56052,41329
56052,41428
56051,41542
56113,41604
56426,41604
56426,41704
56113,41704
56051,41766
56052,41880
56052,41979
56090,42070
56107,42087
56090,42104
56052,42195
56052,42294
56051,42408
56113,42470
56426,42470
56426,42570
56113,42570
56051,42632
56052,42746
56052,42845
56090,42936
56107,42953
56090,42970
56052,43061
56052,43160
56051,43274
56113,43336
56426,43336
56426,43436
56113,43436
56051,43498
56052,43612
56052,43711
56090,43802
56107,43819
56090,43836
56052,43927
56052,44026
56051,44140
56113,44202
56426,44202
56426,44302
56113,44302
56051,44364
56052,44478
56052,44577
56090,44668
56107,44685
56090,44702
56052,44793
56052,44892
56051,45006
56113,45068
56426,45068
56426,45168
56113,45168
56051,45230
56052,45344
56052,45443
56090,45534
56160,45604
56252,45642
56364,45643
56426,45581
56426,45738
55837,45738
55837,35758
61170,35758
61170,38243
61122,38195
61030,38157
60918,38156
60856,38218
60856,38581
60856,38631
60856,38731
60856,38781
60856,39144
60918,39206
61030,39205
61122,39167
61170,39119
61170,39306
61122,39258
61031,39220
60932,39220
60756,39220
60756,39144
60756,38731
60756,38631
60756,38218
60694,38156
60642,38156
60643,37986
60643,37762
60642,37573
60642,37474
60604,37383
60534,37313
60442,37275
60155,37274
60093,37336
60093,37824
60581,37824
60643,37762
60643,37986
60581,37924
60093,37924
60093,38412
60155,38474
60381,38473
60381,38569
60443,38631
60756,38631
60756,38731
60443,38731
60381,38793
60382,38907
60382,39006
60420,39097
60490,39167
60582,39205
60694,39206
60756,39144
60756,39220
60582,39220
60490,39258
60420,39328
60413,39344
60138,39344
59993,39372
59993,38412
59993,37924
59993,37824
59993,37336
59931,37274
59644,37275
59552,37313
59482,37383
59444,37474
59444,37573
59443,37762
59505,37824
59993,37824
59993,37924
59505,37924
59443,37986
59444,38175
59444,38274
59482,38365
59552,38435
59644,38473
59931,38474
59993,38412
59993,39372
59985,39374
59855,39461
59852,39463
59658,39658
59571,39788
59541,39941
59541,40315
59571,40468
59658,40598
59837,40777
59769,40846
59682,40976
59652,41129
59652,41181
59652,41729
59616,41765
59578,41856
59578,41955
59578,42155
59616,42247
59625,42256
59616,42265
59578,42357
59577,42394
59639,42456
59952,42456
60002,42456
60102,42456
60152,42456
60465,42456
60527,42394
60526,42357
60488,42265
60479,42256
60488,42247
60526,42156
60526,42057
60526,41857
60488,41765
60452,41729
60452,41295
60533,41213
60581,41233
60680,41233
61030,41233
61122,41195
61170,41147
61170,42730
61170,42730
61163,42723
61033,42636
60880,42606
" /> 
</g>
<g style="fill:#000000; fill-opacity:1.0; 
  stroke:#000000; stroke-linecap:round; stroke-linejoin:round; stroke-opacity:1.0; stroke-opacity:1.0; stroke-width:100" 
   transform="translate(0 0) scale(1 1)">
<path d="M71329 45738 L71329 45738" /> 
<path d="M61664 45738 L71329 45738" /> 
<path d="M61664 43865 L61664 45738" /> 
<path d="M61983 43865 L61664 43865" /> 
<path d="M61998 43875 L61983 43865" /> 
<path d="M62151 43906 L61998 43875" /> 
<path d="M62305 43875 L62151 43906" /> 
<path d="M62334 43855 L62305 43875" /> 
<path d="M62426 43855 L62334 43855" /> 
<path d="M62518 43817 L62426 43855" /> 
<path d="M62588 43747 L62518 43817" /> 
<path d="M62626 43656 L62588 43747" /> 
<path d="M62626 43565 L62626 43656" /> 
<path d="M63281 44220 L62626 43565" /> 
<path d="M63284 44224 L63281 44220" /> 
<path d="M63413 44310 L63284 44224" /> 
<path d="M63414 44311 L63413 44310" /> 
<path d="M63567 44341 L63414 44311" /> 
<path d="M63897 44341 L63567 44341" /> 
<path d="M63904 44357 L63897 44341" /> 
<path d="M63974 44427 L63904 44357" /> 
<path d="M64065 44465 L63974 44427" /> 
<path d="M64164 44465 L64065 44465" /> 
<path d="M64714 44465 L64164 44465" /> 
<path d="M64806 44427 L64714 44465" /> 
<path d="M64876 44357 L64806 44427" /> 
<path d="M64882 44341 L64876 44357" /> 
<path d="M65803 44341 L64882 44341" /> 
<path d="M66174 44712 L65803 44341" /> 
<path d="M66303 44799 L66174 44712" /> 
<path d="M66304 44799 L66303 44799" /> 
<path d="M66457 44829 L66304 44799" /> 
<path d="M66829 44829 L66457 44829" /> 
<path d="M66894 44894 L66829 44829" /> 
<path d="M67096 44978 L66894 44894" /> 
<path d="M67314 44978 L67096 44978" /> 
<path d="M67516 44894 L67314 44978" /> 
<path d="M67670 44740 L67516 44894" /> 
<path d="M67754 44538 L67670 44740" /> 
<path d="M67754 44320 L67754 44538" /> 
<path d="M67670 44118 L67754 44320" /> 
<path d="M67516 43964 L67670 44118" /> 
<path d="M67314 43880 L67516 43964" /> 
<path d="M67096 43880 L67314 43880" /> 
<path d="M66894 43964 L67096 43880" /> 
<path d="M66829 44029 L66894 43964" /> 
<path d="M66623 44029 L66829 44029" /> 
<path d="M66252 43658 L66623 44029" /> 
<path d="M66122 43571 L66252 43658" /> 
<path d="M65969 43541 L66122 43571" /> 
<path d="M64969 43541 L65969 43541" /> 
<path d="M64969 42825 L64969 43541" /> 
<path d="M64969 42412 L64969 42825" /> 
<path d="M64969 42312 L64969 42412" /> 
<path d="M64969 41899 L64969 42312" /> 
<path d="M64907 41837 L64969 41899" /> 
<path d="M64795 41838 L64907 41837" /> 
<path d="M64703 41876 L64795 41838" /> 
<path d="M64680 41899 L64703 41876" /> 
<path d="M64680 41302 L64680 41899" /> 
<path d="M64390 41012 L64680 41302" /> 
<path d="M64100 41302 L64390 41012" /> 
<path d="M64123 41393 L64100 41302" /> 
<path d="M64316 41460 L64123 41393" /> 
<path d="M64520 41449 L64316 41460" /> 
<path d="M64657 41393 L64520 41449" /> 
<path d="M64680 41302 L64657 41393" /> 
<path d="M64680 41899 L64680 41302" /> 
<path d="M64633 41946 L64680 41899" /> 
<path d="M64595 42037 L64633 41946" /> 
<path d="M64595 42136 L64595 42037" /> 
<path d="M64594 42250 L64595 42136" /> 
<path d="M64656 42312 L64594 42250" /> 
<path d="M64969 42312 L64656 42312" /> 
<path d="M64969 42412 L64969 42312" /> 
<path d="M64656 42412 L64969 42412" /> 
<path d="M64594 42474 L64656 42412" /> 
<path d="M64595 42588 L64594 42474" /> 
<path d="M64595 42687 L64595 42588" /> 
<path d="M64633 42778 L64595 42687" /> 
<path d="M64703 42848 L64633 42778" /> 
<path d="M64795 42886 L64703 42848" /> 
<path d="M64907 42887 L64795 42886" /> 
<path d="M64969 42825 L64907 42887" /> 
<path d="M64969 43541 L64969 42825" /> 
<path d="M64882 43541 L64969 43541" /> 
<path d="M64876 43525 L64882 43541" /> 
<path d="M64806 43455 L64876 43525" /> 
<path d="M64715 43417 L64806 43455" /> 
<path d="M64616 43417 L64715 43417" /> 
<path d="M64066 43417 L64616 43417" /> 
<path d="M63974 43455 L64066 43417" /> 
<path d="M63904 43525 L63974 43455" /> 
<path d="M63897 43541 L63904 43525" /> 
<path d="M63732 43541 L63897 43541" /> 
<path d="M63352 43161 L63732 43541" /> 
<path d="M63710 43161 L63352 43161" /> 
<path d="M63802 43123 L63710 43161" /> 
<path d="M63872 43053 L63802 43123" /> 
<path d="M63910 42962 L63872 43053" /> 
<path d="M63910 42863 L63910 42962" /> 
<path d="M63910 42513 L63910 42863" /> 
<path d="M63872 42421 L63910 42513" /> 
<path d="M63813 42362 L63872 42421" /> 
<path d="M63872 42303 L63813 42362" /> 
<path d="M63910 42211 L63872 42303" /> 
<path d="M63911 42099 L63910 42211" /> 
<path d="M63911 41875 L63911 42099" /> 
<path d="M63910 41763 L63911 41875" /> 
<path d="M63872 41671 L63910 41763" /> 
<path d="M63802 41601 L63872 41671" /> 
<path d="M63711 41563 L63802 41601" /> 
<path d="M63612 41563 L63711 41563" /> 
<path d="M63498 41562 L63612 41563" /> 
<path d="M63436 41624 L63498 41562" /> 
<path d="M63436 41937 L63436 41624" /> 
<path d="M63849 41937 L63436 41937" /> 
<path d="M63911 41875 L63849 41937" /> 
<path d="M63911 42099 L63911 41875" /> 
<path d="M63849 42037 L63911 42099" /> 
<path d="M63486 42037 L63849 42037" /> 
<path d="M63436 42037 L63486 42037" /> 
<path d="M63336 42037 L63436 42037" /> 
<path d="M63336 41937 L63336 42037" /> 
<path d="M63336 41624 L63336 41937" /> 
<path d="M63274 41562 L63336 41624" /> 
<path d="M63160 41563 L63274 41562" /> 
<path d="M63061 41563 L63160 41563" /> 
<path d="M62970 41601 L63061 41563" /> 
<path d="M62900 41671 L62970 41601" /> 
<path d="M62862 41763 L62900 41671" /> 
<path d="M62861 41875 L62862 41763" /> 
<path d="M62923 41937 L62861 41875" /> 
<path d="M63336 41937 L62923 41937" /> 
<path d="M63336 42037 L63336 41937" /> 
<path d="M63286 42037 L63336 42037" /> 
<path d="M62923 42037 L63286 42037" /> 
<path d="M62861 42099 L62923 42037" /> 
<path d="M62861 42106 L62861 42099" /> 
<path d="M62627 42106 L62861 42106" /> 
<path d="M62627 41894 L62627 42106" /> 
<path d="M62626 41857 L62627 41894" /> 
<path d="M62588 41765 L62626 41857" /> 
<path d="M62518 41695 L62588 41765" /> 
<path d="M62427 41657 L62518 41695" /> 
<path d="M62328 41657 L62427 41657" /> 
<path d="M62264 41656 L62328 41657" /> 
<path d="M62202 41718 L62264 41656" /> 
<path d="M62202 41956 L62202 41718" /> 
<path d="M62565 41956 L62202 41956" /> 
<path d="M62627 41894 L62565 41956" /> 
<path d="M62627 42106 L62627 41894" /> 
<path d="M62615 42106 L62627 42106" /> 
<path d="M62565 42056 L62615 42106" /> 
<path d="M62252 42056 L62565 42056" /> 
<path d="M62202 42056 L62252 42056" /> 
<path d="M62102 42056 L62202 42056" /> 
<path d="M62102 41956 L62102 42056" /> 
<path d="M62102 41718 L62102 41956" /> 
<path d="M62040 41656 L62102 41718" /> 
<path d="M61976 41657 L62040 41656" /> 
<path d="M61877 41657 L61976 41657" /> 
<path d="M61786 41695 L61877 41657" /> 
<path d="M61716 41765 L61786 41695" /> 
<path d="M61678 41857 L61716 41765" /> 
<path d="M61677 41894 L61678 41857" /> 
<path d="M61739 41956 L61677 41894" /> 
<path d="M62102 41956 L61739 41956" /> 
<path d="M62102 42056 L62102 41956" /> 
<path d="M62052 42056 L62102 42056" /> 
<path d="M61739 42056 L62052 42056" /> 
<path d="M61677 42118 L61739 42056" /> 
<path d="M61678 42155 L61677 42118" /> 
<path d="M61716 42247 L61678 42155" /> 
<path d="M61725 42256 L61716 42247" /> 
<path d="M61716 42265 L61725 42256" /> 
<path d="M61678 42356 L61716 42265" /> 
<path d="M61678 42455 L61678 42356" /> 
<path d="M61678 42655 L61678 42455" /> 
<path d="M61716 42747 L61678 42655" /> 
<path d="M61725 42756 L61716 42747" /> 
<path d="M61716 42765 L61725 42756" /> 
<path d="M61678 42856 L61716 42765" /> 
<path d="M61678 42955 L61678 42856" /> 
<path d="M61678 43065 L61678 42955" /> 
<path d="M61664 43065 L61678 43065" /> 
<path d="M61664 41230 L61664 43065" /> 
<path d="M61668 41234 L61664 41230" /> 
<path d="M61780 41233 L61668 41234" /> 
<path d="M61872 41195 L61780 41233" /> 
<path d="M61942 41125 L61872 41195" /> 
<path d="M61980 41034 L61942 41125" /> 
<path d="M61980 40935 L61980 41034" /> 
<path d="M61981 40821 L61980 40935" /> 
<path d="M61919 40759 L61981 40821" /> 
<path d="M61664 40759 L61919 40759" /> 
<path d="M61664 40659 L61664 40759" /> 
<path d="M61919 40659 L61664 40659" /> 
<path d="M61981 40597 L61919 40659" /> 
<path d="M61980 40483 L61981 40597" /> 
<path d="M61980 40404 L61980 40483" /> 
<path d="M63165 40404 L61980 40404" /> 
<path d="M63339 40578 L63165 40404" /> 
<path d="M63468 40665 L63339 40578" /> 
<path d="M63469 40665 L63468 40665" /> 
<path d="M63622 40695 L63469 40665" /> 
<path d="M63930 40695 L63622 40695" /> 
<path d="M63871 40867 L63930 40695" /> 
<path d="M63882 41071 L63871 40867" /> 
<path d="M63938 41208 L63882 41071" /> 
<path d="M64029 41231 L63938 41208" /> 
<path d="M64284 40976 L64029 41231" /> 
<path d="M64319 40941 L64284 40976" /> 
<path d="M64390 40870 L64319 40941" /> 
<path d="M64461 40941 L64390 40870" /> 
<path d="M64496 40976 L64461 40941" /> 
<path d="M64751 41231 L64496 40976" /> 
<path d="M64842 41208 L64751 41231" /> 
<path d="M64909 41015 L64842 41208" /> 
<path d="M64901 40880 L64909 41015" /> 
<path d="M65107 41086 L64901 40880" /> 
<path d="M65107 41861 L65107 41086" /> 
<path d="M65069 41899 L65107 41861" /> 
<path d="M65069 42262 L65069 41899" /> 
<path d="M65069 42312 L65069 42262" /> 
<path d="M65069 42412 L65069 42312" /> 
<path d="M65069 42462 L65069 42412" /> 
<path d="M65069 42825 L65069 42462" /> 
<path d="M65107 42863 L65069 42825" /> 
<path d="M65107 42963 L65107 42863" /> 
<path d="M66982 42963 L65107 42963" /> 
<path d="M67096 43010 L66982 42963" /> 
<path d="M67314 43010 L67096 43010" /> 
<path d="M67427 42963 L67314 43010" /> 
<path d="M67738 42963 L67427 42963" /> 
<path d="M70719 39982 L67738 42963" /> 
<path d="M70719 39427 L70719 39982" /> 
<path d="M70969 39178 L70719 39427" /> 
<path d="M71129 38793 L70969 39178" /> 
<path d="M71129 38375 L71129 38793" /> 
<path d="M70969 37989 L71129 38375" /> 
<path d="M70674 37693 L70969 37989" /> 
<path d="M70289 37533 L70674 37693" /> 
<path d="M69871 37533 L70289 37533" /> 
<path d="M69485 37693 L69871 37533" /> 
<path d="M69189 37988 L69485 37693" /> 
<path d="M69029 38373 L69189 37988" /> 
<path d="M69029 38791 L69029 38373" /> 
<path d="M69084 38926 L69029 38791" /> 
<path d="M66879 38926 L69084 38926" /> 
<path d="M66879 40698 L66879 38926" /> 
<path d="M66647 40698 L66879 40698" /> 
<path d="M66647 39797 L66647 40698" /> 
<path d="M66647 39573 L66647 39797" /> 
<path d="M66646 39439 L66647 39573" /> 
<path d="M66608 39347 L66646 39439" /> 
<path d="M66538 39277 L66608 39347" /> 
<path d="M66447 39239 L66538 39277" /> 
<path d="M66348 39239 L66447 39239" /> 
<path d="M65722 39238 L66348 39239" /> 
<path d="M65660 39300 L65722 39238" /> 
<path d="M65660 39635 L65660 39300" /> 
<path d="M66585 39635 L65660 39635" /> 
<path d="M66647 39573 L66585 39635" /> 
<path d="M66647 39797 L66647 39573" /> 
<path d="M66585 39735 L66647 39797" /> 
<path d="M65660 39735 L66585 39735" /> 
<path d="M65660 40070 L65660 39735" /> 
<path d="M65722 40132 L65660 40070" /> 
<path d="M66348 40131 L65722 40132" /> 
<path d="M66447 40131 L66348 40131" /> 
<path d="M66538 40093 L66447 40131" /> 
<path d="M66608 40023 L66538 40093" /> 
<path d="M66646 39931 L66608 40023" /> 
<path d="M66647 39797 L66646 39931" /> 
<path d="M66647 40698 L66647 39797" /> 
<path d="M66163 40698 L66647 40698" /> 
<path d="M65547 40082 L66163 40698" /> 
<path d="M65560 40070 L65547 40082" /> 
<path d="M65560 39735 L65560 40070" /> 
<path d="M65560 39635 L65560 39735" /> 
<path d="M65560 39300 L65560 39635" /> 
<path d="M65498 39238 L65560 39300" /> 
<path d="M65223 39238 L65498 39238" /> 
<path d="M65223 37283 L65223 39238" /> 
<path d="M65220 36873 L65223 37283" /> 
<path d="M65070 36511 L65220 36873" /> 
<path d="M64926 36425 L65070 36511" /> 
<path d="M64855 36496 L64926 36425" /> 
<path d="M64855 36354 L64855 36496" /> 
<path d="M64769 36210 L64855 36354" /> 
<path d="M64389 36057 L64769 36210" /> 
<path d="M63979 36060 L64389 36057" /> 
<path d="M63617 36210 L63979 36060" /> 
<path d="M63531 36354 L63617 36210" /> 
<path d="M64193 37016 L63531 36354" /> 
<path d="M64855 36354 L64193 37016" /> 
<path d="M64855 36496 L64855 36354" /> 
<path d="M64264 37087 L64855 36496" /> 
<path d="M64926 37749 L64264 37087" /> 
<path d="M65070 37663 L64926 37749" /> 
<path d="M65223 37283 L65070 37663" /> 
<path d="M65223 39238 L65223 37283" /> 
<path d="M64872 39239 L65223 39238" /> 
<path d="M64855 39239 L64872 39239" /> 
<path d="M64855 37820 L64855 39239" /> 
<path d="M64193 37158 L64855 37820" /> 
<path d="M64122 37229 L64193 37158" /> 
<path d="M64122 37087 L64122 37229" /> 
<path d="M63460 36425 L64122 37087" /> 
<path d="M63316 36511 L63460 36425" /> 
<path d="M63163 36891 L63316 36511" /> 
<path d="M63166 37301 L63163 36891" /> 
<path d="M63316 37663 L63166 37301" /> 
<path d="M63460 37749 L63316 37663" /> 
<path d="M64122 37087 L63460 37749" /> 
<path d="M64122 37229 L64122 37087" /> 
<path d="M63531 37820 L64122 37229" /> 
<path d="M63617 37964 L63531 37820" /> 
<path d="M63997 38117 L63617 37964" /> 
<path d="M64407 38114 L63997 38117" /> 
<path d="M64769 37964 L64407 38114" /> 
<path d="M64855 37820 L64769 37964" /> 
<path d="M64855 39239 L64855 37820" /> 
<path d="M64773 39239 L64855 39239" /> 
<path d="M64682 39277 L64773 39239" /> 
<path d="M64612 39347 L64682 39277" /> 
<path d="M64574 39439 L64612 39347" /> 
<path d="M64573 39573 L64574 39439" /> 
<path d="M64635 39635 L64573 39573" /> 
<path d="M65560 39635 L64635 39635" /> 
<path d="M65560 39735 L65560 39635" /> 
<path d="M64635 39735 L65560 39735" /> 
<path d="M64573 39797 L64635 39735" /> 
<path d="M64573 39895 L64573 39797" /> 
<path d="M63981 39895 L64573 39895" /> 
<path d="M63407 39320 L63981 39895" /> 
<path d="M62636 39320 L63407 39320" /> 
<path d="M62636 37965 L62636 39320" /> 
<path d="M62625 37730 L62636 37965" /> 
<path d="M62556 37564 L62625 37730" /> 
<path d="M62457 37531 L62556 37564" /> 
<path d="M62386 37602 L62457 37531" /> 
<path d="M62114 37874 L62386 37602" /> 
<path d="M62457 38217 L62114 37874" /> 
<path d="M62556 38184 L62457 38217" /> 
<path d="M62636 37965 L62556 38184" /> 
<path d="M62636 39320 L62636 37965" /> 
<path d="M61934 39320 L62636 39320" /> 
<path d="M61872 39258 L61934 39320" /> 
<path d="M61781 39220 L61872 39258" /> 
<path d="M61682 39220 L61781 39220" /> 
<path d="M61664 39220 L61682 39220" /> 
<path d="M61664 39202 L61664 39220" /> 
<path d="M61668 39206 L61664 39202" /> 
<path d="M61780 39205 L61668 39206" /> 
<path d="M61872 39167 L61780 39205" /> 
<path d="M61942 39097 L61872 39167" /> 
<path d="M61980 39006 L61942 39097" /> 
<path d="M61980 38907 L61980 39006" /> 
<path d="M61981 38793 L61980 38907" /> 
<path d="M61919 38731 L61981 38793" /> 
<path d="M61664 38731 L61919 38731" /> 
<path d="M61664 38631 L61664 38731" /> 
<path d="M61919 38631 L61664 38631" /> 
<path d="M61981 38569 L61919 38631" /> 
<path d="M61980 38465 L61981 38569" /> 
<path d="M62187 38456 L61980 38465" /> 
<path d="M62353 38387 L62187 38456" /> 
<path d="M62386 38288 L62353 38387" /> 
<path d="M62078 37980 L62386 38288" /> 
<path d="M62043 37945 L62078 37980" /> 
<path d="M61972 37874 L62043 37945" /> 
<path d="M62043 37803 L61972 37874" /> 
<path d="M62078 37768 L62043 37803" /> 
<path d="M62386 37460 L62078 37768" /> 
<path d="M62353 37361 L62386 37460" /> 
<path d="M62134 37281 L62353 37361" /> 
<path d="M61899 37292 L62134 37281" /> 
<path d="M61733 37361 L61899 37292" /> 
<path d="M61717 37407 L61733 37361" /> 
<path d="M61682 37372 L61717 37407" /> 
<path d="M61664 37390 L61682 37372" /> 
<path d="M61664 35758 L61664 37390" /> 
<path d="M71329 35758 L61664 35758" /> 
<path d="M71329 45738 L71329 35758" /> 
</g>
<g style="fill:#000000; fill-opacity:1.0; 
  stroke:#000000; stroke-linecap:round; stroke-linejoin:round; stroke-opacity:1.0; stroke-opacity:1.0; stroke-width:0" 
   transform="translate(0 0) scale(1 1)">
<polygon style="fill-rule:evenodd; " 
points="61998,43875
62151,43906
62305,43875
62334,43855
62426,43855
62518,43817
62588,43747
62626,43656
62626,43565
63281,44220
63284,44224
63413,44310
63414,44311
63567,44341
63897,44341
63904,44357
63974,44427
64065,44465
64164,44465
64714,44465
64806,44427
64876,44357
64882,44341
65803,44341
66174,44712
66303,44799
66304,44799
66457,44829
66829,44829
66894,44894
67096,44978
67314,44978
67516,44894
67670,44740
67754,44538
67754,44320
67670,44118
67516,43964
67314,43880
67096,43880
66894,43964
66829,44029
66623,44029
66252,43658
66122,43571
65969,43541
64969,43541
64969,42825
64969,42412
64969,42312
64969,41899
64907,41837
64795,41838
64703,41876
64680,41899
64680,41302
64390,41012
64100,41302
64123,41393
64316,41460
64520,41449
64657,41393
64680,41302
64680,41899
64633,41946
64595,42037
64595,42136
64594,42250
64656,42312
64969,42312
64969,42412
64656,42412
64594,42474
64595,42588
64595,42687
64633,42778
64703,42848
64795,42886
64907,42887
64969,42825
64969,43541
64882,43541
64876,43525
64806,43455
64715,43417
64616,43417
64066,43417
63974,43455
63904,43525
63897,43541
63732,43541
63352,43161
63710,43161
63802,43123
63872,43053
63910,42962
63910,42863
63910,42513
63872,42421
63813,42362
63872,42303
63910,42211
63911,42099
63911,41875
63910,41763
63872,41671
63802,41601
63711,41563
63612,41563
63498,41562
63436,41624
63436,41937
63849,41937
63911,41875
63911,42099
63849,42037
63486,42037
63436,42037
63336,42037
63336,41937
63336,41624
63274,41562
63160,41563
63061,41563
62970,41601
62900,41671
62862,41763
62861,41875
62923,41937
63336,41937
63336,42037
63286,42037
62923,42037
62861,42099
62861,42106
62627,42106
62627,41894
62626,41857
62588,41765
62518,41695
62427,41657
62328,41657
62264,41656
62202,41718
62202,41956
62565,41956
62627,41894
62627,42106
62615,42106
62565,42056
62252,42056
62202,42056
62102,42056
62102,41956
62102,41718
62040,41656
61976,41657
61877,41657
61786,41695
61716,41765
61678,41857
61677,41894
61739,41956
62102,41956
62102,42056
62052,42056
61739,42056
61677,42118
61678,42155
61716,42247
61725,42256
61716,42265
61678,42356
61678,42455
61678,42655
61716,42747
61725,42756
61716,42765
61678,42856
61678,42955
61678,43065
61664,43065
61664,41230
61668,41234
61780,41233
61872,41195
61942,41125
61980,41034
61980,40935
61981,40821
61919,40759
61664,40759
61664,40659
61919,40659
61981,40597
61980,40483
61980,40404
63165,40404
63339,40578
63468,40665
63469,40665
63622,40695
63930,40695
63871,40867
63882,41071
63938,41208
64029,41231
64284,40976
64319,40941
64390,40870
64461,40941
64496,40976
64751,41231
64842,41208
64909,41015
64901,40880
65107,41086
65107,41861
65069,41899
65069,42262
65069,42312
65069,42412
65069,42462
65069,42825
65107,42863
65107,42963
66982,42963
67096,43010
67314,43010
67427,42963
67738,42963
70719,39982
70719,39427
70969,39178
71129,38793
71129,38375
70969,37989
70674,37693
70289,37533
69871,37533
69485,37693
69189,37988
69029,38373
69029,38791
69084,38926
66879,38926
66879,40698
66647,40698
66647,39797
66647,39573
66646,39439
66608,39347
66538,39277
66447,39239
66348,39239
65722,39238
65660,39300
65660,39635
66585,39635
66647,39573
66647,39797
66585,39735
65660,39735
65660,40070
65722,40132
66348,40131
66447,40131
66538,40093
66608,40023
66646,39931
66647,39797
66647,40698
66163,40698
65547,40082
65560,40070
65560,39735
65560,39635
65560,39300
65498,39238
65223,39238
65223,37283
65220,36873
65070,36511
64926,36425
64855,36496
64855,36354
64769,36210
64389,36057
63979,36060
63617,36210
63531,36354
64193,37016
64855,36354
64855,36496
64264,37087
64926,37749
65070,37663
65223,37283
65223,39238
64872,39239
64855,39239
64855,37820
64193,37158
64122,37229
64122,37087
63460,36425
63316,36511
63163,36891
63166,37301
63316,37663
63460,37749
64122,37087
64122,37229
63531,37820
63617,37964
63997,38117
64407,38114
64769,37964
64855,37820
64855,39239
64773,39239
64682,39277
64612,39347
64574,39439
64573,39573
64635,39635
65560,39635
65560,39735
64635,39735
64573,39797
64573,39895
63981,39895
63407,39320
62636,39320
62636,37965
62625,37730
62556,37564
62457,37531
62386,37602
62114,37874
62457,38217
62556,38184
62636,37965
62636,39320
61934,39320
61872,39258
61781,39220
61682,39220
61664,39220
61664,39202
61668,39206
61780,39205
61872,39167
61942,39097
61980,39006
61980,38907
61981,38793
61919,38731
61664,38731
61664,38631
61919,38631
61981,38569
61980,38465
62187,38456
62353,38387
62386,38288
62078,37980
62043,37945
61972,37874
62043,37803
62078,37768
62386,37460
62353,37361
62134,37281
61899,37292
61733,37361
61717,37407
61682,37372
61664,37390
61664,35758
71329,35758
71329,45738
71329,45738
61664,45738
61664,43865
61983,43865
" /> 
</g>
<g style="fill:#000000; fill-opacity:1.0; 
  stroke:#000000; stroke-linecap:round; stroke-linejoin:round; stroke-opacity:1.0; stroke-opacity:1.0; stroke-width:100" 
   transform="translate(0 0) scale(1 1)">
<path d="M70226 39940 L70226 39940" /> 
<path d="M69403 40762 L70226 39940" /> 
<path d="M69403 39797 L69403 40762" /> 
<path d="M69341 39735 L69403 39797" /> 
<path d="M68416 39735 L69341 39735" /> 
<path d="M68416 40070 L68416 39735" /> 
<path d="M68478 40132 L68416 40070" /> 
<path d="M69104 40131 L68478 40132" /> 
<path d="M69203 40131 L69104 40131" /> 
<path d="M69294 40093 L69203 40131" /> 
<path d="M69364 40023 L69294 40093" /> 
<path d="M69402 39931 L69364 40023" /> 
<path d="M69403 39797 L69402 39931" /> 
<path d="M69403 40762 L69403 39797" /> 
<path d="M67742 42423 L69403 40762" /> 
<path d="M67737 42327 L67742 42423" /> 
<path d="M67677 42180 L67737 42327" /> 
<path d="M67583 42153 L67677 42180" /> 
<path d="M67513 42223 L67583 42153" /> 
<path d="M67513 42083 L67513 42223" /> 
<path d="M67486 41989 L67513 42083" /> 
<path d="M67284 41918 L67486 41989" /> 
<path d="M67071 41929 L67284 41918" /> 
<path d="M66924 41989 L67071 41929" /> 
<path d="M66897 42083 L66924 41989" /> 
<path d="M67205 42390 L66897 42083" /> 
<path d="M67513 42083 L67205 42390" /> 
<path d="M67513 42223 L67513 42083" /> 
<path d="M67276 42461 L67513 42223" /> 
<path d="M67267 42470 L67276 42461" /> 
<path d="M67143 42470 L67267 42470" /> 
<path d="M67134 42461 L67143 42470" /> 
<path d="M67099 42426 L67134 42461" /> 
<path d="M66827 42153 L67099 42426" /> 
<path d="M66733 42180 L66827 42153" /> 
<path d="M66662 42382 L66733 42180" /> 
<path d="M66666 42470 L66662 42382" /> 
<path d="M66194 42470 L66666 42470" /> 
<path d="M66194 42250 L66194 42470" /> 
<path d="M66193 42136 L66194 42250" /> 
<path d="M66193 42037 L66193 42136" /> 
<path d="M66155 41946 L66193 42037" /> 
<path d="M66085 41876 L66155 41946" /> 
<path d="M65993 41838 L66085 41876" /> 
<path d="M65881 41837 L65993 41838" /> 
<path d="M65819 41899 L65881 41837" /> 
<path d="M65819 42312 L65819 41899" /> 
<path d="M66132 42312 L65819 42312" /> 
<path d="M66194 42250 L66132 42312" /> 
<path d="M66194 42470 L66194 42250" /> 
<path d="M66190 42470 L66194 42470" /> 
<path d="M66132 42412 L66190 42470" /> 
<path d="M65869 42412 L66132 42412" /> 
<path d="M65819 42412 L65869 42412" /> 
<path d="M65719 42412 L65819 42412" /> 
<path d="M65719 42312 L65719 42412" /> 
<path d="M65719 42262 L65719 42312" /> 
<path d="M65719 41899 L65719 42262" /> 
<path d="M65657 41837 L65719 41899" /> 
<path d="M65601 41837 L65657 41837" /> 
<path d="M65601 40672 L65601 41837" /> 
<path d="M66121 41192 L65601 40672" /> 
<path d="M67373 41192 L66121 41192" /> 
<path d="M67373 40028 L67373 41192" /> 
<path d="M67438 40093 L67373 40028" /> 
<path d="M67529 40131 L67438 40093" /> 
<path d="M67628 40131 L67529 40131" /> 
<path d="M68254 40132 L67628 40131" /> 
<path d="M68316 40070 L68254 40132" /> 
<path d="M68316 39785 L68316 40070" /> 
<path d="M68316 39735 L68316 39785" /> 
<path d="M68316 39635 L68316 39735" /> 
<path d="M68416 39635 L68316 39635" /> 
<path d="M68466 39635 L68416 39635" /> 
<path d="M69341 39635 L68466 39635" /> 
<path d="M69403 39573 L69341 39635" /> 
<path d="M69402 39439 L69403 39573" /> 
<path d="M69394 39420 L69402 39439" /> 
<path d="M69479 39420 L69394 39420" /> 
<path d="M69503 39460 L69479 39420" /> 
<path d="M69883 39613 L69503 39460" /> 
<path d="M70226 39610 L69883 39613" /> 
<path d="M70226 39940 L70226 39610" /> 
</g>
<g style="fill:#000000; fill-opacity:1.0; 
  stroke:#000000; stroke-linecap:round; stroke-linejoin:round; stroke-opacity:1.0; stroke-opacity:1.0; stroke-width:0" 
   transform="translate(0 0) scale(1 1)">
<polygon style="fill-rule:evenodd; " 
points="68416,39735
68416,40070
68478,40132
69104,40131
69203,40131
69294,40093
69364,40023
69402,39931
69403,39797
69403,40762
67742,42423
67737,42327
67677,42180
67583,42153
67513,42223
67513,42083
67486,41989
67284,41918
67071,41929
66924,41989
66897,42083
67205,42390
67513,42083
67513,42223
67276,42461
67267,42470
67143,42470
67134,42461
67099,42426
66827,42153
66733,42180
66662,42382
66666,42470
66194,42470
66194,42250
66193,42136
66193,42037
66155,41946
66085,41876
65993,41838
65881,41837
65819,41899
65819,42312
66132,42312
66194,42250
66194,42470
66190,42470
66132,42412
65869,42412
65819,42412
65719,42412
65719,42312
65719,42262
65719,41899
65657,41837
65601,41837
65601,40672
66121,41192
67373,41192
67373,40028
67438,40093
67529,40131
67628,40131
68254,40132
68316,40070
68316,39785
68316,39735
68316,39635
68416,39635
68466,39635
69341,39635
69403,39573
69402,39439
69394,39420
69479,39420
69503,39460
69883,39613
70226,39610
70226,39940
70226,39940
69403,40762
69403,39797
69341,39735
" /> 
<ellipse cx="67205" cy="44429" rx="300" ry="300"  /> 
</g>
<g style="fill:#FFFFFF; fill-opacity:1.0; 
  stroke:#808000; stroke-linecap:round; stroke-linejoin:round; stroke-opacity:1.0; stroke-opacity:1.0; stroke-width:0" 
   transform="translate(0 0) scale(1 1)">
<ellipse cx="67205" cy="44429" rx="160" ry="160"  /> 
</g>
<g style="fill:#000000; fill-opacity:1.0; 
  stroke:#000000; stroke-linecap:round; stroke-linejoin:round; stroke-opacity:1.0; stroke-opacity:1.0; stroke-width:0" 
   transform="translate(0 0) scale(1 1)">
<ellipse cx="67205" cy="42461" rx="300" ry="300"  /> 
</g>
<g style="fill:#FFFFFF; fill-opacity:1.0; 
  stroke:#808000; stroke-linecap:round; stroke-linejoin:round; stroke-opacity:1.0; stroke-opacity:1.0; stroke-width:0" 
   transform="translate(0 0) scale(1 1)">
<ellipse cx="67205" cy="42461" rx="160" ry="160"  /> 
</g>
<g style="fill:#000000; fill-opacity:1.0; 
  stroke:#000000; stroke-linecap:round; stroke-linejoin:round; stroke-opacity:1.0; stroke-opacity:1.0; stroke-width:0" 
   transform="translate(0 0) scale(1 1)">
<polygon style="fill-rule:evenodd; " 
points="60631,38956
60631,38406
60981,38406
60981,38956
" /> 
<polygon style="fill-rule:evenodd; " 
points="61381,38956
61381,38406
61731,38406
61731,38956
" /> 
<ellipse cx="57264" cy="37795" rx="800" ry="800"  /> 
</g>
<g style="fill:#FFFFFF; fill-opacity:1.0; 
  stroke:#808000; stroke-linecap:round; stroke-linejoin:round; stroke-opacity:1.0; stroke-opacity:1.0; stroke-width:0" 
   transform="translate(0 0) scale(1 1)">
<ellipse cx="57264" cy="37795" rx="600" ry="600"  /> 
</g>
<g style="fill:#000000; fill-opacity:1.0; 
  stroke:#000000; stroke-linecap:round; stroke-linejoin:round; stroke-opacity:1.0; stroke-opacity:1.0; stroke-width:0" 
   transform="translate(0 0) scale(1 1)">
<ellipse cx="64193" cy="37087" rx="800" ry="800"  /> 
</g>
<g style="fill:#FFFFFF; fill-opacity:1.0; 
  stroke:#808000; stroke-linecap:round; stroke-linejoin:round; stroke-opacity:1.0; stroke-opacity:1.0; stroke-width:0" 
   transform="translate(0 0) scale(1 1)">
<ellipse cx="64193" cy="37087" rx="600" ry="600"  /> 
</g>
<g style="fill:#000000; fill-opacity:1.0; 
  stroke:#000000; stroke-linecap:round; stroke-linejoin:round; stroke-opacity:1.0; stroke-opacity:1.0; stroke-width:0" 
   transform="translate(0 0) scale(1 1)">
<ellipse cx="70079" cy="38583" rx="800" ry="800"  /> 
</g>
<g style="fill:#FFFFFF; fill-opacity:1.0; 
  stroke:#808000; stroke-linecap:round; stroke-linejoin:round; stroke-opacity:1.0; stroke-opacity:1.0; stroke-width:0" 
   transform="translate(0 0) scale(1 1)">
<ellipse cx="70079" cy="38583" rx="600" ry="600"  /> 
</g>
<g style="fill:#000000; fill-opacity:1.0; 
  stroke:#000000; stroke-linecap:round; stroke-linejoin:round; stroke-opacity:1.0; stroke-opacity:1.0; stroke-width:0" 
   transform="translate(0 0) scale(1 1)">
<polygon style="fill-rule:evenodd; " 
points="63661,42912
63111,42912
63111,42562
63661,42562
" /> 
<polygon style="fill-rule:evenodd; " 
points="63661,42162
63111,42162
63111,41812
63661,41812
" /> 
<polygon style="fill-rule:evenodd; " 
points="65944,42087
65944,42637
65594,42637
65594,42087
" /> 
<polygon style="fill-rule:evenodd; " 
points="65194,42087
65194,42637
64844,42637
64844,42087
" /> 
<polygon style="fill-rule:evenodd; " 
points="57401,42245
57401,42795
57051,42795
57051,42245
" /> 
<polygon style="fill-rule:evenodd; " 
points="56651,42245
56651,42795
56301,42795
56301,42245
" /> 
<polygon style="fill-rule:evenodd; " 
points="57401,40512
57401,41062
57051,41062
57051,40512
" /> 
<polygon style="fill-rule:evenodd; " 
points="56651,40512
56651,41062
56301,41062
56301,40512
" /> 
<polygon style="fill-rule:evenodd; " 
points="58091,44411
58641,44411
58641,44761
58091,44761
" /> 
<polygon style="fill-rule:evenodd; " 
points="58091,45161
58641,45161
58641,45511
58091,45511
" /> 
<polygon style="fill-rule:evenodd; " 
points="58957,44411
59507,44411
59507,44761
58957,44761
" /> 
<polygon style="fill-rule:evenodd; " 
points="58957,45161
59507,45161
59507,45511
58957,45511
" /> 
<polygon style="fill-rule:evenodd; " 
points="57401,44843
57401,45393
57051,45393
57051,44843
" /> 
<polygon style="fill-rule:evenodd; " 
points="56651,44843
56651,45393
56301,45393
56301,44843
" /> 
<polygon style="fill-rule:evenodd; " 
points="57401,43977
57401,44527
57051,44527
57051,43977
" /> 
<polygon style="fill-rule:evenodd; " 
points="56651,43977
56651,44527
56301,44527
56301,43977
" /> 
<polygon style="fill-rule:evenodd; " 
points="57401,43111
57401,43661
57051,43661
57051,43111
" /> 
<polygon style="fill-rule:evenodd; " 
points="56651,43111
56651,43661
56301,43661
56301,43111
" /> 
<polygon style="fill-rule:evenodd; " 
points="59823,44411
60373,44411
60373,44761
59823,44761
" /> 
<polygon style="fill-rule:evenodd; " 
points="59823,45161
60373,45161
60373,45511
59823,45511
" /> 
<polygon style="fill-rule:evenodd; " 
points="57401,41379
57401,41929
57051,41929
57051,41379
" /> 
<polygon style="fill-rule:evenodd; " 
points="56651,41379
56651,41929
56301,41929
56301,41379
" /> 
<polygon style="fill-rule:evenodd; " 
points="60690,44411
61240,44411
61240,44761
60690,44761
" /> 
<polygon style="fill-rule:evenodd; " 
points="60690,45161
61240,45161
61240,45511
60690,45511
" /> 
<polygon style="fill-rule:evenodd; " 
points="60631,40984
60631,40434
60981,40434
60981,40984
" /> 
<polygon style="fill-rule:evenodd; " 
points="61381,40984
61381,40434
61731,40434
61731,40984
" /> 
<polygon style="fill-rule:evenodd; " 
points="61731,39469
61731,40019
61381,40019
61381,39469
" /> 
<polygon style="fill-rule:evenodd; " 
points="60981,39469
60981,40019
60631,40019
60631,39469
" /> 
<polygon style="fill-rule:evenodd; " 
points="60277,43606
59827,43606
59827,43406
60277,43406
" /> 
<polygon style="fill-rule:evenodd; " 
points="62377,43606
61927,43606
61927,43406
62377,43406
" /> 
<polygon style="fill-rule:evenodd; " 
points="60277,43106
59827,43106
59827,42906
60277,42906
" /> 
<polygon style="fill-rule:evenodd; " 
points="60277,42606
59827,42606
59827,42406
60277,42406
" /> 
<polygon style="fill-rule:evenodd; " 
points="60277,42106
59827,42106
59827,41906
60277,41906
" /> 
<polygon style="fill-rule:evenodd; " 
points="62377,43106
61927,43106
61927,42906
62377,42906
" /> 
<polygon style="fill-rule:evenodd; " 
points="62377,42606
61927,42606
61927,42406
62377,42406
" /> 
<polygon style="fill-rule:evenodd; " 
points="62377,42106
61927,42106
61927,41906
62377,41906
" /> 
<polygon style="fill-rule:evenodd; " 
points="59693,38224
59693,37524
60393,37524
60393,38224
" /> 
</g>
<g style="fill:#FFFFFF; fill-opacity:1.0; 
  stroke:#808000; stroke-linecap:round; stroke-linejoin:round; stroke-opacity:1.0; stroke-opacity:1.0; stroke-width:0" 
   transform="translate(0 0) scale(1 1)">
<ellipse cx="60043" cy="37874" rx="200" ry="200"  /> 
</g>
<g style="fill:#000000; fill-opacity:1.0; 
  stroke:#000000; stroke-linecap:round; stroke-linejoin:round; stroke-opacity:1.0; stroke-opacity:1.0; stroke-width:0" 
   transform="translate(0 0) scale(1 1)">
<ellipse cx="62043" cy="37874" rx="350" ry="350"  /> 
</g>
<g style="fill:#FFFFFF; fill-opacity:1.0; 
  stroke:#808000; stroke-linecap:round; stroke-linejoin:round; stroke-opacity:1.0; stroke-opacity:1.0; stroke-width:0" 
   transform="translate(0 0) scale(1 1)">
<ellipse cx="62043" cy="37874" rx="200" ry="200"  /> 
</g>
<g style="fill:#000000; fill-opacity:1.0; 
  stroke:#000000; stroke-linecap:round; stroke-linejoin:round; stroke-opacity:1.0; stroke-opacity:1.0; stroke-width:0" 
   transform="translate(0 0) scale(1 1)">
<polygon style="fill-rule:evenodd; " 
points="67579,39488
69153,39488
69153,39882
67579,39882
" /> 
<polygon style="fill-rule:evenodd; " 
points="64823,39488
66397,39488
66397,39882
64823,39882
" /> 
<polygon style="fill-rule:evenodd; " 
points="64115,43666
64665,43666
64665,44216
64115,44216
" /> 
</g>
<g style="fill:#FFFFFF; fill-opacity:1.0; 
  stroke:#808000; stroke-linecap:round; stroke-linejoin:round; stroke-opacity:1.0; stroke-opacity:1.0; stroke-width:0" 
   transform="translate(0 0) scale(1 1)">
<ellipse cx="64390" cy="43941" rx="160" ry="160"  /> 
</g>
<g style="fill:#000000; fill-opacity:1.0; 
  stroke:#000000; stroke-linecap:round; stroke-linejoin:round; stroke-opacity:1.0; stroke-opacity:1.0; stroke-width:0" 
   transform="translate(0 0) scale(1 1)">
<ellipse cx="64390" cy="40941" rx="275" ry="275"  /> 
</g>
<g style="fill:#FFFFFF; fill-opacity:1.0; 
  stroke:#808000; stroke-linecap:round; stroke-linejoin:round; stroke-opacity:1.0; stroke-opacity:1.0; stroke-width:0" 
   transform="translate(0 0) scale(1 1)">
<ellipse cx="64390" cy="40941" rx="160" ry="160"  /> 
</g> 
</svg> 
