G04 (created by PCBNEW-RS274X (2011-07-08 BZR 3044)-stable) date Wed 10 Aug 2011 06:33:40 PM MSD*
G01*
G70*
G90*
%MOIN*%
G04 Gerber Fmt 3.4, Leading zero omitted, Abs format*
%FSLAX34Y34*%
G04 APERTURE LIST*
%ADD10C,0.006000*%
%ADD11C,0.015000*%
%ADD12R,0.060000X0.016000*%
%ADD13R,0.016000X0.060000*%
%ADD14R,0.078700X0.017700*%
%ADD15R,0.017700X0.078700*%
%ADD16R,0.036000X0.036000*%
%ADD17R,0.020000X0.050000*%
%ADD18R,0.055000X0.035000*%
%ADD19R,0.035000X0.055000*%
%ADD20C,0.045000*%
%ADD21R,0.060000X0.060000*%
%ADD22C,0.060000*%
%ADD23R,0.055000X0.055000*%
%ADD24C,0.055000*%
%ADD25R,0.059100X0.059100*%
%ADD26C,0.118100*%
%ADD27C,0.051200*%
%ADD28C,0.019700*%
%ADD29C,0.010000*%
G04 APERTURE END LIST*
G54D10*
G54D11*
X00000Y00000D02*
X36418Y00000D01*
X00000Y-16535D02*
X00000Y00000D01*
X36418Y-16535D02*
X00000Y-16535D01*
X36418Y00000D02*
X36418Y-16535D01*
G54D12*
X12160Y-08976D03*
X12160Y-09291D03*
X12160Y-09606D03*
X12160Y-09921D03*
X12160Y-10236D03*
X12160Y-10551D03*
X12160Y-08661D03*
X12160Y-08346D03*
X12160Y-08031D03*
X12160Y-07716D03*
X12160Y-07401D03*
X16660Y-08976D03*
X16660Y-09291D03*
X16660Y-09606D03*
X16660Y-09921D03*
X16660Y-10236D03*
X16660Y-10551D03*
X16660Y-08661D03*
X16660Y-08346D03*
X16660Y-08031D03*
X16660Y-07716D03*
X16660Y-07401D03*
G54D13*
X14410Y-11226D03*
X14410Y-06726D03*
X14725Y-11226D03*
X14725Y-06726D03*
X15040Y-06726D03*
X15040Y-11226D03*
X15355Y-11226D03*
X15355Y-06726D03*
X15670Y-06726D03*
X15670Y-11226D03*
X15985Y-11226D03*
X15985Y-06726D03*
X14095Y-06726D03*
X14095Y-11226D03*
X13780Y-11226D03*
X13780Y-06726D03*
X13465Y-06726D03*
X13465Y-11226D03*
X13150Y-11226D03*
X13150Y-06726D03*
X12835Y-06726D03*
X12835Y-11226D03*
G54D14*
X26621Y-07848D03*
X26621Y-08163D03*
X26621Y-08478D03*
X26621Y-08793D03*
X26621Y-09108D03*
X26621Y-09423D03*
X26621Y-09738D03*
X26621Y-10053D03*
X22855Y-10051D03*
X22855Y-07841D03*
X22855Y-08161D03*
X22855Y-08481D03*
X22855Y-08791D03*
X22855Y-09111D03*
X22855Y-09421D03*
X22855Y-09741D03*
G54D15*
X25837Y-10841D03*
X25523Y-10841D03*
X25207Y-10841D03*
X24893Y-10841D03*
X24577Y-10841D03*
X24263Y-10841D03*
X23947Y-10841D03*
X23633Y-10841D03*
X25835Y-07061D03*
X25525Y-07061D03*
X25205Y-07061D03*
X24895Y-07061D03*
X24585Y-07061D03*
X24265Y-07061D03*
X23945Y-07061D03*
X23625Y-07061D03*
G54D16*
X13045Y-02318D03*
X13045Y-01618D03*
X13845Y-01968D03*
X22061Y-01826D03*
X22061Y-01126D03*
X22861Y-01476D03*
X26962Y-01826D03*
X26962Y-01126D03*
X27762Y-01476D03*
X09089Y-02692D03*
X09089Y-01992D03*
X09889Y-02342D03*
X18104Y-02318D03*
X18104Y-01618D03*
X18904Y-01968D03*
G54D17*
X03676Y-10896D03*
X04176Y-10896D03*
X04676Y-10896D03*
X05176Y-10896D03*
X05676Y-10896D03*
X06176Y-10896D03*
X06676Y-10896D03*
X07176Y-10896D03*
X07676Y-10896D03*
X08176Y-10896D03*
X08176Y-07096D03*
X07676Y-07096D03*
X07176Y-07096D03*
X06676Y-07096D03*
X06176Y-07096D03*
X05676Y-07096D03*
X05176Y-07096D03*
X04676Y-07096D03*
X04176Y-07096D03*
X03676Y-07096D03*
G54D18*
X17185Y-01593D03*
X17185Y-02343D03*
X08091Y-01967D03*
X08091Y-02717D03*
X25965Y-01101D03*
X25965Y-01851D03*
X16201Y-01593D03*
X16201Y-02343D03*
X24567Y-13524D03*
X24567Y-12774D03*
X13780Y-13741D03*
X13780Y-12991D03*
X26693Y-12774D03*
X26693Y-13524D03*
X25591Y-12144D03*
X25591Y-12894D03*
X23544Y-12144D03*
X23544Y-12894D03*
X33175Y-06266D03*
X33175Y-05516D03*
G54D19*
X29700Y-10041D03*
X28950Y-10041D03*
X29700Y-10941D03*
X28950Y-10941D03*
G54D18*
X07067Y-01967D03*
X07067Y-02717D03*
X25040Y-01101D03*
X25040Y-01851D03*
G54D19*
X18899Y-03425D03*
X18149Y-03425D03*
G54D18*
X27855Y-03426D03*
X27855Y-02676D03*
X12126Y-01593D03*
X12126Y-02343D03*
X21024Y-01101D03*
X21024Y-01851D03*
X28819Y-01101D03*
X28819Y-01851D03*
G54D19*
X11123Y-01417D03*
X10373Y-01417D03*
X19982Y-01004D03*
X19232Y-01004D03*
X09844Y-03661D03*
X09094Y-03661D03*
X28722Y-06102D03*
X27972Y-06102D03*
X12027Y-14960D03*
X12777Y-14960D03*
X17698Y-14960D03*
X16948Y-14960D03*
X30100Y-07480D03*
X29350Y-07480D03*
G54D18*
X28681Y-02676D03*
X28681Y-03426D03*
G54D19*
X28550Y-08691D03*
X27800Y-08691D03*
X21399Y-09134D03*
X20649Y-09134D03*
X17795Y-08661D03*
X18545Y-08661D03*
G54D18*
X14725Y-05631D03*
X14725Y-04881D03*
G54D19*
X11005Y-08976D03*
X10255Y-08976D03*
G54D20*
X01201Y-13149D03*
X01241Y-03582D03*
X02088Y-08444D03*
X02088Y-07440D03*
X02088Y-10669D03*
X02088Y-09645D03*
X14784Y-01968D03*
X23701Y-01476D03*
X32087Y-01476D03*
G54D21*
X20768Y-04311D03*
G54D22*
X21768Y-04311D03*
X22768Y-04311D03*
X23768Y-04311D03*
X24768Y-04311D03*
X25768Y-04311D03*
G54D16*
X29916Y-01826D03*
X29916Y-01126D03*
X30716Y-01476D03*
G54D23*
X26749Y-02696D03*
G54D24*
X29749Y-02696D03*
G54D23*
X31296Y-02696D03*
G54D24*
X34296Y-02696D03*
G54D25*
X34350Y-11591D03*
X34350Y-10591D03*
X34350Y-09791D03*
X34350Y-08791D03*
G54D26*
X35400Y-07591D03*
X35400Y-12991D03*
G54D21*
X10493Y-15039D03*
G54D22*
X09493Y-15039D03*
X08493Y-15039D03*
X07493Y-15039D03*
X06493Y-15039D03*
X05493Y-15039D03*
G54D19*
X31175Y-05091D03*
X31925Y-05091D03*
G54D27*
X32481Y-09350D03*
X32481Y-10728D03*
X31103Y-08169D03*
X31103Y-09547D03*
G54D24*
X28266Y-07596D03*
X26852Y-06182D03*
X13862Y-14980D03*
X15862Y-14980D03*
G54D26*
X21654Y-06122D03*
X22815Y-14153D03*
X22619Y-11200D03*
X12579Y-04370D03*
X05552Y-12421D03*
X05099Y-05511D03*
X17146Y-03307D03*
X18485Y-07283D03*
X34475Y-04541D03*
X19449Y-10118D03*
X24567Y-14724D03*
X02953Y-05885D03*
X02304Y-02342D03*
X11044Y-02972D03*
X30473Y-03504D03*
X20000Y-02362D03*
G54D28*
X23544Y-11574D02*
X23544Y-12144D01*
X23633Y-11485D02*
X23544Y-11574D01*
X23633Y-10841D02*
X23633Y-11485D01*
X12854Y-12126D02*
X13150Y-11830D01*
X09114Y-12126D02*
X12854Y-12126D01*
X07493Y-13747D02*
X09114Y-12126D01*
X07493Y-15039D02*
X07493Y-13747D01*
X13150Y-11830D02*
X13150Y-11226D01*
X12835Y-11226D02*
X12835Y-11693D01*
X06493Y-13763D02*
X06493Y-15039D01*
X08465Y-11791D02*
X06493Y-13763D01*
X12737Y-11791D02*
X08465Y-11791D01*
X12835Y-11693D02*
X12737Y-11791D01*
X09493Y-14345D02*
X10847Y-12991D01*
X13780Y-11226D02*
X13780Y-12991D01*
X09493Y-15039D02*
X09493Y-14345D01*
X10847Y-12991D02*
X13780Y-12991D01*
X25591Y-14842D02*
X25591Y-14882D01*
X17653Y-13705D02*
X17653Y-13695D01*
X17658Y-13700D02*
X17653Y-13705D01*
X21141Y-13700D02*
X17658Y-13700D01*
X23012Y-15571D02*
X21141Y-13700D01*
X24902Y-15571D02*
X23012Y-15571D01*
X25591Y-14882D02*
X24902Y-15571D01*
X25591Y-12894D02*
X25591Y-14842D01*
X15655Y-11226D02*
X15670Y-11226D01*
X15655Y-11697D02*
X15655Y-11226D01*
X17653Y-13695D02*
X15655Y-11697D01*
X13189Y-12480D02*
X13465Y-12204D01*
X09941Y-12480D02*
X13189Y-12480D01*
X08493Y-13928D02*
X09941Y-12480D01*
X08493Y-15039D02*
X08493Y-13928D01*
X13465Y-12204D02*
X13465Y-11226D01*
X26693Y-14193D02*
X26693Y-14252D01*
X20964Y-14074D02*
X17598Y-14074D01*
X22795Y-15905D02*
X20964Y-14074D01*
X25040Y-15905D02*
X22795Y-15905D01*
X26693Y-14252D02*
X25040Y-15905D01*
X15355Y-11226D02*
X15355Y-11831D01*
X15355Y-11831D02*
X17598Y-14074D01*
X26693Y-14193D02*
X26693Y-13524D01*
X14725Y-11226D02*
X14725Y-12303D01*
X14291Y-14980D02*
X13862Y-14980D01*
X14430Y-14841D02*
X14291Y-14980D01*
X14430Y-14448D02*
X14430Y-14841D01*
X14922Y-13956D02*
X14430Y-14448D01*
X14922Y-12500D02*
X14922Y-13956D01*
X14725Y-12303D02*
X14922Y-12500D01*
X12777Y-14960D02*
X13842Y-14960D01*
X13842Y-14960D02*
X13862Y-14980D01*
X15040Y-11226D02*
X15040Y-12146D01*
X15670Y-14980D02*
X15862Y-14980D01*
X15296Y-14606D02*
X15670Y-14980D01*
X15296Y-12402D02*
X15296Y-14606D01*
X15040Y-12146D02*
X15296Y-12402D01*
X16948Y-14960D02*
X15882Y-14960D01*
X15882Y-14960D02*
X15862Y-14980D01*
X28950Y-10941D02*
X25937Y-10941D01*
X25937Y-10941D02*
X25837Y-10841D01*
X28188Y-10053D02*
X26621Y-10053D01*
X28200Y-10041D02*
X28188Y-10053D01*
X28950Y-10041D02*
X28200Y-10041D01*
X23768Y-05661D02*
X23625Y-05804D01*
X23768Y-04311D02*
X23768Y-05661D01*
X23625Y-05804D02*
X23625Y-07061D01*
X23957Y-07029D02*
X23925Y-07061D01*
X23957Y-06063D02*
X23957Y-07029D01*
X24768Y-05252D02*
X23957Y-06063D01*
X24768Y-04311D02*
X24768Y-05252D01*
X23925Y-07061D02*
X23945Y-07061D01*
X03189Y-11378D02*
X03583Y-11378D01*
X03583Y-11378D02*
X03676Y-11285D01*
X08176Y-07703D02*
X08176Y-08064D01*
X03676Y-11285D02*
X03676Y-10896D01*
X01871Y-11378D02*
X03189Y-11378D01*
X01437Y-10944D02*
X01871Y-11378D01*
X01437Y-09311D02*
X01437Y-10944D01*
X01693Y-09055D02*
X01437Y-09311D01*
X07185Y-09055D02*
X01693Y-09055D01*
X08176Y-08064D02*
X07185Y-09055D01*
X12160Y-08346D02*
X11575Y-08346D01*
X08176Y-07703D02*
X08176Y-07096D01*
X08622Y-08149D02*
X08176Y-07703D01*
X11378Y-08149D02*
X08622Y-08149D01*
X11575Y-08346D02*
X11378Y-08149D01*
X07176Y-07096D02*
X07176Y-07745D01*
X02089Y-08445D02*
X02088Y-08444D01*
X04488Y-08445D02*
X02089Y-08445D01*
X04922Y-08011D02*
X04488Y-08445D01*
X06910Y-08011D02*
X04922Y-08011D01*
X07176Y-07745D02*
X06910Y-08011D01*
X03130Y-07716D02*
X02854Y-07440D01*
X04450Y-07716D02*
X03130Y-07716D01*
X04676Y-07490D02*
X04450Y-07716D01*
X04676Y-07096D02*
X04676Y-07490D01*
X02854Y-07440D02*
X02088Y-07440D01*
X04676Y-10896D02*
X04676Y-10423D01*
X02894Y-10669D02*
X02088Y-10669D01*
X03347Y-10216D02*
X02894Y-10669D01*
X04469Y-10216D02*
X03347Y-10216D01*
X04676Y-10423D02*
X04469Y-10216D01*
X07176Y-10305D02*
X06831Y-09960D01*
X07176Y-10896D02*
X07176Y-10305D01*
X04725Y-09645D02*
X02088Y-09645D01*
X05040Y-09960D02*
X04725Y-09645D01*
X06831Y-09960D02*
X05040Y-09960D01*
X12160Y-08031D02*
X11693Y-08031D01*
X07676Y-06537D02*
X07676Y-07096D01*
X07934Y-06279D02*
X07676Y-06537D01*
X08445Y-06279D02*
X07934Y-06279D01*
X08839Y-06673D02*
X08445Y-06279D01*
X08839Y-07401D02*
X08839Y-06673D01*
X09272Y-07834D02*
X08839Y-07401D01*
X11496Y-07834D02*
X09272Y-07834D01*
X11693Y-08031D02*
X11496Y-07834D01*
X05335Y-03760D02*
X05335Y-04370D01*
X06398Y-05433D02*
X08130Y-05433D01*
X05335Y-04370D02*
X06398Y-05433D01*
X08810Y-06113D02*
X08130Y-05433D01*
X12160Y-07716D02*
X11811Y-07716D01*
X09193Y-06496D02*
X08810Y-06113D01*
X09193Y-07204D02*
X09193Y-06496D01*
X09508Y-07519D02*
X09193Y-07204D01*
X11614Y-07519D02*
X09508Y-07519D01*
X11811Y-07716D02*
X11614Y-07519D01*
X04176Y-06279D02*
X04176Y-04033D01*
X04176Y-04033D02*
X04449Y-03760D01*
X04449Y-03760D02*
X05335Y-03760D01*
X04176Y-06279D02*
X04176Y-07096D01*
X05729Y-03287D02*
X05729Y-04173D01*
X06595Y-05039D02*
X08308Y-05039D01*
X05729Y-04173D02*
X06595Y-05039D01*
X01103Y-06476D02*
X01103Y-05787D01*
X08780Y-05511D02*
X08780Y-05531D01*
X08308Y-05039D02*
X08780Y-05511D01*
X03603Y-03287D02*
X05729Y-03287D01*
X01103Y-05787D02*
X03603Y-03287D01*
X01103Y-06476D02*
X01103Y-07460D01*
X12160Y-07401D02*
X11929Y-07401D01*
X04176Y-11375D02*
X04176Y-10896D01*
X03839Y-11712D02*
X04176Y-11375D01*
X01713Y-11712D02*
X03839Y-11712D01*
X01103Y-11102D02*
X01713Y-11712D01*
X01103Y-07460D02*
X01103Y-11102D01*
X09567Y-06318D02*
X08780Y-05531D01*
X09567Y-07007D02*
X09567Y-06318D01*
X09764Y-07204D02*
X09567Y-07007D01*
X11732Y-07204D02*
X09764Y-07204D01*
X11929Y-07401D02*
X11732Y-07204D01*
X07676Y-11456D02*
X07676Y-11458D01*
X07676Y-11458D02*
X05827Y-13307D01*
X12067Y-06122D02*
X12324Y-06122D01*
X12835Y-06633D02*
X12835Y-06726D01*
X12324Y-06122D02*
X12835Y-06633D01*
X06063Y-02913D02*
X06063Y-04015D01*
X06733Y-04685D02*
X08485Y-04685D01*
X06063Y-04015D02*
X06733Y-04685D01*
X08977Y-05177D02*
X08485Y-04685D01*
X09922Y-06122D02*
X08977Y-05177D01*
X12067Y-06122D02*
X09922Y-06122D01*
X00748Y-05571D02*
X00748Y-06476D01*
X03406Y-02913D02*
X00748Y-05571D01*
X06063Y-02913D02*
X03406Y-02913D01*
X00748Y-06476D02*
X00748Y-07322D01*
X04961Y-13307D02*
X05827Y-13307D01*
X03721Y-12067D02*
X04961Y-13307D01*
X01576Y-12067D02*
X03721Y-12067D01*
X00748Y-11239D02*
X01576Y-12067D01*
X00748Y-07322D02*
X00748Y-11239D01*
X07676Y-11456D02*
X07676Y-10896D01*
X25434Y-11732D02*
X25434Y-11987D01*
X25207Y-11505D02*
X25434Y-11732D01*
X25207Y-10841D02*
X25207Y-11505D01*
X25434Y-11987D02*
X25591Y-12144D01*
X22768Y-04311D02*
X22768Y-06700D01*
X22855Y-07861D02*
X22855Y-07841D01*
X22828Y-07834D02*
X22855Y-07861D01*
X22164Y-07834D02*
X22828Y-07834D01*
X21988Y-07658D02*
X22164Y-07834D01*
X21988Y-07480D02*
X21988Y-07658D01*
X22768Y-06700D02*
X21988Y-07480D01*
X07067Y-03760D02*
X07107Y-03760D01*
X07107Y-03760D02*
X07677Y-04330D01*
X13150Y-06726D02*
X13150Y-05905D01*
X08622Y-04330D02*
X07677Y-04330D01*
X09705Y-05413D02*
X08622Y-04330D01*
X12658Y-05413D02*
X09705Y-05413D01*
X13150Y-05905D02*
X12658Y-05413D01*
X07067Y-03760D02*
X07067Y-02717D01*
X13465Y-06726D02*
X13465Y-04763D01*
X16201Y-02343D02*
X16201Y-02756D01*
X13465Y-04763D02*
X13465Y-04054D01*
X15965Y-02992D02*
X16201Y-02756D01*
X14665Y-02992D02*
X15965Y-02992D01*
X13996Y-03661D02*
X14665Y-02992D01*
X13858Y-03661D02*
X13996Y-03661D01*
X13465Y-04054D02*
X13858Y-03661D01*
X13780Y-05984D02*
X13780Y-04389D01*
X15768Y-03405D02*
X16615Y-04252D01*
X14764Y-03405D02*
X15768Y-03405D01*
X13780Y-04389D02*
X14764Y-03405D01*
X13780Y-06726D02*
X13780Y-05984D01*
X25040Y-01851D02*
X25040Y-02401D01*
X19468Y-04252D02*
X16615Y-04252D01*
X20177Y-03543D02*
X19468Y-04252D01*
X20473Y-03543D02*
X20177Y-03543D01*
X20611Y-03405D02*
X20473Y-03543D01*
X24036Y-03405D02*
X20611Y-03405D01*
X25040Y-02401D02*
X24036Y-03405D01*
X26378Y-11653D02*
X26693Y-11968D01*
X25827Y-11653D02*
X26378Y-11653D01*
X25523Y-11349D02*
X25827Y-11653D01*
X25523Y-10841D02*
X25523Y-11349D01*
X26693Y-11968D02*
X26693Y-12774D01*
X24567Y-12774D02*
X24470Y-12774D01*
X21768Y-06008D02*
X21768Y-04311D01*
X21654Y-06122D02*
X21768Y-06008D01*
X23407Y-14153D02*
X22815Y-14153D01*
X24016Y-13544D02*
X23407Y-14153D01*
X24016Y-13228D02*
X24016Y-13544D01*
X24470Y-12774D02*
X24016Y-13228D01*
X24893Y-10841D02*
X24893Y-11485D01*
X24567Y-11811D02*
X24567Y-12185D01*
X24567Y-12185D02*
X24567Y-12774D01*
X24893Y-11485D02*
X24567Y-11811D01*
X28266Y-07596D02*
X29234Y-07596D01*
X29234Y-07596D02*
X29350Y-07480D01*
X26621Y-08163D02*
X27297Y-08163D01*
X27988Y-07874D02*
X28266Y-07596D01*
X27586Y-07874D02*
X27988Y-07874D01*
X27297Y-08163D02*
X27586Y-07874D01*
X26852Y-06182D02*
X27892Y-06182D01*
X27892Y-06182D02*
X27972Y-06102D01*
X26621Y-07848D02*
X26995Y-07848D01*
X26852Y-06969D02*
X26852Y-06182D01*
X27166Y-07283D02*
X26852Y-06969D01*
X27166Y-07677D02*
X27166Y-07283D01*
X26995Y-07848D02*
X27166Y-07677D01*
X34350Y-11591D02*
X32937Y-11591D01*
X18583Y-16220D02*
X18209Y-15846D01*
X28308Y-16220D02*
X18583Y-16220D01*
X32937Y-11591D02*
X28308Y-16220D01*
X11240Y-15846D02*
X18209Y-15846D01*
X18209Y-15846D02*
X18248Y-15846D01*
X18248Y-15846D02*
X18485Y-15609D01*
X18485Y-15609D02*
X18485Y-15217D01*
X18485Y-15217D02*
X18228Y-14960D01*
X18228Y-14960D02*
X17698Y-14960D01*
X05493Y-15039D02*
X05493Y-15551D01*
X11378Y-15708D02*
X11378Y-14960D01*
X11240Y-15846D02*
X11378Y-15708D01*
X05788Y-15846D02*
X11240Y-15846D01*
X05493Y-15551D02*
X05788Y-15846D01*
X14410Y-11226D02*
X14410Y-12441D01*
X14410Y-12441D02*
X14607Y-12638D01*
X14607Y-12638D02*
X14607Y-13799D01*
X14607Y-13799D02*
X14253Y-14153D01*
X14253Y-14153D02*
X11733Y-14153D01*
X11733Y-14153D02*
X11319Y-14567D01*
X11319Y-14567D02*
X11319Y-14901D01*
X11319Y-14901D02*
X11378Y-14960D01*
X11378Y-14960D02*
X12027Y-14960D01*
X30118Y-06102D02*
X30118Y-05273D01*
X30118Y-05273D02*
X30300Y-05091D01*
X30709Y-07283D02*
X31201Y-07283D01*
X31201Y-07283D02*
X31595Y-07677D01*
X28550Y-08691D02*
X29498Y-08691D01*
X30709Y-07874D02*
X30709Y-07283D01*
X30316Y-08267D02*
X30709Y-07874D01*
X29922Y-08267D02*
X30316Y-08267D01*
X29498Y-08691D02*
X29922Y-08267D01*
X28722Y-06102D02*
X30118Y-06102D01*
X30118Y-06102D02*
X30709Y-06693D01*
X30709Y-06693D02*
X30709Y-07283D01*
X30512Y-07480D02*
X30100Y-07480D01*
X30709Y-07283D02*
X30512Y-07480D01*
X32481Y-09350D02*
X32481Y-08071D01*
X32481Y-08071D02*
X32087Y-07677D01*
X32087Y-07677D02*
X31595Y-07677D01*
X31595Y-07677D02*
X31103Y-08169D01*
X05676Y-11391D02*
X05676Y-10896D01*
X05493Y-13966D02*
X05750Y-13966D01*
X11425Y-09566D02*
X11425Y-08976D01*
X11000Y-09991D02*
X11425Y-09566D01*
X11000Y-10316D02*
X11000Y-09991D01*
X09925Y-11391D02*
X11000Y-10316D01*
X08325Y-11391D02*
X09925Y-11391D01*
X05750Y-13966D02*
X08325Y-11391D01*
X01201Y-13149D02*
X03983Y-13149D01*
X05493Y-13948D02*
X05493Y-13966D01*
X05493Y-13966D02*
X05493Y-15039D01*
X05500Y-13941D02*
X05493Y-13948D01*
X04775Y-13941D02*
X05500Y-13941D01*
X03983Y-13149D02*
X04775Y-13941D01*
X31175Y-05091D02*
X30300Y-05091D01*
X30300Y-05091D02*
X30175Y-04966D01*
X30175Y-04466D02*
X30020Y-04311D01*
X30175Y-04966D02*
X30175Y-04466D01*
X35400Y-07591D02*
X35400Y-05541D01*
X34880Y-02696D02*
X34296Y-02696D01*
X35550Y-03366D02*
X34880Y-02696D01*
X35550Y-05391D02*
X35550Y-03366D01*
X35400Y-05541D02*
X35550Y-05391D01*
X34350Y-11591D02*
X35100Y-11591D01*
X35100Y-11591D02*
X35400Y-11291D01*
X35400Y-11291D02*
X35400Y-07591D01*
X34350Y-11591D02*
X34350Y-11941D01*
X34350Y-11941D02*
X35400Y-12991D01*
X21989Y-10570D02*
X22619Y-11200D01*
X21989Y-09111D02*
X21989Y-10570D01*
X09094Y-04133D02*
X09567Y-04606D01*
X09567Y-04606D02*
X12343Y-04606D01*
X12343Y-04606D02*
X12579Y-04370D01*
X09094Y-04133D02*
X09094Y-03661D01*
X05945Y-12028D02*
X05945Y-11673D01*
X05945Y-12028D02*
X05552Y-12421D01*
X05926Y-06338D02*
X05099Y-05511D01*
X17264Y-03425D02*
X17146Y-03307D01*
X18149Y-03425D02*
X17264Y-03425D01*
X14410Y-06240D02*
X14410Y-06161D01*
X18485Y-06988D02*
X18485Y-07283D01*
X16831Y-05334D02*
X18485Y-06988D01*
X16418Y-05334D02*
X16831Y-05334D01*
X15336Y-04252D02*
X16418Y-05334D01*
X14469Y-04252D02*
X15336Y-04252D01*
X14134Y-04587D02*
X14469Y-04252D01*
X14134Y-05885D02*
X14134Y-04587D01*
X14410Y-06161D02*
X14134Y-05885D01*
X17323Y-08661D02*
X17323Y-08346D01*
X17323Y-08346D02*
X18386Y-07283D01*
X18386Y-07283D02*
X18485Y-07283D01*
X05985Y-06338D02*
X05926Y-06338D01*
X14410Y-06726D02*
X14410Y-06240D01*
X14410Y-06240D02*
X14410Y-06122D01*
X14725Y-05807D02*
X14725Y-05631D01*
X14410Y-06122D02*
X14725Y-05807D01*
X09089Y-02692D02*
X09089Y-03656D01*
X09089Y-03656D02*
X09094Y-03661D01*
X09089Y-02692D02*
X08116Y-02692D01*
X08116Y-02692D02*
X08091Y-02717D01*
X18104Y-02318D02*
X17210Y-02318D01*
X17210Y-02318D02*
X17185Y-02343D01*
X18149Y-03425D02*
X18149Y-02363D01*
X18149Y-02363D02*
X18104Y-02318D01*
X25965Y-01851D02*
X25965Y-03189D01*
X26181Y-03405D02*
X26181Y-03404D01*
X25965Y-03189D02*
X26181Y-03405D01*
X26969Y-04311D02*
X26969Y-04192D01*
X26969Y-04192D02*
X26181Y-03404D01*
X25965Y-01851D02*
X26937Y-01851D01*
X26937Y-01851D02*
X26962Y-01826D01*
X31044Y-04311D02*
X32008Y-04311D01*
X33623Y-02696D02*
X34296Y-02696D01*
X32008Y-04311D02*
X33623Y-02696D01*
X31044Y-04311D02*
X30020Y-04311D01*
X06176Y-11378D02*
X06176Y-11431D01*
X06676Y-11592D02*
X06676Y-10896D01*
X06575Y-11693D02*
X06676Y-11592D01*
X06438Y-11693D02*
X06575Y-11693D01*
X06176Y-11431D02*
X06438Y-11693D01*
X05676Y-11358D02*
X05676Y-11391D01*
X05676Y-11391D02*
X05676Y-11443D01*
X05676Y-11443D02*
X05906Y-11673D01*
X05906Y-11673D02*
X05945Y-11673D01*
X06176Y-11541D02*
X06176Y-11378D01*
X05945Y-11673D02*
X06044Y-11673D01*
X06044Y-11673D02*
X06176Y-11541D01*
X06176Y-11378D02*
X06176Y-10896D01*
X05176Y-10896D02*
X05176Y-11416D01*
X05676Y-11430D02*
X05676Y-11358D01*
X05512Y-11594D02*
X05676Y-11430D01*
X05354Y-11594D02*
X05512Y-11594D01*
X05176Y-11416D02*
X05354Y-11594D01*
X06176Y-06614D02*
X06176Y-06541D01*
X06676Y-06498D02*
X06676Y-07096D01*
X06516Y-06338D02*
X06676Y-06498D01*
X06379Y-06338D02*
X06516Y-06338D01*
X06176Y-06541D02*
X06379Y-06338D01*
X05676Y-06594D02*
X05676Y-06588D01*
X06176Y-06529D02*
X06176Y-06614D01*
X06176Y-06614D02*
X06176Y-07096D01*
X05985Y-06338D02*
X06176Y-06529D01*
X05676Y-06588D02*
X05926Y-06338D01*
X05176Y-07096D02*
X05176Y-06556D01*
X05676Y-06521D02*
X05676Y-06594D01*
X05676Y-06594D02*
X05676Y-07096D01*
X05513Y-06358D02*
X05676Y-06521D01*
X05374Y-06358D02*
X05513Y-06358D01*
X05176Y-06556D02*
X05374Y-06358D01*
X30020Y-04311D02*
X26969Y-04311D01*
X26969Y-04311D02*
X25768Y-04311D01*
X22855Y-09111D02*
X24329Y-09111D01*
X26621Y-09438D02*
X26621Y-09423D01*
X24656Y-09438D02*
X26621Y-09438D01*
X24329Y-09111D02*
X24656Y-09438D01*
X12160Y-08976D02*
X11425Y-08976D01*
X11425Y-08976D02*
X11319Y-08976D01*
X11319Y-08976D02*
X11005Y-08976D01*
X16660Y-08661D02*
X17323Y-08661D01*
X17323Y-08661D02*
X17795Y-08661D01*
X22855Y-09111D02*
X21989Y-09111D01*
X21989Y-09111D02*
X21422Y-09111D01*
X21422Y-09111D02*
X21399Y-09134D01*
X26621Y-08793D02*
X27077Y-08793D01*
X27250Y-09241D02*
X27068Y-09423D01*
X27250Y-08966D02*
X27250Y-09241D01*
X27077Y-08793D02*
X27250Y-08966D01*
X28550Y-08691D02*
X28550Y-08766D01*
X27893Y-09423D02*
X27068Y-09423D01*
X28550Y-08766D02*
X27893Y-09423D01*
X27068Y-09423D02*
X26621Y-09423D01*
X19232Y-01753D02*
X19232Y-01004D01*
X19017Y-01968D02*
X19232Y-01753D01*
X18904Y-01968D02*
X19017Y-01968D01*
X11732Y-01593D02*
X11556Y-01417D01*
X13045Y-01618D02*
X12151Y-01618D01*
X12151Y-01618D02*
X12126Y-01593D01*
X12126Y-01593D02*
X11732Y-01593D01*
X11556Y-01417D02*
X11123Y-01417D01*
X11576Y-03976D02*
X10159Y-03976D01*
X12265Y-03287D02*
X11576Y-03976D01*
X13563Y-03287D02*
X12265Y-03287D01*
X14272Y-02578D02*
X13563Y-03287D01*
X14784Y-01968D02*
X14272Y-01968D01*
X14272Y-01968D02*
X13845Y-01968D01*
X14272Y-01968D02*
X14272Y-02578D01*
X10159Y-03976D02*
X09844Y-03661D01*
X10373Y-01417D02*
X10138Y-01417D01*
X10079Y-02152D02*
X09889Y-02342D01*
X10079Y-01476D02*
X10079Y-02152D01*
X10138Y-01417D02*
X10079Y-01476D01*
X28210Y-01101D02*
X28819Y-01101D01*
X27835Y-01476D02*
X28210Y-01101D01*
X27762Y-01476D02*
X27835Y-01476D01*
X23544Y-12894D02*
X23544Y-13149D01*
X23347Y-13346D02*
X17756Y-13346D01*
X23544Y-13149D02*
X23347Y-13346D01*
X15985Y-11575D02*
X15985Y-11226D01*
X17756Y-13346D02*
X15985Y-11575D01*
X32481Y-11023D02*
X29782Y-11023D01*
X29782Y-11023D02*
X29700Y-10941D01*
X34350Y-10591D02*
X33700Y-10591D01*
X32481Y-11023D02*
X32481Y-10728D01*
X33268Y-11023D02*
X32481Y-11023D01*
X33700Y-10591D02*
X33268Y-11023D01*
X25965Y-01101D02*
X26937Y-01101D01*
X26937Y-01101D02*
X26962Y-01126D01*
X25965Y-01101D02*
X25040Y-01101D01*
X29603Y-01126D02*
X29916Y-01126D01*
X29034Y-01851D02*
X29469Y-01416D01*
X29469Y-01416D02*
X29469Y-01260D01*
X27855Y-02676D02*
X28681Y-02676D01*
X28681Y-02676D02*
X28681Y-01989D01*
X28819Y-01851D02*
X29034Y-01851D01*
X28681Y-01989D02*
X28819Y-01851D01*
X29469Y-01260D02*
X29603Y-01126D01*
X21024Y-01101D02*
X20079Y-01101D01*
X22061Y-01126D02*
X21049Y-01126D01*
X21049Y-01126D02*
X21024Y-01101D01*
X20079Y-01101D02*
X19982Y-01004D01*
X19902Y-03189D02*
X20355Y-03189D01*
X19666Y-03425D02*
X19902Y-03189D01*
X23701Y-01476D02*
X23288Y-01476D01*
X23288Y-01476D02*
X22861Y-01476D01*
X18899Y-03425D02*
X19666Y-03425D01*
X23288Y-02086D02*
X23288Y-01476D01*
X22835Y-02539D02*
X23288Y-02086D01*
X21005Y-02539D02*
X22835Y-02539D01*
X20355Y-03189D02*
X21005Y-02539D01*
X18104Y-01618D02*
X17210Y-01618D01*
X17185Y-01593D02*
X16201Y-01593D01*
X17210Y-01618D02*
X17185Y-01593D01*
X08091Y-01967D02*
X07067Y-01967D01*
X09089Y-01992D02*
X08116Y-01992D01*
X08116Y-01992D02*
X08091Y-01967D01*
X30716Y-01476D02*
X30716Y-02696D01*
X31296Y-02696D02*
X30716Y-02696D01*
X30716Y-02696D02*
X29749Y-02696D01*
X30716Y-01476D02*
X32087Y-01476D01*
X31125Y-10041D02*
X31125Y-09569D01*
X31125Y-09569D02*
X31103Y-09547D01*
X33400Y-09791D02*
X33400Y-07741D01*
X33175Y-07516D02*
X33175Y-06266D01*
X33400Y-07741D02*
X33175Y-07516D01*
X34350Y-09791D02*
X33400Y-09791D01*
X33400Y-09791D02*
X33375Y-09791D01*
X33125Y-10041D02*
X31125Y-10041D01*
X31125Y-10041D02*
X29700Y-10041D01*
X33375Y-09791D02*
X33125Y-10041D01*
X31925Y-05091D02*
X33075Y-05091D01*
X33075Y-05091D02*
X33175Y-04991D01*
X34125Y-05491D02*
X34125Y-04891D01*
X34125Y-04891D02*
X34475Y-04541D01*
X34350Y-08791D02*
X34350Y-08291D01*
X33175Y-04991D02*
X33175Y-05516D01*
X33300Y-04866D02*
X33175Y-04991D01*
X33500Y-04866D02*
X33300Y-04866D01*
X34125Y-05491D02*
X33500Y-04866D01*
X34125Y-08066D02*
X34125Y-05491D01*
X34350Y-08291D02*
X34125Y-08066D01*
X14725Y-06726D02*
X14725Y-06259D01*
X15355Y-05787D02*
X15355Y-05000D01*
X15040Y-06102D02*
X15355Y-05787D01*
X14882Y-06102D02*
X15040Y-06102D01*
X14725Y-06259D02*
X14882Y-06102D01*
X19449Y-10118D02*
X19578Y-09989D01*
X19578Y-09989D02*
X19578Y-08908D01*
X10255Y-08976D02*
X09410Y-08976D01*
X08176Y-10210D02*
X08176Y-10896D01*
X09410Y-08976D02*
X08176Y-10210D01*
X10493Y-15039D02*
X10493Y-14232D01*
X10984Y-13741D02*
X13780Y-13741D01*
X10493Y-14232D02*
X10984Y-13741D01*
X20493Y-07578D02*
X20493Y-04586D01*
X20493Y-04586D02*
X20768Y-04311D01*
X22855Y-08161D02*
X21076Y-08161D01*
X21076Y-08161D02*
X20493Y-07578D01*
X12160Y-08661D02*
X11457Y-08661D01*
X10255Y-08603D02*
X10255Y-08976D01*
X10394Y-08464D02*
X10255Y-08603D01*
X11260Y-08464D02*
X10394Y-08464D01*
X11457Y-08661D02*
X11260Y-08464D01*
X14095Y-06726D02*
X14095Y-07421D01*
X14115Y-07441D02*
X14725Y-07441D01*
X14095Y-07421D02*
X14115Y-07441D01*
X14115Y-08976D02*
X14075Y-08976D01*
X13760Y-08661D02*
X12160Y-08661D01*
X14075Y-08976D02*
X13760Y-08661D01*
X14764Y-08976D02*
X14115Y-08976D01*
X14095Y-08996D02*
X14095Y-11226D01*
X14115Y-08976D02*
X14095Y-08996D01*
X16660Y-08976D02*
X14764Y-08976D01*
X14764Y-08976D02*
X14725Y-08976D01*
X14725Y-08976D02*
X14725Y-07441D01*
X14725Y-07441D02*
X14725Y-06726D01*
X20649Y-09134D02*
X19804Y-09134D01*
X19804Y-09134D02*
X19578Y-08908D01*
X19331Y-08661D02*
X18545Y-08661D01*
X19578Y-08908D02*
X19331Y-08661D01*
X16660Y-08976D02*
X17303Y-08976D01*
X17303Y-08976D02*
X17539Y-09212D01*
X17539Y-09212D02*
X18347Y-09212D01*
X18347Y-09212D02*
X18545Y-09014D01*
X18545Y-09014D02*
X18545Y-08661D01*
X14095Y-11226D02*
X14095Y-12559D01*
X14095Y-12559D02*
X14272Y-12736D01*
X14272Y-12736D02*
X14272Y-13583D01*
X14272Y-13583D02*
X14114Y-13741D01*
X14114Y-13741D02*
X13780Y-13741D01*
X24567Y-13524D02*
X24567Y-14724D01*
X20649Y-09134D02*
X20649Y-08878D01*
X22855Y-08811D02*
X22855Y-08791D01*
X22001Y-08811D02*
X22855Y-08811D01*
X21831Y-08641D02*
X22001Y-08811D01*
X20886Y-08641D02*
X21831Y-08641D01*
X20649Y-08878D02*
X20886Y-08641D01*
X15236Y-04881D02*
X14725Y-04881D01*
X15355Y-05000D02*
X15236Y-04881D01*
X26621Y-08478D02*
X27312Y-08478D01*
X27525Y-08691D02*
X27800Y-08691D01*
X27312Y-08478D02*
X27525Y-08691D01*
X25750Y-08766D02*
X24750Y-08766D01*
X24450Y-08466D02*
X23575Y-08466D01*
X24750Y-08766D02*
X24450Y-08466D01*
X22855Y-08161D02*
X23445Y-08161D01*
X23445Y-08161D02*
X23575Y-08291D01*
X23575Y-08291D02*
X23575Y-08466D01*
X23400Y-08791D02*
X22855Y-08791D01*
X23575Y-08466D02*
X23575Y-08616D01*
X23575Y-08616D02*
X23400Y-08791D01*
X26621Y-08478D02*
X25938Y-08478D01*
X25967Y-09108D02*
X26621Y-09108D01*
X25750Y-08891D02*
X25967Y-09108D01*
X25750Y-08666D02*
X25750Y-08766D01*
X25750Y-08766D02*
X25750Y-08891D01*
X25938Y-08478D02*
X25750Y-08666D01*
X03676Y-06372D02*
X03189Y-05885D01*
X03189Y-05885D02*
X02953Y-05885D01*
X03676Y-06372D02*
X03676Y-07096D01*
X01241Y-02893D02*
X01792Y-02342D01*
X01792Y-02342D02*
X02304Y-02342D01*
X01241Y-02893D02*
X01241Y-03582D01*
X11673Y-02343D02*
X11044Y-02972D01*
X11673Y-02343D02*
X12126Y-02343D01*
X30197Y-03228D02*
X30473Y-03504D01*
X29233Y-03228D02*
X30197Y-03228D01*
X20511Y-01851D02*
X20000Y-02362D01*
X20511Y-01851D02*
X21024Y-01851D01*
X13045Y-02318D02*
X12151Y-02318D01*
X12151Y-02318D02*
X12126Y-02343D01*
X22061Y-01826D02*
X21049Y-01826D01*
X21049Y-01826D02*
X21024Y-01851D01*
X27855Y-03426D02*
X27069Y-03426D01*
X26749Y-03106D02*
X26749Y-02696D01*
X27069Y-03426D02*
X26749Y-03106D01*
X28681Y-03426D02*
X27855Y-03426D01*
X29916Y-01826D02*
X29907Y-01826D01*
X29035Y-03426D02*
X28681Y-03426D01*
X29233Y-03228D02*
X29035Y-03426D01*
X29233Y-02500D02*
X29233Y-03228D01*
X29907Y-01826D02*
X29233Y-02500D01*
G54D10*
G36*
X05754Y-14149D02*
X05664Y-14114D01*
X05297Y-14119D01*
X04981Y-14250D01*
X04978Y-14453D01*
X05458Y-14933D01*
X05493Y-14968D01*
X05552Y-15027D01*
X05552Y-15051D01*
X05493Y-15110D01*
X05458Y-15145D01*
X05422Y-15181D01*
X05422Y-15039D01*
X04907Y-14524D01*
X04704Y-14527D01*
X04568Y-14868D01*
X04573Y-15235D01*
X04704Y-15551D01*
X04907Y-15554D01*
X05422Y-15039D01*
X05422Y-15181D01*
X04978Y-15625D01*
X04980Y-15819D01*
X01668Y-15819D01*
X00716Y-15819D01*
X00716Y-13775D01*
X00737Y-13754D01*
X00734Y-13878D01*
X01048Y-14002D01*
X01386Y-13995D01*
X01668Y-13878D01*
X01663Y-13682D01*
X01236Y-13255D01*
X01201Y-13220D01*
X01130Y-13149D01*
X01201Y-13078D01*
X01272Y-13149D01*
X01307Y-13184D01*
X01734Y-13611D01*
X01930Y-13616D01*
X02054Y-13302D01*
X02047Y-12964D01*
X01981Y-12806D01*
X03414Y-12806D01*
X04436Y-13827D01*
X04438Y-13830D01*
X04678Y-13990D01*
X04961Y-14046D01*
X05754Y-14046D01*
X05754Y-14149D01*
X05754Y-14149D01*
G37*
G54D29*
X05754Y-14149D02*
X05664Y-14114D01*
X05297Y-14119D01*
X04981Y-14250D01*
X04978Y-14453D01*
X05458Y-14933D01*
X05493Y-14968D01*
X05552Y-15027D01*
X05552Y-15051D01*
X05493Y-15110D01*
X05458Y-15145D01*
X05422Y-15181D01*
X05422Y-15039D01*
X04907Y-14524D01*
X04704Y-14527D01*
X04568Y-14868D01*
X04573Y-15235D01*
X04704Y-15551D01*
X04907Y-15554D01*
X05422Y-15039D01*
X05422Y-15181D01*
X04978Y-15625D01*
X04980Y-15819D01*
X01668Y-15819D01*
X00716Y-15819D01*
X00716Y-13775D01*
X00737Y-13754D01*
X00734Y-13878D01*
X01048Y-14002D01*
X01386Y-13995D01*
X01668Y-13878D01*
X01663Y-13682D01*
X01236Y-13255D01*
X01201Y-13220D01*
X01130Y-13149D01*
X01201Y-13078D01*
X01272Y-13149D01*
X01307Y-13184D01*
X01734Y-13611D01*
X01930Y-13616D01*
X02054Y-13302D01*
X02047Y-12964D01*
X01981Y-12806D01*
X03414Y-12806D01*
X04436Y-13827D01*
X04438Y-13830D01*
X04678Y-13990D01*
X04961Y-14046D01*
X05754Y-14046D01*
X05754Y-14149D01*
G54D10*
G36*
X06226Y-07146D02*
X06126Y-07146D01*
X06095Y-07146D01*
X06076Y-07146D01*
X05776Y-07146D01*
X05757Y-07146D01*
X05726Y-07146D01*
X05626Y-07146D01*
X05626Y-07046D01*
X05726Y-07046D01*
X05757Y-07046D01*
X06095Y-07046D01*
X06126Y-07046D01*
X06226Y-07046D01*
X06226Y-07146D01*
X06226Y-07146D01*
G37*
G54D29*
X06226Y-07146D02*
X06126Y-07146D01*
X06095Y-07146D01*
X06076Y-07146D01*
X05776Y-07146D01*
X05757Y-07146D01*
X05726Y-07146D01*
X05626Y-07146D01*
X05626Y-07046D01*
X05726Y-07046D01*
X05757Y-07046D01*
X06095Y-07046D01*
X06126Y-07046D01*
X06226Y-07046D01*
X06226Y-07146D01*
G54D10*
G36*
X06226Y-10946D02*
X06126Y-10946D01*
X06095Y-10946D01*
X05757Y-10946D01*
X05726Y-10946D01*
X05626Y-10946D01*
X05626Y-10846D01*
X05726Y-10846D01*
X05757Y-10846D01*
X05776Y-10846D01*
X06076Y-10846D01*
X06095Y-10846D01*
X06126Y-10846D01*
X06226Y-10846D01*
X06226Y-10946D01*
X06226Y-10946D01*
G37*
G54D29*
X06226Y-10946D02*
X06126Y-10946D01*
X06095Y-10946D01*
X05757Y-10946D01*
X05726Y-10946D01*
X05626Y-10946D01*
X05626Y-10846D01*
X05726Y-10846D01*
X05757Y-10846D01*
X05776Y-10846D01*
X06076Y-10846D01*
X06095Y-10846D01*
X06126Y-10846D01*
X06226Y-10846D01*
X06226Y-10946D01*
G54D10*
G36*
X06343Y-11744D02*
X05520Y-12568D01*
X05267Y-12568D01*
X04647Y-11948D01*
X04696Y-11899D01*
X04698Y-11898D01*
X04699Y-11898D01*
X04772Y-11787D01*
X04773Y-11787D01*
X04903Y-11787D01*
X04926Y-11777D01*
X04949Y-11787D01*
X04966Y-11787D01*
X05009Y-11743D01*
X05139Y-11690D01*
X05176Y-11652D01*
X05213Y-11690D01*
X05342Y-11743D01*
X05386Y-11787D01*
X05403Y-11787D01*
X05426Y-11777D01*
X05449Y-11787D01*
X05466Y-11787D01*
X05509Y-11743D01*
X05639Y-11690D01*
X05676Y-11652D01*
X05713Y-11690D01*
X05842Y-11743D01*
X05886Y-11787D01*
X05903Y-11787D01*
X05926Y-11777D01*
X05949Y-11787D01*
X05966Y-11787D01*
X06009Y-11743D01*
X06139Y-11690D01*
X06176Y-11652D01*
X06213Y-11690D01*
X06342Y-11743D01*
X06343Y-11744D01*
X06343Y-11744D01*
G37*
G54D29*
X06343Y-11744D02*
X05520Y-12568D01*
X05267Y-12568D01*
X04647Y-11948D01*
X04696Y-11899D01*
X04698Y-11898D01*
X04699Y-11898D01*
X04772Y-11787D01*
X04773Y-11787D01*
X04903Y-11787D01*
X04926Y-11777D01*
X04949Y-11787D01*
X04966Y-11787D01*
X05009Y-11743D01*
X05139Y-11690D01*
X05176Y-11652D01*
X05213Y-11690D01*
X05342Y-11743D01*
X05386Y-11787D01*
X05403Y-11787D01*
X05426Y-11777D01*
X05449Y-11787D01*
X05466Y-11787D01*
X05509Y-11743D01*
X05639Y-11690D01*
X05676Y-11652D01*
X05713Y-11690D01*
X05842Y-11743D01*
X05886Y-11787D01*
X05903Y-11787D01*
X05926Y-11777D01*
X05949Y-11787D01*
X05966Y-11787D01*
X06009Y-11743D01*
X06139Y-11690D01*
X06176Y-11652D01*
X06213Y-11690D01*
X06342Y-11743D01*
X06343Y-11744D01*
G54D10*
G36*
X07047Y-06172D02*
X07025Y-06205D01*
X06949Y-06205D01*
X06926Y-06214D01*
X06903Y-06205D01*
X06886Y-06205D01*
X06842Y-06248D01*
X06713Y-06302D01*
X06676Y-06339D01*
X06639Y-06302D01*
X06509Y-06248D01*
X06466Y-06205D01*
X06449Y-06205D01*
X06426Y-06214D01*
X06403Y-06205D01*
X06386Y-06205D01*
X06342Y-06248D01*
X06213Y-06302D01*
X06176Y-06339D01*
X06139Y-06302D01*
X06009Y-06248D01*
X05966Y-06205D01*
X05949Y-06205D01*
X05926Y-06214D01*
X05903Y-06205D01*
X05886Y-06205D01*
X05842Y-06248D01*
X05713Y-06302D01*
X05676Y-06339D01*
X05639Y-06302D01*
X05509Y-06248D01*
X05466Y-06205D01*
X05449Y-06205D01*
X05426Y-06214D01*
X05403Y-06205D01*
X05386Y-06205D01*
X05342Y-06248D01*
X05213Y-06302D01*
X05175Y-06339D01*
X05139Y-06303D01*
X05010Y-06249D01*
X04966Y-06205D01*
X04949Y-06205D01*
X04926Y-06214D01*
X04915Y-06209D01*
X04915Y-04995D01*
X05873Y-05953D01*
X05875Y-05956D01*
X06115Y-06116D01*
X06398Y-06172D01*
X07047Y-06172D01*
X07047Y-06172D01*
G37*
G54D29*
X07047Y-06172D02*
X07025Y-06205D01*
X06949Y-06205D01*
X06926Y-06214D01*
X06903Y-06205D01*
X06886Y-06205D01*
X06842Y-06248D01*
X06713Y-06302D01*
X06676Y-06339D01*
X06639Y-06302D01*
X06509Y-06248D01*
X06466Y-06205D01*
X06449Y-06205D01*
X06426Y-06214D01*
X06403Y-06205D01*
X06386Y-06205D01*
X06342Y-06248D01*
X06213Y-06302D01*
X06176Y-06339D01*
X06139Y-06302D01*
X06009Y-06248D01*
X05966Y-06205D01*
X05949Y-06205D01*
X05926Y-06214D01*
X05903Y-06205D01*
X05886Y-06205D01*
X05842Y-06248D01*
X05713Y-06302D01*
X05676Y-06339D01*
X05639Y-06302D01*
X05509Y-06248D01*
X05466Y-06205D01*
X05449Y-06205D01*
X05426Y-06214D01*
X05403Y-06205D01*
X05386Y-06205D01*
X05342Y-06248D01*
X05213Y-06302D01*
X05175Y-06339D01*
X05139Y-06303D01*
X05010Y-06249D01*
X04966Y-06205D01*
X04949Y-06205D01*
X04926Y-06214D01*
X04915Y-06209D01*
X04915Y-04995D01*
X05873Y-05953D01*
X05875Y-05956D01*
X06115Y-06116D01*
X06398Y-06172D01*
X07047Y-06172D01*
G54D10*
G36*
X11374Y-11052D02*
X08917Y-11052D01*
X08917Y-11019D01*
X08917Y-10519D01*
X08915Y-10516D01*
X09676Y-09754D01*
X09717Y-09794D01*
X09952Y-09892D01*
X10207Y-09892D01*
X10557Y-09892D01*
X10630Y-09861D01*
X10703Y-09892D01*
X10795Y-09892D01*
X10955Y-09732D01*
X10955Y-09632D01*
X10973Y-09614D01*
X11055Y-09417D01*
X11055Y-09732D01*
X11215Y-09892D01*
X11219Y-09892D01*
X11219Y-09968D01*
X11219Y-10028D01*
X11219Y-10128D01*
X11219Y-10283D01*
X11219Y-10343D01*
X11219Y-10443D01*
X11219Y-10598D01*
X11219Y-10758D01*
X11316Y-10994D01*
X11374Y-11052D01*
X11374Y-11052D01*
G37*
G54D29*
X11374Y-11052D02*
X08917Y-11052D01*
X08917Y-11019D01*
X08917Y-10519D01*
X08915Y-10516D01*
X09676Y-09754D01*
X09717Y-09794D01*
X09952Y-09892D01*
X10207Y-09892D01*
X10557Y-09892D01*
X10630Y-09861D01*
X10703Y-09892D01*
X10795Y-09892D01*
X10955Y-09732D01*
X10955Y-09632D01*
X10973Y-09614D01*
X11055Y-09417D01*
X11055Y-09732D01*
X11215Y-09892D01*
X11219Y-09892D01*
X11219Y-09968D01*
X11219Y-10028D01*
X11219Y-10128D01*
X11219Y-10283D01*
X11219Y-10343D01*
X11219Y-10443D01*
X11219Y-10598D01*
X11219Y-10758D01*
X11316Y-10994D01*
X11374Y-11052D01*
G54D10*
G36*
X11586Y-15819D02*
X11219Y-15819D01*
X11336Y-15702D01*
X11358Y-15647D01*
X11489Y-15779D01*
X11586Y-15819D01*
X11586Y-15819D01*
G37*
G54D29*
X11586Y-15819D02*
X11219Y-15819D01*
X11336Y-15702D01*
X11358Y-15647D01*
X11489Y-15779D01*
X11586Y-15819D01*
G54D10*
G36*
X12730Y-04026D02*
X12725Y-04054D01*
X12726Y-04058D01*
X12726Y-04686D01*
X12658Y-04673D01*
X12653Y-04674D01*
X11784Y-04674D01*
X11859Y-04659D01*
X12099Y-04499D01*
X12571Y-04026D01*
X12730Y-04026D01*
X12730Y-04026D01*
G37*
G54D29*
X12730Y-04026D02*
X12725Y-04054D01*
X12726Y-04058D01*
X12726Y-04686D01*
X12658Y-04673D01*
X12653Y-04674D01*
X11784Y-04674D01*
X11859Y-04659D01*
X12099Y-04499D01*
X12571Y-04026D01*
X12730Y-04026D01*
G54D10*
G36*
X18083Y-03475D02*
X18049Y-03475D01*
X17493Y-03475D01*
X17455Y-03513D01*
X16921Y-03513D01*
X16705Y-03296D01*
X16721Y-03280D01*
X16723Y-03279D01*
X16724Y-03279D01*
X16803Y-03159D01*
X16804Y-03159D01*
X16975Y-03159D01*
X17135Y-02999D01*
X17135Y-02443D01*
X17135Y-02409D01*
X17235Y-02409D01*
X17235Y-02443D01*
X17235Y-02999D01*
X17333Y-03097D01*
X17333Y-03159D01*
X17333Y-03215D01*
X17493Y-03375D01*
X18049Y-03375D01*
X18083Y-03375D01*
X18083Y-03475D01*
X18083Y-03475D01*
G37*
G54D29*
X18083Y-03475D02*
X18049Y-03475D01*
X17493Y-03475D01*
X17455Y-03513D01*
X16921Y-03513D01*
X16705Y-03296D01*
X16721Y-03280D01*
X16723Y-03279D01*
X16724Y-03279D01*
X16803Y-03159D01*
X16804Y-03159D01*
X16975Y-03159D01*
X17135Y-02999D01*
X17135Y-02443D01*
X17135Y-02409D01*
X17235Y-02409D01*
X17235Y-02443D01*
X17235Y-02999D01*
X17333Y-03097D01*
X17333Y-03159D01*
X17333Y-03215D01*
X17493Y-03375D01*
X18049Y-03375D01*
X18083Y-03375D01*
X18083Y-03475D01*
G54D10*
G36*
X20162Y-08293D02*
X20111Y-08315D01*
X20070Y-08355D01*
X19854Y-08138D01*
X19614Y-07978D01*
X19331Y-07921D01*
X19326Y-07922D01*
X19162Y-07922D01*
X19083Y-07843D01*
X18848Y-07745D01*
X18593Y-07745D01*
X18243Y-07745D01*
X18170Y-07775D01*
X18097Y-07745D01*
X18005Y-07745D01*
X17845Y-07905D01*
X17845Y-08004D01*
X17827Y-08023D01*
X17745Y-08219D01*
X17745Y-07905D01*
X17601Y-07761D01*
X17601Y-07669D01*
X17601Y-07609D01*
X17601Y-07509D01*
X17601Y-07354D01*
X17601Y-07194D01*
X17504Y-06958D01*
X17323Y-06778D01*
X17088Y-06680D01*
X16833Y-06680D01*
X16706Y-06680D01*
X16706Y-06299D01*
X16609Y-06063D01*
X16428Y-05883D01*
X16193Y-05785D01*
X16094Y-05785D01*
X16094Y-05000D01*
X16038Y-04720D01*
X16090Y-04772D01*
X16092Y-04775D01*
X16332Y-04935D01*
X16567Y-04981D01*
X16614Y-04991D01*
X16614Y-04990D01*
X16615Y-04991D01*
X19463Y-04991D01*
X19468Y-04992D01*
X19468Y-04991D01*
X19751Y-04935D01*
X19754Y-04933D01*
X19754Y-07573D01*
X19753Y-07578D01*
X19810Y-07861D01*
X19970Y-08101D01*
X20162Y-08293D01*
X20162Y-08293D01*
G37*
G54D29*
X20162Y-08293D02*
X20111Y-08315D01*
X20070Y-08355D01*
X19854Y-08138D01*
X19614Y-07978D01*
X19331Y-07921D01*
X19326Y-07922D01*
X19162Y-07922D01*
X19083Y-07843D01*
X18848Y-07745D01*
X18593Y-07745D01*
X18243Y-07745D01*
X18170Y-07775D01*
X18097Y-07745D01*
X18005Y-07745D01*
X17845Y-07905D01*
X17845Y-08004D01*
X17827Y-08023D01*
X17745Y-08219D01*
X17745Y-07905D01*
X17601Y-07761D01*
X17601Y-07669D01*
X17601Y-07609D01*
X17601Y-07509D01*
X17601Y-07354D01*
X17601Y-07194D01*
X17504Y-06958D01*
X17323Y-06778D01*
X17088Y-06680D01*
X16833Y-06680D01*
X16706Y-06680D01*
X16706Y-06299D01*
X16609Y-06063D01*
X16428Y-05883D01*
X16193Y-05785D01*
X16094Y-05785D01*
X16094Y-05000D01*
X16038Y-04720D01*
X16090Y-04772D01*
X16092Y-04775D01*
X16332Y-04935D01*
X16567Y-04981D01*
X16614Y-04991D01*
X16614Y-04990D01*
X16615Y-04991D01*
X19463Y-04991D01*
X19468Y-04992D01*
X19468Y-04991D01*
X19751Y-04935D01*
X19754Y-04933D01*
X19754Y-07573D01*
X19753Y-07578D01*
X19810Y-07861D01*
X19970Y-08101D01*
X20162Y-08293D01*
G54D10*
G36*
X21663Y-15819D02*
X18138Y-15819D01*
X18236Y-15779D01*
X18416Y-15598D01*
X18514Y-15363D01*
X18514Y-15170D01*
X18354Y-15010D01*
X17798Y-15010D01*
X17764Y-15010D01*
X17764Y-14910D01*
X17798Y-14910D01*
X18354Y-14910D01*
X18451Y-14813D01*
X20657Y-14813D01*
X21663Y-15819D01*
X21663Y-15819D01*
G37*
G54D29*
X21663Y-15819D02*
X18138Y-15819D01*
X18236Y-15779D01*
X18416Y-15598D01*
X18514Y-15363D01*
X18514Y-15170D01*
X18354Y-15010D01*
X17798Y-15010D01*
X17764Y-15010D01*
X17764Y-14910D01*
X17798Y-14910D01*
X18354Y-14910D01*
X18451Y-14813D01*
X20657Y-14813D01*
X21663Y-15819D01*
G54D10*
G36*
X22904Y-10790D02*
X22894Y-10841D01*
X22894Y-11241D01*
X22861Y-11291D01*
X22816Y-11514D01*
X22815Y-11515D01*
X22726Y-11606D01*
X22628Y-11841D01*
X22628Y-12096D01*
X22628Y-12446D01*
X22658Y-12519D01*
X22628Y-12591D01*
X22628Y-12607D01*
X18062Y-12607D01*
X16727Y-11272D01*
X17087Y-11272D01*
X17323Y-11175D01*
X17503Y-10994D01*
X17601Y-10759D01*
X17601Y-10504D01*
X17601Y-10444D01*
X17601Y-10344D01*
X17601Y-10189D01*
X17601Y-10129D01*
X17601Y-10029D01*
X17601Y-09951D01*
X18218Y-09951D01*
X18218Y-10362D01*
X18405Y-10815D01*
X18751Y-11161D01*
X19203Y-11349D01*
X19693Y-11349D01*
X20146Y-11162D01*
X20492Y-10816D01*
X20680Y-10364D01*
X20680Y-10050D01*
X20951Y-10050D01*
X21024Y-10019D01*
X21097Y-10050D01*
X21189Y-10050D01*
X21349Y-09890D01*
X21349Y-09790D01*
X21367Y-09772D01*
X21449Y-09575D01*
X21449Y-09890D01*
X21609Y-10050D01*
X21701Y-10050D01*
X21821Y-10000D01*
X21821Y-10090D01*
X21821Y-10266D01*
X21918Y-10502D01*
X22099Y-10682D01*
X22334Y-10780D01*
X22589Y-10780D01*
X22904Y-10780D01*
X22904Y-10790D01*
X22904Y-10790D01*
G37*
G54D29*
X22904Y-10790D02*
X22894Y-10841D01*
X22894Y-11241D01*
X22861Y-11291D01*
X22816Y-11514D01*
X22815Y-11515D01*
X22726Y-11606D01*
X22628Y-11841D01*
X22628Y-12096D01*
X22628Y-12446D01*
X22658Y-12519D01*
X22628Y-12591D01*
X22628Y-12607D01*
X18062Y-12607D01*
X16727Y-11272D01*
X17087Y-11272D01*
X17323Y-11175D01*
X17503Y-10994D01*
X17601Y-10759D01*
X17601Y-10504D01*
X17601Y-10444D01*
X17601Y-10344D01*
X17601Y-10189D01*
X17601Y-10129D01*
X17601Y-10029D01*
X17601Y-09951D01*
X18218Y-09951D01*
X18218Y-10362D01*
X18405Y-10815D01*
X18751Y-11161D01*
X19203Y-11349D01*
X19693Y-11349D01*
X20146Y-11162D01*
X20492Y-10816D01*
X20680Y-10364D01*
X20680Y-10050D01*
X20951Y-10050D01*
X21024Y-10019D01*
X21097Y-10050D01*
X21189Y-10050D01*
X21349Y-09890D01*
X21349Y-09790D01*
X21367Y-09772D01*
X21449Y-09575D01*
X21449Y-09890D01*
X21609Y-10050D01*
X21701Y-10050D01*
X21821Y-10000D01*
X21821Y-10090D01*
X21821Y-10266D01*
X21918Y-10502D01*
X22099Y-10682D01*
X22334Y-10780D01*
X22589Y-10780D01*
X22904Y-10780D01*
X22904Y-10790D01*
G54D10*
G36*
X32661Y-08475D02*
X32642Y-08468D01*
X32292Y-08474D01*
X31995Y-08597D01*
X31997Y-08795D01*
X32446Y-09244D01*
X32481Y-09279D01*
X32504Y-09302D01*
X32362Y-09302D01*
X31985Y-08925D01*
X31985Y-08330D01*
X31979Y-07980D01*
X31856Y-07683D01*
X31658Y-07685D01*
X31174Y-08169D01*
X31658Y-08653D01*
X31856Y-08655D01*
X31985Y-08330D01*
X31985Y-08925D01*
X31926Y-08866D01*
X31728Y-08864D01*
X31716Y-08892D01*
X31611Y-08787D01*
X31587Y-08777D01*
X31587Y-08724D01*
X31103Y-08240D01*
X30619Y-08724D01*
X30618Y-08776D01*
X30595Y-08786D01*
X30343Y-09039D01*
X30258Y-09242D01*
X30238Y-09223D01*
X30003Y-09125D01*
X29748Y-09125D01*
X29398Y-09125D01*
X29343Y-09147D01*
X29366Y-09094D01*
X29366Y-08901D01*
X29206Y-08741D01*
X28650Y-08741D01*
X28616Y-08741D01*
X28616Y-08641D01*
X28650Y-08641D01*
X29206Y-08641D01*
X29366Y-08481D01*
X29366Y-08396D01*
X29652Y-08396D01*
X29725Y-08365D01*
X29798Y-08396D01*
X29890Y-08396D01*
X30050Y-08236D01*
X30050Y-08136D01*
X30068Y-08118D01*
X30150Y-07921D01*
X30150Y-08236D01*
X30226Y-08312D01*
X30227Y-08358D01*
X30350Y-08655D01*
X30548Y-08653D01*
X31032Y-08169D01*
X30865Y-08002D01*
X30907Y-07902D01*
X31103Y-08098D01*
X31587Y-07614D01*
X31589Y-07416D01*
X31264Y-07287D01*
X30916Y-07292D01*
X30914Y-07293D01*
X30878Y-07307D01*
X30916Y-07270D01*
X30916Y-07077D01*
X30818Y-06842D01*
X30638Y-06661D01*
X30402Y-06564D01*
X30310Y-06564D01*
X30150Y-06724D01*
X30150Y-07039D01*
X30069Y-06842D01*
X30050Y-06823D01*
X30050Y-06724D01*
X29890Y-06564D01*
X29798Y-06564D01*
X29724Y-06594D01*
X29653Y-06564D01*
X29513Y-06564D01*
X29538Y-06505D01*
X29538Y-06312D01*
X29378Y-06152D01*
X28822Y-06152D01*
X28788Y-06152D01*
X28788Y-06052D01*
X29378Y-06052D01*
X29538Y-05892D01*
X29538Y-05699D01*
X29440Y-05464D01*
X29260Y-05283D01*
X29024Y-05186D01*
X28932Y-05186D01*
X28772Y-05346D01*
X28772Y-05661D01*
X28691Y-05464D01*
X28672Y-05445D01*
X28672Y-05346D01*
X28512Y-05186D01*
X28420Y-05186D01*
X28346Y-05216D01*
X28275Y-05186D01*
X28020Y-05186D01*
X27670Y-05186D01*
X27434Y-05283D01*
X27328Y-05389D01*
X27035Y-05267D01*
X26671Y-05267D01*
X26335Y-05406D01*
X26077Y-05663D01*
X25937Y-05999D01*
X25937Y-06027D01*
X25796Y-06027D01*
X25741Y-06027D01*
X25620Y-06027D01*
X25486Y-06027D01*
X25421Y-06027D01*
X25310Y-06027D01*
X25166Y-06027D01*
X25111Y-06027D01*
X25038Y-06027D01*
X25288Y-05776D01*
X25290Y-05775D01*
X25291Y-05775D01*
X25450Y-05535D01*
X25451Y-05535D01*
X25497Y-05299D01*
X25507Y-05253D01*
X25506Y-05252D01*
X25507Y-05252D01*
X25507Y-05200D01*
X25597Y-05236D01*
X25964Y-05231D01*
X26280Y-05100D01*
X26283Y-04897D01*
X25803Y-04417D01*
X25768Y-04382D01*
X25709Y-04323D01*
X25709Y-04299D01*
X25768Y-04240D01*
X25839Y-04311D01*
X25874Y-04346D01*
X26354Y-04826D01*
X26557Y-04823D01*
X26693Y-04482D01*
X26688Y-04115D01*
X26647Y-04016D01*
X26786Y-04109D01*
X27069Y-04165D01*
X27267Y-04165D01*
X27452Y-04242D01*
X27707Y-04242D01*
X28257Y-04242D01*
X28267Y-04237D01*
X28278Y-04242D01*
X28533Y-04242D01*
X29083Y-04242D01*
X29319Y-04145D01*
X29380Y-04083D01*
X29429Y-04201D01*
X29775Y-04547D01*
X30227Y-04735D01*
X30359Y-04735D01*
X30359Y-04881D01*
X30519Y-05041D01*
X31075Y-05041D01*
X31109Y-05041D01*
X31109Y-05141D01*
X30519Y-05141D01*
X30359Y-05301D01*
X30359Y-05494D01*
X30457Y-05729D01*
X30637Y-05910D01*
X30873Y-06007D01*
X30965Y-06007D01*
X31125Y-05847D01*
X31125Y-05531D01*
X31206Y-05729D01*
X31225Y-05747D01*
X31225Y-05847D01*
X31385Y-06007D01*
X31477Y-06007D01*
X31550Y-05976D01*
X31622Y-06007D01*
X31877Y-06007D01*
X32227Y-06007D01*
X32259Y-05993D01*
X32259Y-06218D01*
X32259Y-06568D01*
X32356Y-06804D01*
X32436Y-06883D01*
X32436Y-07511D01*
X32435Y-07516D01*
X32492Y-07799D01*
X32652Y-08039D01*
X32661Y-08047D01*
X32661Y-08475D01*
X32661Y-08475D01*
G37*
G54D29*
X32661Y-08475D02*
X32642Y-08468D01*
X32292Y-08474D01*
X31995Y-08597D01*
X31997Y-08795D01*
X32446Y-09244D01*
X32481Y-09279D01*
X32504Y-09302D01*
X32362Y-09302D01*
X31985Y-08925D01*
X31985Y-08330D01*
X31979Y-07980D01*
X31856Y-07683D01*
X31658Y-07685D01*
X31174Y-08169D01*
X31658Y-08653D01*
X31856Y-08655D01*
X31985Y-08330D01*
X31985Y-08925D01*
X31926Y-08866D01*
X31728Y-08864D01*
X31716Y-08892D01*
X31611Y-08787D01*
X31587Y-08777D01*
X31587Y-08724D01*
X31103Y-08240D01*
X30619Y-08724D01*
X30618Y-08776D01*
X30595Y-08786D01*
X30343Y-09039D01*
X30258Y-09242D01*
X30238Y-09223D01*
X30003Y-09125D01*
X29748Y-09125D01*
X29398Y-09125D01*
X29343Y-09147D01*
X29366Y-09094D01*
X29366Y-08901D01*
X29206Y-08741D01*
X28650Y-08741D01*
X28616Y-08741D01*
X28616Y-08641D01*
X28650Y-08641D01*
X29206Y-08641D01*
X29366Y-08481D01*
X29366Y-08396D01*
X29652Y-08396D01*
X29725Y-08365D01*
X29798Y-08396D01*
X29890Y-08396D01*
X30050Y-08236D01*
X30050Y-08136D01*
X30068Y-08118D01*
X30150Y-07921D01*
X30150Y-08236D01*
X30226Y-08312D01*
X30227Y-08358D01*
X30350Y-08655D01*
X30548Y-08653D01*
X31032Y-08169D01*
X30865Y-08002D01*
X30907Y-07902D01*
X31103Y-08098D01*
X31587Y-07614D01*
X31589Y-07416D01*
X31264Y-07287D01*
X30916Y-07292D01*
X30914Y-07293D01*
X30878Y-07307D01*
X30916Y-07270D01*
X30916Y-07077D01*
X30818Y-06842D01*
X30638Y-06661D01*
X30402Y-06564D01*
X30310Y-06564D01*
X30150Y-06724D01*
X30150Y-07039D01*
X30069Y-06842D01*
X30050Y-06823D01*
X30050Y-06724D01*
X29890Y-06564D01*
X29798Y-06564D01*
X29724Y-06594D01*
X29653Y-06564D01*
X29513Y-06564D01*
X29538Y-06505D01*
X29538Y-06312D01*
X29378Y-06152D01*
X28822Y-06152D01*
X28788Y-06152D01*
X28788Y-06052D01*
X29378Y-06052D01*
X29538Y-05892D01*
X29538Y-05699D01*
X29440Y-05464D01*
X29260Y-05283D01*
X29024Y-05186D01*
X28932Y-05186D01*
X28772Y-05346D01*
X28772Y-05661D01*
X28691Y-05464D01*
X28672Y-05445D01*
X28672Y-05346D01*
X28512Y-05186D01*
X28420Y-05186D01*
X28346Y-05216D01*
X28275Y-05186D01*
X28020Y-05186D01*
X27670Y-05186D01*
X27434Y-05283D01*
X27328Y-05389D01*
X27035Y-05267D01*
X26671Y-05267D01*
X26335Y-05406D01*
X26077Y-05663D01*
X25937Y-05999D01*
X25937Y-06027D01*
X25796Y-06027D01*
X25741Y-06027D01*
X25620Y-06027D01*
X25486Y-06027D01*
X25421Y-06027D01*
X25310Y-06027D01*
X25166Y-06027D01*
X25111Y-06027D01*
X25038Y-06027D01*
X25288Y-05776D01*
X25290Y-05775D01*
X25291Y-05775D01*
X25450Y-05535D01*
X25451Y-05535D01*
X25497Y-05299D01*
X25507Y-05253D01*
X25506Y-05252D01*
X25507Y-05252D01*
X25507Y-05200D01*
X25597Y-05236D01*
X25964Y-05231D01*
X26280Y-05100D01*
X26283Y-04897D01*
X25803Y-04417D01*
X25768Y-04382D01*
X25709Y-04323D01*
X25709Y-04299D01*
X25768Y-04240D01*
X25839Y-04311D01*
X25874Y-04346D01*
X26354Y-04826D01*
X26557Y-04823D01*
X26693Y-04482D01*
X26688Y-04115D01*
X26647Y-04016D01*
X26786Y-04109D01*
X27069Y-04165D01*
X27267Y-04165D01*
X27452Y-04242D01*
X27707Y-04242D01*
X28257Y-04242D01*
X28267Y-04237D01*
X28278Y-04242D01*
X28533Y-04242D01*
X29083Y-04242D01*
X29319Y-04145D01*
X29380Y-04083D01*
X29429Y-04201D01*
X29775Y-04547D01*
X30227Y-04735D01*
X30359Y-04735D01*
X30359Y-04881D01*
X30519Y-05041D01*
X31075Y-05041D01*
X31109Y-05041D01*
X31109Y-05141D01*
X30519Y-05141D01*
X30359Y-05301D01*
X30359Y-05494D01*
X30457Y-05729D01*
X30637Y-05910D01*
X30873Y-06007D01*
X30965Y-06007D01*
X31125Y-05847D01*
X31125Y-05531D01*
X31206Y-05729D01*
X31225Y-05747D01*
X31225Y-05847D01*
X31385Y-06007D01*
X31477Y-06007D01*
X31550Y-05976D01*
X31622Y-06007D01*
X31877Y-06007D01*
X32227Y-06007D01*
X32259Y-05993D01*
X32259Y-06218D01*
X32259Y-06568D01*
X32356Y-06804D01*
X32436Y-06883D01*
X32436Y-07511D01*
X32435Y-07516D01*
X32492Y-07799D01*
X32652Y-08039D01*
X32661Y-08047D01*
X32661Y-08475D01*
G54D10*
G36*
X35471Y-07591D02*
X35400Y-07662D01*
X35329Y-07591D01*
X35400Y-07520D01*
X35471Y-07591D01*
X35471Y-07591D01*
G37*
G54D29*
X35471Y-07591D02*
X35400Y-07662D01*
X35329Y-07591D01*
X35400Y-07520D01*
X35471Y-07591D01*
G54D10*
G36*
X35702Y-04287D02*
X35519Y-03844D01*
X35196Y-03521D01*
X35196Y-02861D01*
X35191Y-02504D01*
X35065Y-02199D01*
X34865Y-02198D01*
X34794Y-02269D01*
X34794Y-02127D01*
X34793Y-01927D01*
X34461Y-01796D01*
X34104Y-01801D01*
X33799Y-01927D01*
X33798Y-02127D01*
X34296Y-02625D01*
X34794Y-02127D01*
X34794Y-02269D01*
X34367Y-02696D01*
X34865Y-03194D01*
X35065Y-03193D01*
X35196Y-02861D01*
X35196Y-03521D01*
X35173Y-03498D01*
X34793Y-03340D01*
X34794Y-03265D01*
X34296Y-02767D01*
X34225Y-02838D01*
X34225Y-02696D01*
X33727Y-02198D01*
X33527Y-02199D01*
X33396Y-02531D01*
X33401Y-02888D01*
X33527Y-03193D01*
X33727Y-03194D01*
X34225Y-02696D01*
X34225Y-02838D01*
X33798Y-03265D01*
X33799Y-03465D01*
X33827Y-03476D01*
X33778Y-03497D01*
X33432Y-03843D01*
X33313Y-04127D01*
X33300Y-04127D01*
X33299Y-04127D01*
X33017Y-04183D01*
X32777Y-04343D01*
X32775Y-04345D01*
X32768Y-04352D01*
X32542Y-04352D01*
X32463Y-04273D01*
X32228Y-04175D01*
X31973Y-04175D01*
X31623Y-04175D01*
X31550Y-04205D01*
X31519Y-04192D01*
X31704Y-03750D01*
X31704Y-03609D01*
X31934Y-03515D01*
X32114Y-03334D01*
X32212Y-03099D01*
X32212Y-02844D01*
X32212Y-02341D01*
X32258Y-02341D01*
X32576Y-02210D01*
X32820Y-01967D01*
X32952Y-01649D01*
X32952Y-01305D01*
X32821Y-00987D01*
X32578Y-00743D01*
X32512Y-00716D01*
X35702Y-00716D01*
X35702Y-04287D01*
X35702Y-04287D01*
G37*
G54D29*
X35702Y-04287D02*
X35519Y-03844D01*
X35196Y-03521D01*
X35196Y-02861D01*
X35191Y-02504D01*
X35065Y-02199D01*
X34865Y-02198D01*
X34794Y-02269D01*
X34794Y-02127D01*
X34793Y-01927D01*
X34461Y-01796D01*
X34104Y-01801D01*
X33799Y-01927D01*
X33798Y-02127D01*
X34296Y-02625D01*
X34794Y-02127D01*
X34794Y-02269D01*
X34367Y-02696D01*
X34865Y-03194D01*
X35065Y-03193D01*
X35196Y-02861D01*
X35196Y-03521D01*
X35173Y-03498D01*
X34793Y-03340D01*
X34794Y-03265D01*
X34296Y-02767D01*
X34225Y-02838D01*
X34225Y-02696D01*
X33727Y-02198D01*
X33527Y-02199D01*
X33396Y-02531D01*
X33401Y-02888D01*
X33527Y-03193D01*
X33727Y-03194D01*
X34225Y-02696D01*
X34225Y-02838D01*
X33798Y-03265D01*
X33799Y-03465D01*
X33827Y-03476D01*
X33778Y-03497D01*
X33432Y-03843D01*
X33313Y-04127D01*
X33300Y-04127D01*
X33299Y-04127D01*
X33017Y-04183D01*
X32777Y-04343D01*
X32775Y-04345D01*
X32768Y-04352D01*
X32542Y-04352D01*
X32463Y-04273D01*
X32228Y-04175D01*
X31973Y-04175D01*
X31623Y-04175D01*
X31550Y-04205D01*
X31519Y-04192D01*
X31704Y-03750D01*
X31704Y-03609D01*
X31934Y-03515D01*
X32114Y-03334D01*
X32212Y-03099D01*
X32212Y-02844D01*
X32212Y-02341D01*
X32258Y-02341D01*
X32576Y-02210D01*
X32820Y-01967D01*
X32952Y-01649D01*
X32952Y-01305D01*
X32821Y-00987D01*
X32578Y-00743D01*
X32512Y-00716D01*
X35702Y-00716D01*
X35702Y-04287D01*
G54D10*
G36*
X35702Y-06410D02*
X35638Y-06384D01*
X35158Y-06385D01*
X34864Y-06506D01*
X34864Y-05712D01*
X35172Y-05585D01*
X35518Y-05239D01*
X35702Y-04796D01*
X35702Y-06410D01*
X35702Y-06410D01*
G37*
G54D29*
X35702Y-06410D02*
X35638Y-06384D01*
X35158Y-06385D01*
X34864Y-06506D01*
X34864Y-05712D01*
X35172Y-05585D01*
X35518Y-05239D01*
X35702Y-04796D01*
X35702Y-06410D01*
G54D10*
G36*
X35702Y-11810D02*
X35638Y-11784D01*
X35286Y-11784D01*
X35269Y-11784D01*
X35126Y-11641D01*
X34450Y-11641D01*
X34400Y-11641D01*
X34300Y-11641D01*
X34300Y-11541D01*
X34400Y-11541D01*
X34450Y-11541D01*
X35126Y-11541D01*
X35286Y-11381D01*
X35286Y-11168D01*
X35253Y-11091D01*
X35286Y-11014D01*
X35286Y-10759D01*
X35286Y-10214D01*
X35286Y-10169D01*
X35286Y-09959D01*
X35286Y-09369D01*
X35253Y-09290D01*
X35286Y-09214D01*
X35286Y-08959D01*
X35286Y-08797D01*
X35642Y-08797D01*
X35702Y-08772D01*
X35702Y-11810D01*
X35702Y-11810D01*
G37*
G54D29*
X35702Y-11810D02*
X35638Y-11784D01*
X35286Y-11784D01*
X35269Y-11784D01*
X35126Y-11641D01*
X34450Y-11641D01*
X34400Y-11641D01*
X34300Y-11641D01*
X34300Y-11541D01*
X34400Y-11541D01*
X34450Y-11541D01*
X35126Y-11541D01*
X35286Y-11381D01*
X35286Y-11168D01*
X35253Y-11091D01*
X35286Y-11014D01*
X35286Y-10759D01*
X35286Y-10214D01*
X35286Y-10169D01*
X35286Y-09959D01*
X35286Y-09369D01*
X35253Y-09290D01*
X35286Y-09214D01*
X35286Y-08959D01*
X35286Y-08797D01*
X35642Y-08797D01*
X35702Y-08772D01*
X35702Y-11810D01*
G54D10*
G36*
X35702Y-15819D02*
X26171Y-15819D01*
X27213Y-14776D01*
X27215Y-14775D01*
X27216Y-14775D01*
X27376Y-14535D01*
X27432Y-14252D01*
X27432Y-14193D01*
X27432Y-14141D01*
X27511Y-14062D01*
X27609Y-13827D01*
X27609Y-13572D01*
X27609Y-13222D01*
X27578Y-13148D01*
X27609Y-13077D01*
X27609Y-12822D01*
X27609Y-12472D01*
X27512Y-12236D01*
X27432Y-12156D01*
X27432Y-11968D01*
X27376Y-11685D01*
X27372Y-11680D01*
X28332Y-11680D01*
X28412Y-11759D01*
X28647Y-11857D01*
X28902Y-11857D01*
X29252Y-11857D01*
X29325Y-11826D01*
X29397Y-11857D01*
X29652Y-11857D01*
X30002Y-11857D01*
X30233Y-11762D01*
X32481Y-11762D01*
X33263Y-11762D01*
X33268Y-11763D01*
X33268Y-11762D01*
X33498Y-11716D01*
X33414Y-11801D01*
X33414Y-12014D01*
X33512Y-12249D01*
X33692Y-12430D01*
X33928Y-12527D01*
X34140Y-12527D01*
X34250Y-12417D01*
X34250Y-12527D01*
X34286Y-12527D01*
X34193Y-12753D01*
X34194Y-13233D01*
X34376Y-13673D01*
X34609Y-13712D01*
X35294Y-13026D01*
X35329Y-12991D01*
X35400Y-12920D01*
X35471Y-12991D01*
X35400Y-13062D01*
X34679Y-13782D01*
X34718Y-14015D01*
X35162Y-14198D01*
X35642Y-14197D01*
X35702Y-14172D01*
X35702Y-15819D01*
X35702Y-15819D01*
G37*
G54D29*
X35702Y-15819D02*
X26171Y-15819D01*
X27213Y-14776D01*
X27215Y-14775D01*
X27216Y-14775D01*
X27376Y-14535D01*
X27432Y-14252D01*
X27432Y-14193D01*
X27432Y-14141D01*
X27511Y-14062D01*
X27609Y-13827D01*
X27609Y-13572D01*
X27609Y-13222D01*
X27578Y-13148D01*
X27609Y-13077D01*
X27609Y-12822D01*
X27609Y-12472D01*
X27512Y-12236D01*
X27432Y-12156D01*
X27432Y-11968D01*
X27376Y-11685D01*
X27372Y-11680D01*
X28332Y-11680D01*
X28412Y-11759D01*
X28647Y-11857D01*
X28902Y-11857D01*
X29252Y-11857D01*
X29325Y-11826D01*
X29397Y-11857D01*
X29652Y-11857D01*
X30002Y-11857D01*
X30233Y-11762D01*
X32481Y-11762D01*
X33263Y-11762D01*
X33268Y-11763D01*
X33268Y-11762D01*
X33498Y-11716D01*
X33414Y-11801D01*
X33414Y-12014D01*
X33512Y-12249D01*
X33692Y-12430D01*
X33928Y-12527D01*
X34140Y-12527D01*
X34250Y-12417D01*
X34250Y-12527D01*
X34286Y-12527D01*
X34193Y-12753D01*
X34194Y-13233D01*
X34376Y-13673D01*
X34609Y-13712D01*
X35294Y-13026D01*
X35329Y-12991D01*
X35400Y-12920D01*
X35471Y-12991D01*
X35400Y-13062D01*
X34679Y-13782D01*
X34718Y-14015D01*
X35162Y-14198D01*
X35642Y-14197D01*
X35702Y-14172D01*
X35702Y-15819D01*
M02*
